<svg xmlns="http://www.w3.org/2000/svg" xmlns:xlink="http://www.w3.org/1999/xlink" contentStyleType="text/css" data-diagram-type="SALT" height="354px" preserveAspectRatio="none" style="width:647px;height:354px;background:#FFFFFF;" version="1.1" viewBox="0 0 647 354" width="647px" zoomAndPan="magnify"><title>Panel del Alcalde - Dashboard de Ciudad</title><defs/><g><g class="title" data-source-line="1"><text fill="#000000" font-family="sans-serif" font-size="14" font-weight="bold" lengthAdjust="spacing" textLength="320.4619" x="161.9556" y="27.9951">Panel del Alcalde - Dashboard de Ciudad</text></g><path d="M12.672,50.6479 L11.672,50.6479 C11.534,50.6479 11.422,50.5359 11.422,50.3979 L11.422,46.8979 C11.422,46.7599 11.534,46.6479 11.672,46.6479 L12.672,46.6479 C12.81,46.6479 12.922,46.7599 12.922,46.8979 L12.922,50.3979 C12.922,50.5359 12.81,50.6479 12.672,50.6479" fill="#A0041E"/><path d="M10.5,51.2969 L17,44.7969 L23.5,51.2969 L23.5,59.7969 L10.5,59.7969" fill="#FFE8B6"/><path d="M17,51.2969 L17.5,51.2969 L17.5,59.2969 L17,59.2969" fill="#FFCC4D"/><path d="M23.5,51.7969 C23.372,51.7969 23.244,51.7479 23.1465,51.6504 L17,45.5039 L10.8535,51.6504 C10.658,51.8459 10.342,51.8459 10.1465,51.6504 C9.951,51.4549 9.951,51.1389 10.1465,50.9434 L16.6465,44.4434 C16.842,44.2479 17.158,44.2479 17.3535,44.4434 L23.8535,50.9434 C24.049,51.1389 24.049,51.4549 23.8535,51.6504 C23.756,51.7479 23.628,51.7969 23.5,51.7969" fill="#66757F"/><path d="M17,51.7969 C16.872,51.7969 16.744,51.7479 16.6465,51.6504 C16.451,51.4549 16.451,51.1389 16.6465,50.9434 L19.8965,47.6934 C20.092,47.4979 20.408,47.4979 20.6035,47.6934 C20.799,47.8889 20.799,48.2049 20.6035,48.4004 L17.3535,51.6504 C17.256,51.7479 17.128,51.7969 17,51.7969" fill="#66757F"/><path d="M13,56.2969 L15,56.2969 L15,59.2969 L13,59.2969" fill="#C1694F"/><path d="M13,51.7969 L15,51.7969 L15,53.7969 L13,53.7969 M19.25,51.7969 L21.25,51.7969 L21.25,53.7969 L19.25,53.7969 M19.25,56.2969 L21.25,56.2969 L21.25,58.2969 L19.25,58.2969" fill="#55ACEE"/><path d="M24.75,60.0469 C24.75,60.4609 24.414,60.7969 24,60.7969 L10,60.7969 C9.586,60.7969 9.25,60.4609 9.25,60.0469 C9.25,59.6329 9.586,59.2969 10,59.2969 L24,59.2969 C24.414,59.2969 24.75,59.6329 24.75,60.0469" fill="#5C913B"/><text fill="#000000" font-family="sans-serif" font-size="12" font-weight="bold" lengthAdjust="spacing" textLength="73.1836" x="30.1777" y="59.9668">Dashboard</text><line style="stroke:#000000;stroke-width:1;" x1="6" x2="6" y1="43.2969" y2="62.7969"/><line style="stroke:#000000;stroke-width:1;" x1="6" x2="106.3613" y1="43.2969" y2="43.2969"/><line style="stroke:#000000;stroke-width:1;" x1="106.3613" x2="106.3613" y1="43.2969" y2="62.7969"/><line style="stroke:#000000;stroke-width:1;" x1="106.3613" x2="116.3613" y1="62.7969" y2="62.7969"/><path d="M134.3103,55.2659 C134.0113,51.9569 132.3613,50.2969 132.3613,50.2969 L129.3613,46.2969 L125.3613,46.2969 L122.3613,50.2969 C121.6518,51.0134 121.6518,51.0134 121.0778,52.4344 C120.0833,52.7644 119.3613,53.6914 119.3613,54.7969 C119.3613,55.5209 119.6738,56.1679 120.1658,56.6244 C119.9778,56.9754 119.8613,57.3704 119.8613,57.7969 C119.8613,58.7759 120.4293,59.6149 121.2488,60.0249 C121.8903,60.9859 122.7473,61.2969 123.3613,61.2969 L131.3613,61.2969 C132.0508,61.2969 133.0478,60.9074 133.7003,59.6419 C134.6658,59.2964 135.3613,58.3819 135.3613,57.2969 C135.3613,56.4579 134.9443,55.7199 134.3103,55.2659 M127.3613,46.2969 C127.6363,46.2969 127.8903,46.2179 128.1113,46.0889 C128.3328,46.2179 128.5868,46.2969 128.8613,46.2969 C129.6898,46.2969 130.8613,45.1249 130.8613,44.2969 C130.8613,44.2969 130.8613,43.2969 129.8613,43.2969 C129.4673,43.2969 129.3613,43.7969 128.8613,43.7969 C128.3613,43.7969 128.3613,43.2969 127.3613,43.2969 C126.3613,43.2969 126.3613,43.7969 125.8613,43.7969 C125.3613,43.7969 125.2558,43.2969 124.8613,43.2969 C123.8613,43.2969 123.8613,44.2969 123.8613,44.2969 C123.8613,45.1249 125.0333,46.2969 125.8613,46.2969 C126.1358,46.2969 126.3898,46.2179 126.6113,46.0889 C126.8328,46.2179 127.0868,46.2969 127.3613,46.2969" fill="#FDD888"/><path d="M130.3613,46.2969 C130.3613,46.5729 130.1378,46.7969 129.8613,46.7969 L124.8613,46.7969 C124.5853,46.7969 124.3613,46.5729 124.3613,46.2969 C124.3613,46.0209 124.5853,45.7969 124.8613,45.7969 L129.8613,45.7969 C130.1378,45.7969 130.3613,46.0209 130.3613,46.2969" fill="#BF6952"/><path d="M130.3118,55.5679 C130.3118,53.3294 126.0213,53.4754 126.0213,52.1249 C126.0213,51.4709 126.6718,51.1514 127.4268,51.1514 C128.6958,51.1514 128.9218,51.9359 129.4963,51.9359 C129.9028,51.9359 130.0988,51.6894 130.0988,51.4129 C130.0988,50.7709 129.0868,50.2849 128.1163,50.1169 L128.1163,49.4969 C128.1163,49.1104 127.7913,48.7969 127.3893,48.7969 C126.9868,48.7969 126.6613,49.1104 126.6613,49.4969 L126.6613,50.1384 C125.6033,50.3699 124.6928,51.0759 124.6928,52.2264 C124.6928,54.3759 128.9823,54.2889 128.9823,55.7989 C128.9823,56.3224 128.3933,56.8454 127.4268,56.8454 C125.9763,56.8454 125.4933,55.9009 124.9043,55.9009 C124.6173,55.9009 124.3608,56.1329 124.3608,56.4829 C124.3608,57.0394 125.3298,57.7084 126.6623,57.8949 L126.6618,57.8999 L126.6618,58.5989 C126.6618,58.9849 126.9878,59.2989 127.3898,59.2989 C127.7918,59.2989 128.1173,58.9849 128.1173,58.5989 L128.1173,57.8999 C128.1173,57.8914 128.1133,57.8849 128.1128,57.8774 C129.3118,57.6624 130.3118,56.9114 130.3118,55.5679" fill="#67757F"/><text fill="#000000" font-family="sans-serif" font-size="12" lengthAdjust="spacing" textLength="58.8457" x="140.1758" y="59.9668">Econom&#237;a</text><line style="stroke:#000000;stroke-width:1;" x1="116.3613" x2="116.3613" y1="43.2969" y2="62.7969"/><line style="stroke:#000000;stroke-width:1;" x1="116.3613" x2="202.0215" y1="43.2969" y2="43.2969"/><line style="stroke:#000000;stroke-width:1;" x1="202.0215" x2="202.0215" y1="43.2969" y2="62.7969"/><line style="stroke:#000000;stroke-width:1;" x1="202.0215" x2="212.0215" y1="62.7969" y2="62.7969"/><path d="M232.0215,59.2969 C232.0215,61.2969 232.0215,61.2969 230.0215,61.2969 L216.0215,61.2969 C214.0215,61.2969 214.0215,61.2969 214.0215,59.2969 L214.0215,45.2969 C214.0215,43.2969 216.0215,43.2969 216.0215,43.2969 L230.0215,43.2969 C232.0215,43.2969 232.0215,45.2969 232.0215,45.2969 L232.0215,59.2969" fill="#88C9F9"/><path d="M214.0215,59.2969 C214.0215,61.2969 216.0215,61.2969 216.0215,61.2969 L230.0215,61.2969 C232.0215,61.2969 232.0215,59.2969 232.0215,59.2969 L232.0215,52.7969 L214.0215,52.7969 L214.0215,59.2969" fill="#77B255"/><path d="M229.678,44.6359 C229.541,44.6359 229.4085,44.6569 229.2845,44.6954 C229.1365,44.2739 228.7365,43.9709 228.2645,43.9709 C227.758,43.9709 227.3345,44.3194 227.2165,44.7894 C227.0915,44.6949 226.937,44.6364 226.7675,44.6364 C226.354,44.6364 226.019,44.9714 226.019,45.3849 C226.019,45.4854 226.0395,45.5809 226.076,45.6684 C226.004,45.6484 225.93,45.6344 225.853,45.6344 C225.3935,45.6339 225.0215,46.0059 225.0215,46.4654 C225.0215,46.9249 225.3935,47.2969 225.853,47.2969 L229.678,47.2969 C230.4125,47.2969 231.0085,46.7014 231.0085,45.9664 C231.009,45.2319 230.4125,44.6359 229.678,44.6359" fill="#F5F8FA"/><path d="M225.209,52.7969 L220.834,52.7969 L215.153,61.1049 C215.605,61.2944 216.0215,61.2969 216.0215,61.2969 L230.0215,61.2969 C230.3765,61.2969 230.666,61.2319 230.9065,61.1279 L225.209,52.7969" fill="#D99E82"/><path d="M216.0215,61.2969 L230.0215,61.2969 L224.709,52.7969 L221.334,52.7969" fill="#58595B"/><path d="M217.334,61.2969 L228.709,61.2969 L224.334,52.7969 L221.709,52.7969" fill="#808285"/><path d="M226.0215,61.2969 L225.5215,61.2969 L223.5215,52.7969 L223.756,52.7969 M222.5215,52.7969 L220.5215,61.2969 L220.0215,61.2969 L222.2635,52.7969" fill="#CCD6DD"/><path d="M220.0215,59.7969 L226.0215,59.7969 L226.0215,60.2969 L220.0215,60.2969 M220.0215,58.2969 L226.0215,58.2969 L226.0215,58.7969 L220.0215,58.7969 M219.9905,56.9529 L225.9905,56.9529 L225.9905,57.4529 L219.9905,57.4529 M220.5215,55.7969 L225.5215,55.7969 L225.5215,56.2969 L220.5215,56.2969 M221.5215,54.7969 L224.5215,54.7969 L224.5215,55.2969 L221.5215,55.2969 M221.5215,53.9529 L224.5215,53.9529 L224.5215,54.2969 L221.5215,54.2969 M221.5215,53.2344 L224.5215,53.2344 L224.5215,53.5784 L221.5215,53.5784" fill="#808285"/><path d="M218.0215,54.0469 C218.0215,54.1849 217.9095,54.2969 217.7715,54.2969 C217.6335,54.2969 217.5215,54.1849 217.5215,54.0469 L217.5215,48.5469 C217.5215,48.4089 217.6335,48.2969 217.7715,48.2969 C217.9095,48.2969 218.0215,48.4089 218.0215,48.5469 L218.0215,54.0469 M228.5215,54.0949 C228.5215,54.2064 228.431,54.2969 228.3195,54.2969 L228.224,54.2969 C228.112,54.2969 228.0215,54.2064 228.0215,54.0949 L228.0215,48.4989 C228.0215,48.3874 228.112,48.2969 228.2235,48.2969 L228.319,48.2969 C228.431,48.2969 228.5215,48.3874 228.5215,48.4989 L228.5215,54.0949" fill="#66757F"/><path d="M228.5215,48.5469 C228.5215,48.6849 228.4095,48.7969 228.2715,48.7969 L217.7715,48.7969 C217.6335,48.7969 217.5215,48.6849 217.5215,48.5469 C217.5215,48.4089 217.6335,48.2969 217.7715,48.2969 L228.2715,48.2969 C228.4095,48.2969 228.5215,48.4089 228.5215,48.5469 M228.5215,51.1049 C228.5215,51.2109 228.4355,51.2969 228.3295,51.2969 L217.7135,51.2969 C217.6075,51.2969 217.5215,51.2109 217.5215,51.1049 L217.5215,50.9889 C217.5215,50.8829 217.6075,50.7969 217.7135,50.7969 L228.3295,50.7969 C228.4355,50.7969 228.5215,50.8829 228.5215,50.9889 L228.5215,51.1049" fill="#66757F"/><path d="M227.5215,50.7969 C227.5215,51.0729 227.298,51.2969 227.0215,51.2969 L219.0215,51.2969 C218.7455,51.2969 218.5215,51.0729 218.5215,50.7969 L218.5215,48.7969 C218.5215,48.5209 218.7455,48.2969 219.0215,48.2969 L227.0215,48.2969 C227.298,48.2969 227.5215,48.5209 227.5215,48.7969 L227.5215,50.7969" fill="#5C913B"/><path d="M220.5215,48.7969 L221.5215,48.7969 L221.5215,49.7969 L220.5215,49.7969" fill="#A6D488"/><path d="M220.0215,50.2969 L222.0215,50.2969 L222.0215,50.7969 L220.0215,50.7969" fill="#77B255"/><path d="M224.5215,48.7969 L225.5215,48.7969 L225.5215,49.7969 L224.5215,49.7969" fill="#A6D488"/><path d="M224.0215,50.2969 L226.0215,50.2969 L226.0215,50.7969 L224.0215,50.7969" fill="#77B255"/><text fill="#000000" font-family="sans-serif" font-size="12" lengthAdjust="spacing" textLength="41.1152" x="235.8359" y="59.9668">Tr&#225;fico</text><line style="stroke:#000000;stroke-width:1;" x1="212.0215" x2="212.0215" y1="43.2969" y2="62.7969"/><line style="stroke:#000000;stroke-width:1;" x1="212.0215" x2="279.9512" y1="43.2969" y2="43.2969"/><line style="stroke:#000000;stroke-width:1;" x1="279.9512" x2="279.9512" y1="43.2969" y2="62.7969"/><line style="stroke:#000000;stroke-width:1;" x1="279.9512" x2="289.9512" y1="62.7969" y2="62.7969"/><path d="M308.4202,51.1224 C308.3472,50.9269 308.1602,50.7969 307.9512,50.7969 L301.9137,50.7969 L305.3962,44.0259 C305.5057,43.8129 305.4492,43.5524 305.2607,43.4044 C305.1697,43.3324 305.0602,43.2969 304.9512,43.2969 C304.8347,43.2969 304.7182,43.3379 304.6247,43.4184 L300.9512,46.5909 L293.6247,52.9184 C293.4667,53.0549 293.4097,53.2754 293.4827,53.4709 C293.5557,53.6664 293.7422,53.7969 293.9512,53.7969 L299.9887,53.7969 L296.5062,60.5679 C296.3967,60.7809 296.4532,61.0414 296.6417,61.1894 C296.7327,61.2614 296.8422,61.2969 296.9512,61.2969 C297.0677,61.2969 297.1842,61.2559 297.2777,61.1754 L300.9512,58.0029 L308.2777,51.6754 C308.4362,51.5389 308.4927,51.3184 308.4202,51.1224" fill="#FFAC33"/><text fill="#000000" font-family="sans-serif" font-size="12" lengthAdjust="spacing" textLength="53.8945" x="313.7656" y="59.9668">Servicios</text><line style="stroke:#000000;stroke-width:1;" x1="289.9512" x2="289.9512" y1="43.2969" y2="62.7969"/><line style="stroke:#000000;stroke-width:1;" x1="289.9512" x2="370.6602" y1="43.2969" y2="43.2969"/><line style="stroke:#000000;stroke-width:1;" x1="370.6602" x2="370.6602" y1="43.2969" y2="62.7969"/><line style="stroke:#000000;stroke-width:1;" x1="370.6602" x2="380.6602" y1="62.7969" y2="62.7969"/><path d="M399.6602,50.7969 L397.9792,50.7969 C397.8172,50.1124 397.5472,49.4714 397.1882,48.8899 L398.3777,47.7004 C398.7682,47.3099 398.7682,46.6764 398.3777,46.2859 L397.6707,45.5789 C397.2802,45.1884 396.6472,45.1884 396.2567,45.5789 L395.0672,46.7684 C394.4852,46.4094 393.8447,46.1399 393.1602,45.9779 L393.1602,44.2969 C393.1602,43.7449 392.7122,43.2969 392.1602,43.2969 L391.1602,43.2969 C390.6082,43.2969 390.1602,43.7449 390.1602,44.2969 L390.1602,45.9779 C389.4757,46.1399 388.8347,46.4099 388.2532,46.7689 L387.0642,45.5794 C386.6737,45.1889 386.0402,45.1889 385.6502,45.5794 L384.9427,46.2864 C384.5522,46.6769 384.5522,47.3104 384.9422,47.7009 L386.1317,48.8904 C385.7727,49.4719 385.5032,50.1129 385.3412,50.7969 L383.6602,50.7969 C383.1082,50.7969 382.6602,51.2449 382.6602,51.7969 L382.6602,52.7969 C382.6602,53.3489 383.1082,53.7969 383.6602,53.7969 L385.3412,53.7969 C385.5032,54.4809 385.7732,55.1219 386.1322,55.7034 L384.9427,56.8929 C384.5527,57.2829 384.5527,57.9169 384.9432,58.3074 L385.6502,59.0144 C386.0402,59.4044 386.6737,59.4044 387.0642,59.0144 L388.2537,57.8249 C388.8352,58.1844 389.4762,58.4539 390.1607,58.6159 L390.1607,60.2969 C390.1607,60.8489 390.6087,61.2969 391.1607,61.2969 L392.1607,61.2969 C392.7127,61.2969 393.1607,60.8489 393.1607,60.2969 L393.1607,58.6159 C393.8447,58.4539 394.4857,58.1839 395.0672,57.8249 L396.2567,59.0144 C396.6472,59.4049 397.2802,59.4049 397.6707,59.0144 L398.3777,58.3074 C398.7682,57.9169 398.7682,57.2834 398.3777,56.8929 L397.1882,55.7034 C397.5477,55.1219 397.8172,54.4809 397.9792,53.7964 L399.6602,53.7964 C400.2122,53.7964 400.6602,53.3484 400.6602,52.7964 L400.6602,51.7964 C400.6602,51.2449 400.2122,50.7969 399.6602,50.7969 M391.6602,56.2969 C389.4512,56.2969 387.6602,54.5059 387.6602,52.2969 C387.6602,50.0879 389.4512,48.2969 391.6602,48.2969 C393.8692,48.2969 395.6602,50.0879 395.6602,52.2969 C395.6602,54.5059 393.8692,56.2969 391.6602,56.2969" fill="#66757F"/><text fill="#000000" font-family="sans-serif" font-size="12" lengthAdjust="spacing" textLength="83.2734" x="404.4746" y="59.9668">Configuraci&#243;n</text><line style="stroke:#000000;stroke-width:1;" x1="380.6602" x2="380.6602" y1="43.2969" y2="62.7969"/><line style="stroke:#000000;stroke-width:1;" x1="380.6602" x2="490.748" y1="43.2969" y2="43.2969"/><line style="stroke:#000000;stroke-width:1;" x1="490.748" x2="490.748" y1="43.2969" y2="62.7969"/><line style="stroke:#000000;stroke-width:1;" x1="490.748" x2="500.748" y1="62.7969" y2="62.7969"/><text fill="#000000" font-family="sans-serif" font-size="12" lengthAdjust="spacing" textLength="21.1992" x="8" y="93.9043">T +</text><text fill="#000000" font-family="sans-serif" font-size="12" font-weight="bold" lengthAdjust="spacing" textLength="62.25" x="33.0137" y="93.9043">Resumen</text><text fill="#000000" font-family="sans-serif" font-size="12" lengthAdjust="spacing" textLength="20.1094" x="8" y="115.4043">++</text><path d="M46.4238,109.0989 L46.4238,108.1174 C46.9238,107.6024 47.8808,106.6724 48.1193,105.4809 C48.1903,105.5204 48.1468,105.5459 48.2258,105.5459 C48.6048,105.5459 48.8538,105.0544 48.8538,104.4474 C48.8538,103.8504 48.5258,103.3669 48.1543,103.3519 C48.2258,103.0939 48.2603,102.7489 48.2603,102.3059 C48.2603,100.8279 46.9858,99.0534 44.1338,99.0534 C41.5998,99.0534 40.0118,100.8279 40.0118,102.3059 C40.0118,102.7349 40.0373,103.0869 40.0828,103.3594 C39.7343,103.4119 39.4593,103.8759 39.4593,104.4469 C39.4593,105.0539 39.7663,105.5454 40.1458,105.5454 C40.2243,105.5454 40.1113,105.5199 40.1818,105.4804 C40.4203,106.6724 41.4238,107.6019 41.9238,108.1174 L41.9238,109.0409 C39.9238,109.2869 38.4238,110.3549 38.4238,111.4234 L38.4238,111.8284 C38.4238,112.2344 38.8353,112.2344 39.2408,112.2344 L48.6058,112.2344 C49.0123,112.2344 49.4238,112.2344 49.4238,111.8284 L49.4238,111.4234 C49.4238,110.4229 47.9238,109.4249 46.4238,109.0989" fill="#55ACEE"/><path d="M40.4238,113.0989 L40.4238,112.1174 C40.9238,111.6024 41.8808,110.6724 42.1193,109.4809 C42.1903,109.5204 42.1468,109.5459 42.2258,109.5459 C42.6048,109.5459 42.8538,109.0544 42.8538,108.4474 C42.8538,107.8504 42.5258,107.3669 42.1543,107.3519 C42.2258,107.0939 42.2603,106.7489 42.2603,106.3059 C42.2603,104.8279 40.9858,103.0534 38.1338,103.0534 C35.5993,103.0534 34.0118,104.8279 34.0118,106.3059 C34.0118,106.7349 34.0373,107.0869 34.0828,107.3594 C33.7343,107.4119 33.4593,107.8759 33.4593,108.4469 C33.4593,109.0539 33.7663,109.5454 34.1458,109.5454 C34.2243,109.5454 34.1113,109.5199 34.1818,109.4804 C34.4203,110.6724 35.4238,111.6019 35.9238,112.1174 L35.9238,113.0409 C33.9238,113.2869 32.4238,114.3549 32.4238,115.4234 L32.4238,115.8289 C32.4238,116.2344 32.8353,116.2344 33.2408,116.2344 L42.6058,116.2344 C43.0123,116.2344 43.4238,116.2344 43.4238,115.8284 L43.4238,115.4229 C43.4238,114.4229 41.9238,113.4249 40.4238,113.0989" fill="#226699"/><text fill="#000000" font-family="sans-serif" font-size="12" lengthAdjust="spacing" textLength="107.6074" x="53.7383" y="115.4043">Poblaci&#243;n: 12,304</text><text fill="#000000" font-family="sans-serif" font-size="12" lengthAdjust="spacing" textLength="20.1094" x="8" y="136.9043">++</text><path d="M49.9238,129.2344 C49.9238,134.2049 45.8943,138.2344 40.9238,138.2344 C35.9533,138.2344 31.9238,134.2049 31.9238,129.2344 C31.9238,124.2639 35.9533,120.2344 40.9238,120.2344 C45.8943,120.2344 49.9238,124.2639 49.9238,129.2344" fill="#FFCC4D"/><ellipse cx="35.4238" cy="129.2344" fill="#FF7892" rx="2.5" ry="2.5" style="stroke:#FF7892;stroke-width:1;"/><ellipse cx="46.4238" cy="129.2344" fill="#FF7892" rx="2.5" ry="2.5" style="stroke:#FF7892;stroke-width:1;"/><path d="M45.5913,131.0489 C45.5023,130.9684 45.3693,130.9634 45.2738,131.0344 C45.2543,131.0489 43.3128,132.4844 40.9238,132.4844 C38.5408,132.4844 36.5928,131.0489 36.5738,131.0344 C36.4783,130.9634 36.3453,130.9694 36.2563,131.0489 C36.1678,131.1289 36.1478,131.2609 36.2093,131.3629 C36.2738,131.4704 37.8178,133.9844 40.9238,133.9844 C44.0298,133.9844 45.5743,131.4704 45.6383,131.3629 C45.6998,131.2604 45.6803,131.1289 45.5913,131.0489 M35.9233,127.7344 C35.8483,127.7344 35.7718,127.7174 35.7003,127.6814 C35.4533,127.5579 35.3533,127.2574 35.4768,127.0104 C35.5028,126.9584 36.1358,125.7344 37.9238,125.7344 C39.7123,125.7344 40.3448,126.9589 40.3708,127.0109 C40.4943,127.2579 40.3943,127.5584 40.1473,127.6819 C39.9013,127.8044 39.6048,127.7064 39.4793,127.4639 C39.4578,127.4239 39.0643,126.7344 37.9238,126.7344 C36.7653,126.7344 36.3743,127.4509 36.3708,127.4579 C36.2833,127.6334 36.1068,127.7344 35.9233,127.7344 M45.9243,127.7344 C45.7408,127.7344 45.5643,127.6334 45.4763,127.4579 C45.4638,127.4349 45.0733,126.7344 43.9238,126.7344 C42.7743,126.7344 42.3838,127.4349 42.3678,127.4644 C42.2378,127.7049 41.9383,127.7994 41.6953,127.6744 C41.4528,127.5484 41.3543,127.2549 41.4763,127.0104 C41.5023,126.9589 42.1353,125.7344 43.9238,125.7344 C45.7123,125.7344 46.3453,126.9589 46.3713,127.0109 C46.4948,127.2579 46.3948,127.5584 46.1478,127.6819 C46.0758,127.7174 45.9993,127.7344 45.9243,127.7344" fill="#664500"/><text fill="#000000" font-family="sans-serif" font-size="12" lengthAdjust="spacing" textLength="88.002" x="53.7383" y="136.9043">Felicidad: 72%</text><text fill="#000000" font-family="sans-serif" font-size="12" lengthAdjust="spacing" textLength="20.1094" x="8" y="158.4043">++</text><path d="M47.8728,153.7034 C47.5738,150.3944 45.9238,148.7344 45.9238,148.7344 L42.9238,144.7344 L38.9238,144.7344 L35.9238,148.7344 C35.2143,149.4509 35.2143,149.4509 34.6403,150.8719 C33.6458,151.2019 32.9238,152.1289 32.9238,153.2344 C32.9238,153.9584 33.2363,154.6054 33.7283,155.0619 C33.5403,155.4129 33.4238,155.8079 33.4238,156.2344 C33.4238,157.2134 33.9918,158.0524 34.8113,158.4624 C35.4528,159.4234 36.3098,159.7344 36.9238,159.7344 L44.9238,159.7344 C45.6133,159.7344 46.6103,159.3449 47.2628,158.0794 C48.2283,157.7339 48.9238,156.8194 48.9238,155.7344 C48.9238,154.8954 48.5068,154.1574 47.8728,153.7034 M40.9238,144.7344 C41.1988,144.7344 41.4528,144.6554 41.6738,144.5264 C41.8953,144.6554 42.1493,144.7344 42.4238,144.7344 C43.2523,144.7344 44.4238,143.5624 44.4238,142.7344 C44.4238,142.7344 44.4238,141.7344 43.4238,141.7344 C43.0298,141.7344 42.9238,142.2344 42.4238,142.2344 C41.9238,142.2344 41.9238,141.7344 40.9238,141.7344 C39.9238,141.7344 39.9238,142.2344 39.4238,142.2344 C38.9238,142.2344 38.8183,141.7344 38.4238,141.7344 C37.4238,141.7344 37.4238,142.7344 37.4238,142.7344 C37.4238,143.5624 38.5958,144.7344 39.4238,144.7344 C39.6983,144.7344 39.9523,144.6554 40.1738,144.5264 C40.3953,144.6554 40.6493,144.7344 40.9238,144.7344" fill="#FDD888"/><path d="M43.9238,144.7344 C43.9238,145.0104 43.7003,145.2344 43.4238,145.2344 L38.4238,145.2344 C38.1478,145.2344 37.9238,145.0104 37.9238,144.7344 C37.9238,144.4584 38.1478,144.2344 38.4238,144.2344 L43.4238,144.2344 C43.7003,144.2344 43.9238,144.4584 43.9238,144.7344" fill="#BF6952"/><path d="M43.8743,154.0054 C43.8743,151.7669 39.5838,151.9129 39.5838,150.5624 C39.5838,149.9084 40.2343,149.5889 40.9893,149.5889 C42.2583,149.5889 42.4843,150.3734 43.0588,150.3734 C43.4653,150.3734 43.6613,150.1269 43.6613,149.8504 C43.6613,149.2084 42.6493,148.7224 41.6788,148.5544 L41.6788,147.9344 C41.6788,147.5479 41.3538,147.2344 40.9518,147.2344 C40.5493,147.2344 40.2238,147.5479 40.2238,147.9344 L40.2238,148.5759 C39.1658,148.8074 38.2553,149.5134 38.2553,150.6639 C38.2553,152.8134 42.5448,152.7264 42.5448,154.2364 C42.5448,154.7599 41.9558,155.2829 40.9893,155.2829 C39.5388,155.2829 39.0558,154.3384 38.4668,154.3384 C38.1798,154.3384 37.9233,154.5704 37.9233,154.9204 C37.9233,155.4769 38.8923,156.1459 40.2248,156.3324 L40.2243,156.3374 L40.2243,157.0364 C40.2243,157.4224 40.5503,157.7364 40.9523,157.7364 C41.3543,157.7364 41.6798,157.4224 41.6798,157.0364 L41.6798,156.3374 C41.6798,156.3289 41.6758,156.3224 41.6753,156.3149 C42.8743,156.0999 43.8743,155.3489 43.8743,154.0054" fill="#67757F"/><text fill="#000000" font-family="sans-serif" font-size="12" lengthAdjust="spacing" textLength="122.0449" x="53.7383" y="158.4043">Fondos: &#8364;148,200 +</text><text fill="#000000" font-family="sans-serif" font-size="12" font-weight="bold" lengthAdjust="spacing" textLength="126.8027" x="179.5977" y="158.4043">Actividad Reciente</text><text fill="#000000" font-family="sans-serif" font-size="12" lengthAdjust="spacing" textLength="20.1094" x="8" y="179.9043">++</text><path d="M45.9183,173.2229 C45.6073,173.2229 45.3058,173.2619 45.0153,173.3294 L39.8293,168.1434 C39.8963,167.8529 39.9353,167.5514 39.9353,167.2404 C39.9353,165.0279 38.1418,163.2344 35.9298,163.2344 C35.4788,163.2344 34.8788,163.6924 35.3783,164.1919 L36.8768,165.6904 C37.3763,166.6894 37.3763,166.6894 36.3773,167.6879 C35.3783,168.6864 34.3793,168.1869 34.3793,168.1869 L32.8813,166.6889 C32.3818,166.1894 31.9238,166.7869 31.9238,167.2404 C31.9238,169.4529 33.7173,171.2464 35.9298,171.2464 C36.2408,171.2464 36.5423,171.2074 36.8328,171.1404 L42.0183,176.3259 C41.9508,176.6164 41.9118,176.9179 41.9118,177.2289 C41.9118,179.4414 43.7058,181.2344 45.9178,181.2344 C46.3683,181.2344 46.9683,180.7764 46.4688,180.2769 L44.9703,178.7784 C44.4708,177.7794 44.4708,177.7794 45.4698,176.7809 C46.4688,175.7824 47.4673,176.2814 47.4673,176.2814 L48.9658,177.7799 C49.4658,178.2794 49.9238,177.6819 49.9238,177.2289 C49.9238,175.0164 48.1303,173.2229 45.9183,173.2229" fill="#8899A6"/><text fill="#000000" font-family="sans-serif" font-size="12" lengthAdjust="spacing" textLength="189.4219" x="53.7383" y="179.9043">Construido "Estaci&#243;n de metro"</text><text fill="#000000" font-family="sans-serif" font-size="12" lengthAdjust="spacing" textLength="20.1094" x="8" y="201.4043">++</text><path d="M32.9238,190.2344 C31.9238,190.2344 31.9238,191.2344 31.9238,191.2344 L31.9238,201.7344 C31.9238,202.7344 31.9238,202.7344 32.9238,202.7344 L48.9238,202.7344 C49.9238,202.7344 49.9238,201.7344 49.9238,201.7344 L49.9238,191.2344 C49.9238,190.2344 49.9238,190.2344 48.9238,190.2344 L32.9238,190.2344" fill="#5C913B"/><path d="M32.9238,187.7344 C31.9238,187.7344 31.9238,188.7344 31.9238,188.7344 L31.9238,198.7344 C31.9238,199.7344 31.9238,199.7344 32.9238,199.7344 L48.9238,199.7344 C49.9238,199.7344 49.9238,198.7344 49.9238,198.7344 L49.9238,188.7344 C49.9238,187.7344 49.9238,187.7344 48.9238,187.7344 L32.9238,187.7344" fill="#A7D28B"/><ellipse cx="44.4238" cy="193.7344" fill="#77B255" rx="3.25" ry="3.25" style="stroke:#77B255;stroke-width:1;"/><path d="M48.4238,198.9844 L33.4238,198.9844 C33.0103,198.9844 32.6738,198.6479 32.6738,198.2344 L32.6738,189.2344 C32.6738,188.8209 33.0103,188.4844 33.4238,188.4844 L48.4238,188.4844 C48.8373,188.4844 49.1738,188.8209 49.1738,189.2344 L49.1738,198.2344 C49.1738,198.6479 48.8373,198.9844 48.4238,198.9844 M33.4238,188.9844 C33.2863,188.9844 33.1738,189.0964 33.1738,189.2344 L33.1738,198.2344 C33.1738,198.3719 33.2863,198.4844 33.4238,198.4844 L48.4238,198.4844 C48.5613,198.4844 48.6738,198.3719 48.6738,198.2344 L48.6738,189.2344 C48.6738,189.0964 48.5613,188.9844 48.4238,188.9844 L33.4238,188.9844" fill="#5C913B"/><path d="M38.9238,187.7344 L42.9238,187.7344 L42.9238,199.7654 L38.9238,199.7654" fill="#FFE8B6"/><path d="M38.9238,199.7344 L42.9238,199.7344 L42.9238,202.7344 L38.9238,202.7344" fill="#FFAC33"/><path d="M37.8288,194.7459 C37.8288,193.2564 35.0823,193.3534 35.0823,192.4539 C35.0823,192.0184 35.4988,191.8059 35.9818,191.8059 C36.7943,191.8059 36.9388,192.3279 37.3068,192.3279 C37.5673,192.3279 37.6928,192.1639 37.6928,191.9799 C37.6928,191.5519 37.0448,191.2289 36.4233,191.1169 L36.4233,190.7044 C36.4233,190.4469 36.2148,190.2384 35.9573,190.2384 C35.6998,190.2384 35.4913,190.4474 35.4913,190.7044 L35.4913,191.1309 C34.8143,191.2859 34.2308,191.7559 34.2308,192.5214 C34.2308,193.9524 36.9773,193.8944 36.9773,194.9004 C36.9773,195.2479 36.6003,195.5959 35.9813,195.5959 C35.0528,195.5959 34.7433,194.9674 34.3668,194.9674 C34.1828,194.9674 34.0188,195.1219 34.0188,195.3549 C34.0188,195.7254 34.6388,196.1704 35.4923,196.2954 L35.4918,196.2974 L35.4918,196.7644 C35.4918,197.0214 35.7008,197.2304 35.9583,197.2304 C36.2153,197.2299 36.4238,197.0209 36.4238,196.7644 L36.4238,196.2974 C36.4238,196.2924 36.4213,196.2879 36.4208,196.2834 C37.1883,196.1399 37.8288,195.6404 37.8288,194.7459" fill="#5C913B"/><text fill="#000000" font-family="sans-serif" font-size="12" lengthAdjust="spacing" textLength="245.9766" x="53.7383" y="201.4043">Ajustado impuestos residenciales al 10%</text><text fill="#000000" font-family="sans-serif" font-size="12" lengthAdjust="spacing" textLength="20.1094" x="8" y="222.9043">++</text><path d="M49.0038,220.6404 L47.5458,207.5734 C47.4608,206.8109 46.8163,206.2344 46.0493,206.2344 L35.7558,206.2344 C34.9833,206.2344 34.3363,206.8184 34.2573,207.5864 L32.9223,220.6404 L49.0038,220.6404" fill="#DD2E44"/><ellipse cx="40.9583" cy="213.2344" fill="#BE1931" rx="4.683" ry="4.683" style="stroke:#BE1931;stroke-width:1;"/><path d="M49.6843,220.8244 L32.1633,220.8244 L31.9238,223.2344 C31.9238,224.2344 32.9238,224.2344 32.9238,224.2344 L48.9238,224.2344 C49.9238,224.2344 49.9238,224.2344 49.9238,223.2344 L49.6843,220.8244" fill="#99AAB5"/><path d="M49.7208,221.1904 L49.6843,220.8244 C49.6138,220.4554 49.2993,220.2344 48.9238,220.2344 L32.9238,220.2344 C32.5483,220.2344 32.2338,220.4554 32.1633,220.8244 L32.1268,221.1904 L49.7208,221.1904" fill="#CCD6DD"/><path d="M46.7473,213.0494 L42.9133,212.4254 L45.1828,209.2714 C45.2363,209.1974 45.2283,209.0944 45.1633,209.0294 C45.0978,208.9649 44.9953,208.9564 44.9213,209.0099 L41.7668,211.2789 L41.1433,207.4454 C41.1288,207.3549 41.0498,207.2884 40.9583,207.2884 C40.8668,207.2884 40.7878,207.3549 40.7733,207.4454 L40.1493,211.2789 L36.9953,209.0099 C36.9208,208.9564 36.8188,208.9649 36.7533,209.0294 C36.6883,209.0949 36.6803,209.1969 36.7338,209.2714 L39.0028,212.4254 L35.1688,213.0494 C35.0783,213.0639 35.0118,213.1424 35.0118,213.2344 C35.0118,213.3264 35.0783,213.4049 35.1688,213.4194 L39.0028,214.0434 L36.7338,217.1974 C36.6803,217.2719 36.6883,217.3744 36.7533,217.4394 C36.8188,217.5039 36.9208,217.5124 36.9953,217.4589 L40.1493,215.1899 L40.7733,219.0234 C40.7878,219.1144 40.8668,219.1804 40.9583,219.1804 C41.0498,219.1804 41.1288,219.1134 41.1433,219.0234 L41.7668,215.1899 L44.9208,217.4589 C44.9948,217.5119 45.0978,217.5039 45.1628,217.4394 C45.2278,217.3739 45.2358,217.2719 45.1823,217.1974 L42.9133,214.0434 L46.7473,213.4194 C46.8383,213.4049 46.9043,213.3259 46.9043,213.2344 C46.9043,213.1429 46.8383,213.0639 46.7473,213.0494" fill="#EC9DAD"/><text fill="#000000" font-family="sans-serif" font-size="12" lengthAdjust="spacing" textLength="220.1836" x="53.7383" y="222.9043">Alerta: congesti&#243;n en Distrito Centro</text><text fill="#000000" font-family="sans-serif" font-size="12" font-weight="bold" lengthAdjust="spacing" textLength="120.1113" x="310.4004" y="93.9043">Indicadores Clave</text><line style="stroke:#AAAAAA;stroke-width:1;" x1="311.4004" x2="374.0352" y1="102.2344" y2="102.2344"/><line style="stroke:#AAAAAA;stroke-width:1;" x1="311.4004" x2="374.0352" y1="104.2344" y2="104.2344"/><line style="stroke:#AAAAAA;stroke-width:1;" x1="311.4004" x2="374.0352" y1="110.2344" y2="110.2344"/><line style="stroke:#AAAAAA;stroke-width:1;" x1="311.4004" x2="374.0352" y1="112.2344" y2="112.2344"/><text fill="#000000" font-family="sans-serif" font-size="12" lengthAdjust="spacing" textLength="45.8086" x="311.4004" y="126.873">Energ&#237;a</text><text fill="#000000" font-family="sans-serif" font-size="12" lengthAdjust="spacing" textLength="26.6719" x="375.0352" y="126.873">95%</text><text fill="#000000" font-family="sans-serif" font-size="12" lengthAdjust="spacing" textLength="30.7852" x="311.4004" y="142.8418">Agua</text><text fill="#000000" font-family="sans-serif" font-size="12" lengthAdjust="spacing" textLength="26.6719" x="375.0352" y="142.8418">90%</text><text fill="#000000" font-family="sans-serif" font-size="12" lengthAdjust="spacing" textLength="54.123" x="311.4004" y="158.8105">Residuos</text><text fill="#000000" font-family="sans-serif" font-size="12" lengthAdjust="spacing" textLength="26.6719" x="375.0352" y="158.8105">88%</text><text fill="#000000" font-family="sans-serif" font-size="12" lengthAdjust="spacing" textLength="33.5273" x="311.4004" y="174.7793">Salud</text><text fill="#000000" font-family="sans-serif" font-size="12" lengthAdjust="spacing" textLength="26.6719" x="375.0352" y="174.7793">75%</text><text fill="#000000" font-family="sans-serif" font-size="12" lengthAdjust="spacing" textLength="61.6348" x="311.4004" y="190.748">Educaci&#243;n</text><text fill="#000000" font-family="sans-serif" font-size="12" lengthAdjust="spacing" textLength="26.6719" x="375.0352" y="190.748">85%</text><line style="stroke:#AAAAAA;stroke-width:1;" x1="311.4004" x2="374.0352" y1="198.0781" y2="198.0781"/><line style="stroke:#AAAAAA;stroke-width:1;" x1="311.4004" x2="374.0352" y1="200.0781" y2="200.0781"/><line style="stroke:#AAAAAA;stroke-width:1;" x1="311.4004" x2="374.0352" y1="206.0781" y2="206.0781"/><line style="stroke:#AAAAAA;stroke-width:1;" x1="311.4004" x2="374.0352" y1="208.0781" y2="208.0781"/><line style="stroke:#000000;stroke-width:1;" x1="310.4004" x2="374.0352" y1="98.7344" y2="98.7344"/><line style="stroke:#000000;stroke-width:1;" x1="374.0352" x2="402.707" y1="98.7344" y2="98.7344"/><line style="stroke:#000000;stroke-width:1;" x1="310.4004" x2="374.0352" y1="210.5781" y2="210.5781"/><line style="stroke:#000000;stroke-width:1;" x1="374.0352" x2="402.707" y1="210.5781" y2="210.5781"/><line style="stroke:#000000;stroke-width:1;" x1="310.4004" x2="310.4004" y1="98.7344" y2="106.7344"/><line style="stroke:#000000;stroke-width:1;" x1="402.707" x2="402.707" y1="114.7344" y2="130.7031"/><line style="stroke:#000000;stroke-width:1;" x1="402.707" x2="402.707" y1="98.7344" y2="106.7344"/><line style="stroke:#000000;stroke-width:1;" x1="310.4004" x2="310.4004" y1="194.5781" y2="202.5781"/><line style="stroke:#000000;stroke-width:1;" x1="310.4004" x2="310.4004" y1="162.6406" y2="178.6094"/><line style="stroke:#000000;stroke-width:1;" x1="402.707" x2="402.707" y1="194.5781" y2="202.5781"/><line style="stroke:#000000;stroke-width:1;" x1="310.4004" x2="310.4004" y1="130.7031" y2="146.6719"/><line style="stroke:#000000;stroke-width:1;" x1="402.707" x2="402.707" y1="162.6406" y2="178.6094"/><line style="stroke:#000000;stroke-width:1;" x1="310.4004" x2="310.4004" y1="106.7344" y2="114.7344"/><line style="stroke:#000000;stroke-width:1;" x1="402.707" x2="402.707" y1="130.7031" y2="146.6719"/><line style="stroke:#000000;stroke-width:1;" x1="402.707" x2="402.707" y1="106.7344" y2="114.7344"/><line style="stroke:#000000;stroke-width:1;" x1="310.4004" x2="310.4004" y1="202.5781" y2="210.5781"/><line style="stroke:#000000;stroke-width:1;" x1="310.4004" x2="310.4004" y1="178.6094" y2="194.5781"/><line style="stroke:#000000;stroke-width:1;" x1="402.707" x2="402.707" y1="202.5781" y2="210.5781"/><line style="stroke:#000000;stroke-width:1;" x1="310.4004" x2="310.4004" y1="146.6719" y2="162.6406"/><line style="stroke:#000000;stroke-width:1;" x1="402.707" x2="402.707" y1="178.6094" y2="194.5781"/><line style="stroke:#000000;stroke-width:1;" x1="310.4004" x2="310.4004" y1="114.7344" y2="130.7031"/><line style="stroke:#000000;stroke-width:1;" x1="402.707" x2="402.707" y1="146.6719" y2="162.6406"/><rect fill="none" height="111.8438" style="stroke:#000000;stroke-width:1;" width="15" x="406.707" y="98.7344"/><line style="stroke:#000000;stroke-width:1;" x1="406.707" x2="421.707" y1="110.7344" y2="110.7344"/><line style="stroke:#000000;stroke-width:1;" x1="406.707" x2="421.707" y1="198.5781" y2="198.5781"/><path d="M413.707,102.7344 L416.707,107.7344 L410.707,107.7344 L413.707,102.7344" fill="#000000"/><path d="M413.707,207.5781 L416.707,202.5781 L410.707,202.5781 L413.707,207.5781" fill="#000000"/><text fill="#000000" font-family="sans-serif" font-size="12" font-weight="bold" lengthAdjust="spacing" textLength="102.1582" x="310.4004" y="239.6855">Pr&#243;ximos Hitos</text><text fill="#000000" font-family="sans-serif" font-size="12" lengthAdjust="spacing" textLength="24.4043" x="311.4004" y="256.6543">Hito</text><text fill="#000000" font-family="sans-serif" font-size="12" lengthAdjust="spacing" textLength="27.8789" x="464.1797" y="256.6543">&#193;rea</text><text fill="#000000" font-family="sans-serif" font-size="12" lengthAdjust="spacing" textLength="35.8418" x="531.6348" y="256.6543">Fecha</text><rect fill="#EEEEEE" height="17.9688" rx="5" ry="5" style="stroke:#000000;stroke-width:2.5;" width="28" x="605.873" y="248.0156"/><text fill="#000000" font-family="sans-serif" font-size="12" lengthAdjust="spacing" textLength="11.4434" x="614.1514" y="261.1543">...</text><text fill="#000000" font-family="sans-serif" font-size="12" lengthAdjust="spacing" textLength="114.5918" x="311.4004" y="281.623">Desbloquear Metro</text><text fill="#000000" font-family="sans-serif" font-size="12" lengthAdjust="spacing" textLength="65.4551" x="464.1797" y="281.623">Transporte</text><text fill="#000000" font-family="sans-serif" font-size="12" lengthAdjust="spacing" textLength="69.7383" x="531.6348" y="281.623">2025-11-20</text><rect fill="#EEEEEE" height="17.9688" rx="5" ry="5" style="stroke:#000000;stroke-width:2.5;" width="28" x="605.873" y="272.9844"/><text fill="#000000" font-family="sans-serif" font-size="12" lengthAdjust="spacing" textLength="20.5254" x="609.6104" y="286.123">Ver</text><text fill="#000000" font-family="sans-serif" font-size="12" lengthAdjust="spacing" textLength="93.8145" x="311.4004" y="306.5918">Festival Urbano</text><text fill="#000000" font-family="sans-serif" font-size="12" lengthAdjust="spacing" textLength="43.916" x="464.1797" y="306.5918">Cultura</text><text fill="#000000" font-family="sans-serif" font-size="12" lengthAdjust="spacing" textLength="69.7383" x="531.6348" y="306.5918">2025-11-25</text><rect fill="#EEEEEE" height="17.9688" rx="5" ry="5" style="stroke:#000000;stroke-width:2.5;" width="28" x="605.873" y="297.9531"/><text fill="#000000" font-family="sans-serif" font-size="12" lengthAdjust="spacing" textLength="20.5254" x="609.6104" y="311.0918">Ver</text><text fill="#000000" font-family="sans-serif" font-size="12" lengthAdjust="spacing" textLength="150.7793" x="311.4004" y="331.5605">Impuesto Comercial 12%</text><text fill="#000000" font-family="sans-serif" font-size="12" lengthAdjust="spacing" textLength="58.8457" x="464.1797" y="331.5605">Econom&#237;a</text><text fill="#000000" font-family="sans-serif" font-size="12" lengthAdjust="spacing" textLength="69.7383" x="531.6348" y="331.5605">2025-12-01</text><rect fill="#EEEEEE" height="17.9688" rx="5" ry="5" style="stroke:#000000;stroke-width:2.5;" width="28" x="605.873" y="322.9219"/><text fill="#000000" font-family="sans-serif" font-size="12" lengthAdjust="spacing" textLength="20.5254" x="609.6104" y="336.0605">Ver</text><line style="stroke:#000000;stroke-width:1;" x1="310.4004" x2="463.1797" y1="244.5156" y2="244.5156"/><line style="stroke:#000000;stroke-width:1;" x1="530.6348" x2="602.373" y1="294.4531" y2="294.4531"/><line style="stroke:#000000;stroke-width:1;" x1="463.1797" x2="530.6348" y1="244.5156" y2="244.5156"/><line style="stroke:#000000;stroke-width:1;" x1="602.373" x2="637.373" y1="294.4531" y2="294.4531"/><line style="stroke:#000000;stroke-width:1;" x1="530.6348" x2="602.373" y1="244.5156" y2="244.5156"/><line style="stroke:#000000;stroke-width:1;" x1="602.373" x2="637.373" y1="244.5156" y2="244.5156"/><line style="stroke:#000000;stroke-width:1;" x1="310.4004" x2="463.1797" y1="319.4219" y2="319.4219"/><line style="stroke:#000000;stroke-width:1;" x1="463.1797" x2="530.6348" y1="319.4219" y2="319.4219"/><line style="stroke:#000000;stroke-width:1;" x1="310.4004" x2="463.1797" y1="269.4844" y2="269.4844"/><line style="stroke:#000000;stroke-width:1;" x1="530.6348" x2="602.373" y1="319.4219" y2="319.4219"/><line style="stroke:#000000;stroke-width:1;" x1="463.1797" x2="530.6348" y1="269.4844" y2="269.4844"/><line style="stroke:#000000;stroke-width:1;" x1="602.373" x2="637.373" y1="319.4219" y2="319.4219"/><line style="stroke:#000000;stroke-width:1;" x1="530.6348" x2="602.373" y1="269.4844" y2="269.4844"/><line style="stroke:#000000;stroke-width:1;" x1="602.373" x2="637.373" y1="269.4844" y2="269.4844"/><line style="stroke:#000000;stroke-width:1;" x1="310.4004" x2="463.1797" y1="344.3906" y2="344.3906"/><line style="stroke:#000000;stroke-width:1;" x1="463.1797" x2="530.6348" y1="344.3906" y2="344.3906"/><line style="stroke:#000000;stroke-width:1;" x1="530.6348" x2="602.373" y1="344.3906" y2="344.3906"/><line style="stroke:#000000;stroke-width:1;" x1="310.4004" x2="463.1797" y1="294.4531" y2="294.4531"/><line style="stroke:#000000;stroke-width:1;" x1="602.373" x2="637.373" y1="344.3906" y2="344.3906"/><line style="stroke:#000000;stroke-width:1;" x1="463.1797" x2="530.6348" y1="294.4531" y2="294.4531"/><line style="stroke:#000000;stroke-width:1;" x1="310.4004" x2="310.4004" y1="244.5156" y2="269.4844"/><line style="stroke:#000000;stroke-width:1;" x1="530.6348" x2="530.6348" y1="294.4531" y2="319.4219"/><line style="stroke:#000000;stroke-width:1;" x1="463.1797" x2="463.1797" y1="244.5156" y2="269.4844"/><line style="stroke:#000000;stroke-width:1;" x1="602.373" x2="602.373" y1="294.4531" y2="319.4219"/><line style="stroke:#000000;stroke-width:1;" x1="637.373" x2="637.373" y1="294.4531" y2="319.4219"/><line style="stroke:#000000;stroke-width:1;" x1="530.6348" x2="530.6348" y1="244.5156" y2="269.4844"/><line style="stroke:#000000;stroke-width:1;" x1="602.373" x2="602.373" y1="244.5156" y2="269.4844"/><line style="stroke:#000000;stroke-width:1;" x1="637.373" x2="637.373" y1="244.5156" y2="269.4844"/><line style="stroke:#000000;stroke-width:1;" x1="310.4004" x2="310.4004" y1="319.4219" y2="344.3906"/><line style="stroke:#000000;stroke-width:1;" x1="463.1797" x2="463.1797" y1="319.4219" y2="344.3906"/><line style="stroke:#000000;stroke-width:1;" x1="310.4004" x2="310.4004" y1="269.4844" y2="294.4531"/><line style="stroke:#000000;stroke-width:1;" x1="530.6348" x2="530.6348" y1="319.4219" y2="344.3906"/><line style="stroke:#000000;stroke-width:1;" x1="463.1797" x2="463.1797" y1="269.4844" y2="294.4531"/><line style="stroke:#000000;stroke-width:1;" x1="602.373" x2="602.373" y1="319.4219" y2="344.3906"/><line style="stroke:#000000;stroke-width:1;" x1="637.373" x2="637.373" y1="319.4219" y2="344.3906"/><line style="stroke:#000000;stroke-width:1;" x1="530.6348" x2="530.6348" y1="269.4844" y2="294.4531"/><line style="stroke:#000000;stroke-width:1;" x1="602.373" x2="602.373" y1="269.4844" y2="294.4531"/><line style="stroke:#000000;stroke-width:1;" x1="637.373" x2="637.373" y1="269.4844" y2="294.4531"/><line style="stroke:#000000;stroke-width:1;" x1="310.4004" x2="310.4004" y1="294.4531" y2="319.4219"/><line style="stroke:#000000;stroke-width:1;" x1="463.1797" x2="463.1797" y1="294.4531" y2="319.4219"/><line style="stroke:#000000;stroke-width:1;" x1="5" x2="640.373" y1="42.2969" y2="42.2969"/><line style="stroke:#000000;stroke-width:1;" x1="5" x2="640.373" y1="347.3906" y2="347.3906"/><line style="stroke:#000000;stroke-width:1;" x1="5" x2="5" y1="42.2969" y2="63.7969"/><line style="stroke:#000000;stroke-width:1;" x1="640.373" x2="640.373" y1="63.7969" y2="79.7656"/><line style="stroke:#000000;stroke-width:1;" x1="640.373" x2="640.373" y1="42.2969" y2="63.7969"/><line style="stroke:#000000;stroke-width:1;" x1="5" x2="5" y1="79.7656" y2="347.3906"/><line style="stroke:#000000;stroke-width:1;" x1="5" x2="5" y1="63.7969" y2="79.7656"/><line style="stroke:#000000;stroke-width:1;" x1="640.373" x2="640.373" y1="79.7656" y2="347.3906"/><rect fill="none" height="111.8438" style="stroke:#000000;stroke-width:1;" width="15" x="406.707" y="98.7344"/><line style="stroke:#000000;stroke-width:1;" x1="406.707" x2="421.707" y1="110.7344" y2="110.7344"/><line style="stroke:#000000;stroke-width:1;" x1="406.707" x2="421.707" y1="198.5781" y2="198.5781"/><path d="M413.707,102.7344 L416.707,107.7344 L410.707,107.7344 L413.707,102.7344" fill="#000000"/><path d="M413.707,207.5781 L416.707,202.5781 L410.707,202.5781 L413.707,207.5781" fill="#000000"/><!--SRC=[RLFDRXen4BxxAKQja18HoEu62AoIA8IVDcbe4P1SgXpCxeIuCdRgjL4hcaFx9hstfpm2Rz8dwNYN4AJ4kmZjD_FDVFFZqynoOpCkBRF2IeGXLoWXfLzR9boc21Neyknkghb92OUES2bF6LkMsN8VZgOdHt7OF-W5yScMtm_mQEtCexr4AprV_ULhjD4x87HYLhzlHQ9pC6gqGyB6Q1OY4JfRWwqMWHsjRiNC6Pw8rQE21rPbIxQSGDdd7c7cvgYEzgSdh5mkaZRgn1hggImOCOJHta5GUx8tWZRP-oWf4nKIms5Ksd1pmNsjKft5yE_Ndx3Mt8k2e4ZMJgnOU0wCC16eB6xdhKU7XThC6YTI3MzwrDj2DBLjZjReDy-9lCZs5qSkv2hczmupIuKRp4IAAX5SOWPSGXXir3NQJK-IQ2oFWRew8quU7nLq1UKLLaE7X1dD7gY7IqQgprKg4af2aQ4Z-Q8GlHoVi-DZ__OKcba-dLSEjEebrfuv3dHUCKEBv8syPgUpLypGR9ROc4kNlk13VWufVYzroRfHBoCqoQ4GwYTFzGpDwl6Rc5EltbEvML7DM-O_gEJLJuD-qVgOtFd_pzLgzOPrCPjA_TKXDp3mWo3Bn72LtMjZaJwY8AfNmh0I1PvpZUQ6zNrp5pI1ApFboZCwJbhQmstt-iRzV3r2se0v6Zy_shiIcRVNl-15bI3Sy1xMpocgDB-6R2YvibU3IrYWoOHM45Ozhne6EnE7y54l8AZHNiHH4DTQC1XFyhYxREVTy18oxKo2aERhC7MM0koo2xxWC7BAYZd6yEaUrKNtmnC0FRKGHYkwHvPTN0-U7Hgrofcm-RL40zS3wkCjfoOG8z6fKBCOhYRzIfDTSaKxCgFOg5X7KrppFGRbfFmF]--></g></svg>