<svg xmlns="http://www.w3.org/2000/svg" xmlns:xlink="http://www.w3.org/1999/xlink" contentStyleType="text/css" data-diagram-type="SALT" height="1051px" preserveAspectRatio="none" style="width:743px;height:1051px;background:#FFFFFF;" version="1.1" viewBox="0 0 743 1051" width="743px" zoomAndPan="magnify"><title>Design System - UI In-Game (City Builder)</title><defs><filter height="1" id="b1x5be55ij4srz0" width="1" x="0" y="0"><feFlood flood-color="#90EE90" result="flood"/><feComposite in="SourceGraphic" in2="flood" operator="over"/></filter><filter height="1" id="b1x5be55ij4srz1" width="1" x="0" y="0"><feFlood flood-color="#ADD8E6" result="flood"/><feComposite in="SourceGraphic" in2="flood" operator="over"/></filter><filter height="1" id="b1x5be55ij4srz2" width="1" x="0" y="0"><feFlood flood-color="#FFFFE0" result="flood"/><feComposite in="SourceGraphic" in2="flood" operator="over"/></filter><filter height="1" id="b1x5be55ij4srz3" width="1" x="0" y="0"><feFlood flood-color="#FFB6C1" result="flood"/><feComposite in="SourceGraphic" in2="flood" operator="over"/></filter></defs><g><g class="title" data-source-line="1"><text fill="#000000" font-family="sans-serif" font-size="14" font-weight="bold" lengthAdjust="spacing" textLength="330.5381" x="204.731" y="27.9951">Design System - UI In-Game (City Builder)</text></g><text fill="#000000" font-family="sans-serif" font-size="12" font-weight="bold" lengthAdjust="spacing" textLength="55.1953" x="8" y="54.4355">Botones</text><line style="stroke:#000000;stroke-width:1;" x1="6" x2="6" y1="43.2969" y2="57.2656"/><line style="stroke:#000000;stroke-width:1;" x1="6" x2="66.1953" y1="43.2969" y2="43.2969"/><line style="stroke:#000000;stroke-width:1;" x1="66.1953" x2="66.1953" y1="43.2969" y2="57.2656"/><line style="stroke:#000000;stroke-width:1;" x1="66.1953" x2="76.1953" y1="57.2656" y2="57.2656"/><text fill="#000000" font-family="sans-serif" font-size="12" lengthAdjust="spacing" textLength="71.0215" x="78.1953" y="54.4355">Formularios</text><line style="stroke:#000000;stroke-width:1;" x1="76.1953" x2="76.1953" y1="43.2969" y2="57.2656"/><line style="stroke:#000000;stroke-width:1;" x1="76.1953" x2="152.2168" y1="43.2969" y2="43.2969"/><line style="stroke:#000000;stroke-width:1;" x1="152.2168" x2="152.2168" y1="43.2969" y2="57.2656"/><line style="stroke:#000000;stroke-width:1;" x1="152.2168" x2="162.2168" y1="57.2656" y2="57.2656"/><text fill="#000000" font-family="sans-serif" font-size="12" lengthAdjust="spacing" textLength="48.6445" x="164.2168" y="54.4355">Tarjetas</text><line style="stroke:#000000;stroke-width:1;" x1="162.2168" x2="162.2168" y1="43.2969" y2="57.2656"/><line style="stroke:#000000;stroke-width:1;" x1="162.2168" x2="215.8613" y1="43.2969" y2="43.2969"/><line style="stroke:#000000;stroke-width:1;" x1="215.8613" x2="215.8613" y1="43.2969" y2="57.2656"/><line style="stroke:#000000;stroke-width:1;" x1="215.8613" x2="225.8613" y1="57.2656" y2="57.2656"/><text fill="#000000" font-family="sans-serif" font-size="12" lengthAdjust="spacing" textLength="39.2402" x="227.8613" y="54.4355">Tablas</text><line style="stroke:#000000;stroke-width:1;" x1="225.8613" x2="225.8613" y1="43.2969" y2="57.2656"/><line style="stroke:#000000;stroke-width:1;" x1="225.8613" x2="270.1016" y1="43.2969" y2="43.2969"/><line style="stroke:#000000;stroke-width:1;" x1="270.1016" x2="270.1016" y1="43.2969" y2="57.2656"/><line style="stroke:#000000;stroke-width:1;" x1="270.1016" x2="280.1016" y1="57.2656" y2="57.2656"/><text fill="#000000" font-family="sans-serif" font-size="12" lengthAdjust="spacing" textLength="49.6348" x="282.1016" y="54.4355">Modales</text><line style="stroke:#000000;stroke-width:1;" x1="280.1016" x2="280.1016" y1="43.2969" y2="57.2656"/><line style="stroke:#000000;stroke-width:1;" x1="280.1016" x2="334.7363" y1="43.2969" y2="43.2969"/><line style="stroke:#000000;stroke-width:1;" x1="334.7363" x2="334.7363" y1="43.2969" y2="57.2656"/><line style="stroke:#000000;stroke-width:1;" x1="334.7363" x2="344.7363" y1="57.2656" y2="57.2656"/><text fill="#000000" font-family="sans-serif" font-size="12" lengthAdjust="spacing" textLength="70.6641" x="346.7363" y="54.4355">Navegaci&#243;n</text><line style="stroke:#000000;stroke-width:1;" x1="344.7363" x2="344.7363" y1="43.2969" y2="57.2656"/><line style="stroke:#000000;stroke-width:1;" x1="344.7363" x2="420.4004" y1="43.2969" y2="43.2969"/><line style="stroke:#000000;stroke-width:1;" x1="420.4004" x2="420.4004" y1="43.2969" y2="57.2656"/><line style="stroke:#000000;stroke-width:1;" x1="420.4004" x2="430.4004" y1="57.2656" y2="57.2656"/><line style="stroke:#AAAAAA;stroke-width:1;" x1="6" x2="736" y1="61.7656" y2="61.7656"/><line style="stroke:#AAAAAA;stroke-width:1;" x1="6" x2="736" y1="63.7656" y2="63.7656"/><text fill="#000000" font-family="sans-serif" font-size="14" font-weight="bold" lengthAdjust="spacing" textLength="142.7686" x="6" y="80.2607">Botones del Juego</text><text fill="#000000" font-family="sans-serif" font-size="12" font-weight="bold" lengthAdjust="spacing" textLength="138.5508" x="7" y="113.6699">Acciones Principales</text><rect fill="#EEEEEE" height="23.5" rx="5" ry="5" style="stroke:#000000;stroke-width:2.5;" width="156" x="10.5" y="122"/><path d="M64.1729,128.2565 C64.1729,128.184 64.1144,128.125 64.0414,128.125 L63.8039,128.125 C63.7314,128.125 63.6724,128.184 63.6724,128.2565 L63.6724,133.994 C63.6724,134.0665 63.7309,134.1255 63.8039,134.1255 L64.0414,134.1255 C64.1139,134.1255 64.1729,134.067 64.1729,133.994 L64.1729,128.2565" fill="#66757F"/><ellipse cx="63.9229" cy="133.875" fill="#F19020" rx="0.75" ry="0.75" style="stroke:#F19020;stroke-width:2.5;"/><ellipse cx="63.9229" cy="135.125" fill="#F19020" rx="0.5" ry="0.5" style="stroke:#F19020;stroke-width:2.5;"/><path d="M66.6729,128.125 L64.6084,128.125 L55.0209,124.145 L55.0199,124.1445 L55.0194,124.1445 C55.0114,124.141 55.0034,124.142 54.9959,124.1395 C54.9724,124.1325 54.9489,124.125 54.9229,124.125 L54.9219,124.125 C54.8889,124.125 54.8569,124.132 54.8269,124.144 C54.8044,124.154 54.7849,124.169 54.7659,124.185 C54.7599,124.1895 54.7529,124.192 54.7474,124.1975 C54.7239,124.2205 54.7049,124.2485 54.6924,124.2795 L54.6924,124.28 C54.6904,124.2845 54.6909,124.29 54.6894,124.2945 L51.9189,128.1995 C51.9174,128.2015 51.9174,128.2045 51.9159,128.2065 C51.7734,128.2945 51.6729,128.445 51.6729,128.625 L51.6729,129.625 C51.6729,129.901 51.8969,130.125 52.1729,130.125 L52.9204,130.125 L51.0634,141 L50.1729,141 L50.1729,142 L59.6519,142 L59.6519,141 L58.7819,141 L56.9254,130.125 L66.6729,130.125 C66.9494,130.125 67.1729,129.901 67.1729,129.625 L67.1729,128.625 C67.1729,128.349 66.9494,128.125 66.6729,128.125 M55.7884,130.125 L54.9229,130.8195 L54.0579,130.125 L55.7884,130.125 M54.9229,134.65 L56.7564,135.852 L54.9229,136.852 L53.0894,135.852 L54.9229,134.65 M53.1034,135.005 L53.3404,133.613 L54.2734,134.2245 L53.1034,135.005 M55.5724,134.2245 L56.5074,133.612 L56.7459,135.0065 L55.5724,134.2245 M54.9229,133.7915 L53.5089,132.849 L54.9229,131.688 L56.3369,132.849 L54.9229,133.7915 M53.6414,131.848 L53.8224,130.7845 L54.3879,131.2485 L53.6414,131.848 M55.4579,131.249 L56.0239,130.7845 L56.2059,131.8495 L55.4579,131.249 M52.5844,128.125 L54.6729,125.181 L54.6729,127.125 L53.6729,127.125 C53.3969,127.125 53.1729,127.349 53.1729,127.625 L53.1729,128.125 L52.5844,128.125 M52.8494,136.494 L54.2144,137.2385 L52.5694,138.1355 L52.8494,136.494 M57.7694,141 L52.0814,141 L52.4244,138.988 L54.9229,137.625 L57.4259,138.9905 L57.7694,141 M56.9994,136.4925 L57.2804,138.138 L55.6314,137.2385 L56.9994,136.4925 M56.6729,128.125 L56.6729,127.625 C56.6729,127.349 56.4489,127.125 56.1729,127.125 L55.1729,127.125 L55.1729,124.7495 L63.3044,128.125 L56.6729,128.125 M57.6729,129.625 L57.0929,129.625 L57.0929,128.625 L57.6729,128.625 L57.6729,129.625 M59.1729,129.625 L58.1729,129.625 L58.1729,128.625 L59.1729,128.625 L59.1729,129.625 M60.6729,129.625 L59.6729,129.625 L59.6729,128.625 L60.6729,128.625 L60.6729,129.625 M62.1729,129.625 L61.1729,129.625 L61.1729,128.625 L62.1729,128.625 L62.1729,129.625 M63.6729,129.625 L62.6729,129.625 L62.6729,128.625 L63.6729,128.625 L63.6729,129.625 M65.1729,129.625 L64.1729,129.625 L64.1729,128.625 L65.1729,128.625 L65.1729,129.625 M66.6729,129.375 C66.6729,129.513 66.5609,129.625 66.4229,129.625 L65.6729,129.625 L65.6729,128.625 L66.4229,128.625 C66.5609,128.625 66.6729,128.737 66.6729,128.875 L66.6729,129.375" fill="#BD2032"/><path d="M56.1729,127.625 L55.1729,127.625 C54.8969,127.625 54.6729,127.849 54.6729,128.125 L54.6729,129.125 C54.6729,129.401 54.8969,129.625 55.1729,129.625 L56.6729,129.625 L56.6729,127.625 L56.1729,127.625" fill="#4B545D"/><path d="M55.6729,127.625 L56.6729,127.625 L56.6729,129.625 L55.6729,129.625" fill="#CDD7DF"/><path d="M67.4699,136 L67.4699,135.5 L60.3759,135.5 L60.3759,136 L60.7979,136 L60.7979,137.2345 L60.3759,137.2345 L60.3759,137.7345 L67.4699,137.7345 L67.4699,137.2345 L67.0479,137.2345 L67.0479,136" fill="#66757F"/><text fill="#000000" font-family="sans-serif" font-size="12" lengthAdjust="spacing" textLength="55.0898" x="71.8623" y="140.6699">Construir</text><rect fill="#EEEEEE" height="23.5" rx="5" ry="5" style="stroke:#000000;stroke-width:2.5;" width="116" x="173.5" y="122"/><path d="M226.0186,140 C226.0186,142 226.0186,142 224.0186,142 L210.0186,142 C208.0186,142 208.0186,142 208.0186,140 L208.0186,126 C208.0186,124 210.0186,124 210.0186,124 L224.0186,124 C226.0186,124 226.0186,126 226.0186,126 L226.0186,140" fill="#88C9F9"/><path d="M208.0186,140 C208.0186,142 210.0186,142 210.0186,142 L224.0186,142 C226.0186,142 226.0186,140 226.0186,140 L226.0186,133.5 L208.0186,133.5 L208.0186,140" fill="#77B255"/><path d="M223.6751,125.339 C223.5381,125.339 223.4056,125.36 223.2816,125.3985 C223.1336,124.977 222.7336,124.674 222.2616,124.674 C221.7551,124.674 221.3316,125.0225 221.2136,125.4925 C221.0886,125.398 220.9341,125.3395 220.7646,125.3395 C220.3511,125.3395 220.0161,125.6745 220.0161,126.088 C220.0161,126.1885 220.0366,126.284 220.0731,126.3715 C220.0011,126.3515 219.9271,126.3375 219.8501,126.3375 C219.3906,126.337 219.0186,126.709 219.0186,127.1685 C219.0186,127.628 219.3906,128 219.8501,128 L223.6751,128 C224.4096,128 225.0056,127.4045 225.0056,126.6695 C225.0061,125.935 224.4096,125.339 223.6751,125.339" fill="#F5F8FA"/><path d="M219.2061,133.5 L214.8311,133.5 L209.1501,141.808 C209.6021,141.9975 210.0186,142 210.0186,142 L224.0186,142 C224.3736,142 224.6631,141.935 224.9036,141.831 L219.2061,133.5" fill="#D99E82"/><path d="M210.0186,142 L224.0186,142 L218.7061,133.5 L215.3311,133.5" fill="#58595B"/><path d="M211.3311,142 L222.7061,142 L218.3311,133.5 L215.7061,133.5" fill="#808285"/><path d="M220.0186,142 L219.5186,142 L217.5186,133.5 L217.7531,133.5 M216.5186,133.5 L214.5186,142 L214.0186,142 L216.2606,133.5" fill="#CCD6DD"/><path d="M214.0186,140.5 L220.0186,140.5 L220.0186,141 L214.0186,141 M214.0186,139 L220.0186,139 L220.0186,139.5 L214.0186,139.5 M213.9876,137.656 L219.9876,137.656 L219.9876,138.156 L213.9876,138.156 M214.5186,136.5 L219.5186,136.5 L219.5186,137 L214.5186,137 M215.5186,135.5 L218.5186,135.5 L218.5186,136 L215.5186,136 M215.5186,134.656 L218.5186,134.656 L218.5186,135 L215.5186,135 M215.5186,133.9375 L218.5186,133.9375 L218.5186,134.2815 L215.5186,134.2815" fill="#808285"/><path d="M212.0186,134.75 C212.0186,134.888 211.9066,135 211.7686,135 C211.6306,135 211.5186,134.888 211.5186,134.75 L211.5186,129.25 C211.5186,129.112 211.6306,129 211.7686,129 C211.9066,129 212.0186,129.112 212.0186,129.25 L212.0186,134.75 M222.5186,134.798 C222.5186,134.9095 222.4281,135 222.3166,135 L222.2211,135 C222.1091,135 222.0186,134.9095 222.0186,134.798 L222.0186,129.202 C222.0186,129.0905 222.1091,129 222.2206,129 L222.3161,129 C222.4281,129 222.5186,129.0905 222.5186,129.202 L222.5186,134.798" fill="#66757F"/><path d="M222.5186,129.25 C222.5186,129.388 222.4066,129.5 222.2686,129.5 L211.7686,129.5 C211.6306,129.5 211.5186,129.388 211.5186,129.25 C211.5186,129.112 211.6306,129 211.7686,129 L222.2686,129 C222.4066,129 222.5186,129.112 222.5186,129.25 M222.5186,131.808 C222.5186,131.914 222.4326,132 222.3266,132 L211.7106,132 C211.6046,132 211.5186,131.914 211.5186,131.808 L211.5186,131.692 C211.5186,131.586 211.6046,131.5 211.7106,131.5 L222.3266,131.5 C222.4326,131.5 222.5186,131.586 222.5186,131.692 L222.5186,131.808" fill="#66757F"/><path d="M221.5186,131.5 C221.5186,131.776 221.2951,132 221.0186,132 L213.0186,132 C212.7426,132 212.5186,131.776 212.5186,131.5 L212.5186,129.5 C212.5186,129.224 212.7426,129 213.0186,129 L221.0186,129 C221.2951,129 221.5186,129.224 221.5186,129.5 L221.5186,131.5" fill="#5C913B"/><path d="M214.5186,129.5 L215.5186,129.5 L215.5186,130.5 L214.5186,130.5" fill="#A6D488"/><path d="M214.0186,131 L216.0186,131 L216.0186,131.5 L214.0186,131.5" fill="#77B255"/><path d="M218.5186,129.5 L219.5186,129.5 L219.5186,130.5 L218.5186,130.5" fill="#A6D488"/><path d="M218.0186,131 L220.0186,131 L220.0186,131.5 L218.0186,131.5" fill="#77B255"/><text fill="#000000" font-family="sans-serif" font-size="12" lengthAdjust="spacing" textLength="25.1484" x="229.833" y="140.6699">V&#237;as</text><rect fill="#EEEEEE" height="23.5" rx="5" ry="5" style="stroke:#000000;stroke-width:2.5;" width="132" x="296.5" y="122"/><path d="M345.1575,131.8255 C345.0845,131.63 344.8975,131.5 344.6885,131.5 L338.651,131.5 L342.1335,124.729 C342.243,124.516 342.1865,124.2555 341.998,124.1075 C341.907,124.0355 341.7975,124 341.6885,124 C341.572,124 341.4555,124.041 341.362,124.1215 L337.6885,127.294 L330.362,133.6215 C330.204,133.758 330.147,133.9785 330.22,134.174 C330.293,134.3695 330.4795,134.5 330.6885,134.5 L336.726,134.5 L333.2435,141.271 C333.134,141.484 333.1905,141.7445 333.379,141.8925 C333.47,141.9645 333.5795,142 333.6885,142 C333.805,142 333.9215,141.959 334.015,141.8785 L337.6885,138.706 L345.015,132.3785 C345.1735,132.242 345.23,132.0215 345.1575,131.8255" fill="#FFAC33"/><text fill="#000000" font-family="sans-serif" font-size="12" lengthAdjust="spacing" textLength="45.8086" x="350.5029" y="140.6699">Energ&#237;a</text><rect fill="#EEEEEE" height="23.5" rx="5" ry="5" style="stroke:#000000;stroke-width:2.5;" width="116" x="435.5" y="122"/><path d="M481.3722,132.884 L476.2742,124.545 L471.5502,132.827 C470.4502,134.582 470.3542,136.864 471.5097,138.754 C473.1522,141.4405 476.6912,142.303 479.4152,140.6825 C482.1382,139.0625 483.0147,135.5725 481.3722,132.884" fill="#5DADEC"/><text fill="#000000" font-family="sans-serif" font-size="12" lengthAdjust="spacing" textLength="30.7852" x="489.0146" y="140.6699">Agua</text><rect fill="#EEEEEE" height="23.5" rx="5" ry="5" style="stroke:#000000;stroke-width:2.5;" width="148" x="558.5" y="122"/><path d="M610.6084,125 L597.6084,125 C596.7799,125 596.1084,125.6715 596.1084,126.5 L596.1084,139.5 C596.1084,140.3285 596.7799,141 597.6084,141 L610.6084,141 C611.4369,141 612.1084,140.3285 612.1084,139.5 L612.1084,126.5 C612.1084,125.6715 611.4369,125 610.6084,125" fill="#CCD6DD"/><path d="M610.6084,124.5 L597.6084,124.5 C596.5039,124.5 595.6084,125.3955 595.6084,126.5 L595.6084,139.5 C595.6084,140.6045 596.5039,141.5 597.6084,141.5 L610.6084,141.5 C611.7129,141.5 612.6084,140.6045 612.6084,139.5 L612.6084,126.5 C612.6084,125.3955 611.7129,124.5 610.6084,124.5 M610.6084,125.5 C611.1599,125.5 611.6084,125.9485 611.6084,126.5 L611.6084,128.5 L608.6084,128.5 L608.6084,125.5 L610.6084,125.5 M608.6084,133.5 L611.6084,133.5 L611.6084,136.5 L608.6084,136.5 L608.6084,133.5 M608.6084,132.5 L608.6084,129.5 L611.6084,129.5 L611.6084,132.5 L608.6084,132.5 M607.6084,125.5 L607.6084,128.5 L604.6084,128.5 L604.6084,125.5 L607.6084,125.5 M604.6084,129.5 L607.6084,129.5 L607.6084,132.5 L604.6084,132.5 L604.6084,129.5 M604.6084,133.5 L607.6084,133.5 L607.6084,136.5 L604.6084,136.5 L604.6084,133.5 M603.6084,125.5 L603.6084,128.5 L600.6084,128.5 L600.6084,125.5 L603.6084,125.5 M600.6084,129.5 L603.6084,129.5 L603.6084,132.5 L600.6084,132.5 L600.6084,129.5 M600.6084,133.5 L603.6084,133.5 L603.6084,136.5 L600.6084,136.5 L600.6084,133.5 M596.6084,126.5 C596.6084,125.9485 597.0569,125.5 597.6084,125.5 L599.6084,125.5 L599.6084,128.5 L596.6084,128.5 L596.6084,126.5 M596.6084,129.5 L599.6084,129.5 L599.6084,132.5 L596.6084,132.5 L596.6084,129.5 M596.6084,133.5 L599.6084,133.5 L599.6084,136.5 L596.6084,136.5 L596.6084,133.5 M597.6084,140.5 C597.0569,140.5 596.6084,140.0515 596.6084,139.5 L596.6084,137.5 L599.6084,137.5 L599.6084,140.5 L597.6084,140.5 M600.6084,140.5 L600.6084,137.5 L603.6084,137.5 L603.6084,140.5 L600.6084,140.5 M604.6084,140.5 L604.6084,137.5 L607.6084,137.5 L607.6084,140.5 L604.6084,140.5 M610.6084,140.5 L608.6084,140.5 L608.6084,137.5 L611.6084,137.5 L611.6084,139.5 C611.6084,140.0515 611.1599,140.5 610.6084,140.5" fill="#E1E8ED"/><path d="M597.6074,140.5 C597.4474,140.5 597.2849,140.462 597.1344,140.3805 C596.6479,140.119 596.4664,139.5125 596.7279,139.026 L600.2279,132.526 C600.3774,132.2475 600.6504,132.0565 600.9629,132.0105 C601.2759,131.9645 601.5919,132.0695 601.8154,132.293 L604.8534,135.331 L609.7224,126.036 C609.9784,125.547 610.5829,125.3575 611.0719,125.6145 C611.5614,125.8705 611.7499,126.475 611.4939,126.9645 L605.9939,137.4645 C605.8464,137.7465 605.5734,137.941 605.2589,137.9895 C604.9454,138.035 604.6259,137.933 604.4009,137.708 L601.3509,134.6585 L598.4889,139.974 C598.3084,140.3095 597.9634,140.5 597.6074,140.5" fill="#DD2E44"/><text fill="#000000" font-family="sans-serif" font-size="12" lengthAdjust="spacing" textLength="52.9688" x="616.9229" y="140.6699">Informes</text><text fill="#000000" font-family="sans-serif" font-size="12" font-weight="bold" lengthAdjust="spacing" textLength="53.1504" x="7" y="178.1074">Estados</text><rect fill="#EEEEEE" height="17.9688" rx="5" ry="5" style="stroke:#000000;stroke-width:2.5;" width="52" x="10.5" y="186.4375"/><text fill="#000000" font-family="sans-serif" font-size="12" lengthAdjust="spacing" textLength="43.6289" x="14.6855" y="199.5762">Normal</text><rect fill="#EEEEEE" height="17.9688" rx="5" ry="5" style="stroke:#000000;stroke-width:2.5;" width="44" x="69.5" y="186.4375"/><text fill="#0000FF" font-family="sans-serif" font-size="12" lengthAdjust="spacing" textLength="35.7832" x="73.6084" y="199.5762">Hover</text><rect fill="#EEEEEE" height="17.9688" rx="5" ry="5" style="stroke:#000000;stroke-width:2.5;" width="52" x="120.5" y="186.4375"/><text fill="#800080" font-family="sans-serif" font-size="12" lengthAdjust="spacing" textLength="37.3301" x="127.835" y="199.5762">Active</text><rect fill="#EEEEEE" height="17.9688" rx="5" ry="5" style="stroke:#000000;stroke-width:2.5;" width="132" x="179.5" y="186.4375"/><text fill="#000000" font-family="sans-serif" font-size="12" lengthAdjust="spacing" text-decoration="line-through" textLength="82.4707" x="204.2646" y="199.5762">Deshabilitado</text><text fill="#000000" font-family="sans-serif" font-size="12" font-weight="bold" lengthAdjust="spacing" textLength="60.8145" x="7" y="237.0137">Tama&#241;os</text><rect fill="#EEEEEE" height="17.9688" rx="5" ry="5" style="stroke:#000000;stroke-width:2.5;" width="60" x="10.5" y="245.3438"/><text fill="#000000" font-family="sans-serif" font-size="12" lengthAdjust="spacing" textLength="52.1719" x="14.4141" y="258.4824">Peque&#241;o</text><rect fill="#EEEEEE" height="17.9688" rx="5" ry="5" style="stroke:#000000;stroke-width:2.5;" width="76" x="77.5" y="245.3438"/><text fill="#000000" font-family="sans-serif" font-size="12" lengthAdjust="spacing" textLength="50.9883" x="90.0059" y="258.4824">Mediano</text><rect fill="#EEEEEE" height="17.9688" rx="5" ry="5" style="stroke:#000000;stroke-width:2.5;" width="68" x="160.5" y="245.3438"/><text fill="#000000" font-family="sans-serif" font-size="12" lengthAdjust="spacing" textLength="44.1914" x="172.4043" y="258.4824">Grande</text><rect fill="#EEEEEE" height="17.9688" rx="5" ry="5" style="stroke:#000000;stroke-width:2.5;" width="60" x="235.5" y="245.3438"/><text fill="#000000" font-family="sans-serif" font-size="12" lengthAdjust="spacing" textLength="31.6758" x="249.6621" y="258.4824">Extra</text><text fill="#000000" font-family="sans-serif" font-size="12" font-weight="bold" lengthAdjust="spacing" textLength="73.5234" x="7" y="295.9199">Con Iconos</text><rect fill="#EEEEEE" height="23.5" rx="5" ry="5" style="stroke:#000000;stroke-width:2.5;" width="140" x="10.5" y="304.25"/><path d="M47.0449,324.25 C45.0449,324.25 45.0449,324.25 45.0449,322.25 L45.0449,308.25 C45.0449,306.25 45.0449,306.25 47.0449,306.25 L60.0449,306.25 C60.5449,306.25 61.0449,306.75 61.0449,306.75 L62.5449,308.25 C63.0449,308.75 63.0449,308.75 63.0449,309.25 L63.0449,322.25 C63.0449,324.25 63.0449,324.25 61.0449,324.25 L47.0449,324.25" fill="#31373D"/><path d="M47.5449,315.75 L47.5449,315.25 C47.5449,314.25 47.5449,314.25 48.5449,314.25 L59.0449,314.25 C60.0449,314.25 60.0449,315.25 60.0449,315.25 L60.0449,315.75 L47.5449,315.75" fill="#55ACEE"/><path d="M47.5449,322.2605 L47.5449,315.75 L60.0449,315.75 L60.0449,322.25 C60.0449,323.25 60.0449,323.25 59.0449,323.25 L48.5449,323.25 C47.5449,323.25 47.5449,322.2605 47.5449,322.2605 M50.0449,307.75 C50.0449,307.25 50.0449,307.25 50.5449,307.25 L59.5449,307.25 C60.0689,307.25 60.0449,307.75 60.0449,307.75 L60.0449,312.75 C60.0449,313.25 60.0449,313.25 59.5449,313.25 L50.5449,313.25 C50.0449,313.25 50.0449,313.25 50.0449,312.75 L50.0449,307.75 M56.0449,312.75 L58.5449,312.75 L58.5449,307.75 L56.0449,307.75 L56.0449,312.75" fill="#E1E8ED"/><text fill="#000000" font-family="sans-serif" font-size="12" lengthAdjust="spacing" textLength="49.0957" x="66.8594" y="322.9199">Guardar</text><rect fill="#EEEEEE" height="23.5" rx="5" ry="5" style="stroke:#000000;stroke-width:2.5;" width="132" x="157.5" y="304.25"/><path d="M210.3076,322.25 C210.3076,323.3545 209.4121,324.25 208.3076,324.25 L194.3076,324.25 C193.2031,324.25 192.3076,323.3545 192.3076,322.25 L192.3076,308.25 C192.3076,307.1455 193.2031,306.25 194.3076,306.25 L208.3076,306.25 C209.4121,306.25 210.3076,307.1455 210.3076,308.25 L210.3076,322.25" fill="#3B88C3"/><path d="M207.4076,311.25 L203.8076,308.25 L203.8076,310.25 L199.8076,310.25 C197.0461,310.25 194.8076,312.4885 194.8076,315.25 C194.8076,315.957 194.9561,316.629 195.2211,317.239 L196.8711,315.864 C196.8296,315.6655 196.8076,315.4605 196.8076,315.25 C196.8076,313.593 198.1506,312.25 199.8076,312.25 L203.8076,312.25 L203.8076,314.25 L207.4076,311.25 M207.3946,313.2615 L205.7441,314.6365 C205.7856,314.8345 205.8076,315.0395 205.8076,315.25 C205.8076,316.9065 204.4641,318.25 202.8076,318.25 L198.8076,318.25 L198.8076,316.25 L195.2076,319.25 L198.8076,322.25 L198.8076,320.25 L202.8076,320.25 C205.5686,320.25 207.8076,318.011 207.8076,315.25 C207.8076,314.543 207.6591,313.871 207.3946,313.2615" fill="#FFFFFF"/><text fill="#000000" font-family="sans-serif" font-size="12" lengthAdjust="spacing" textLength="40.5703" x="214.1221" y="322.9199">Cargar</text><rect fill="#EEEEEE" height="23.5" rx="5" ry="5" style="stroke:#000000;stroke-width:2.5;" width="148" x="296.5" y="304.25"/><path d="M351.8086,322.25 C351.8086,323.3545 350.9131,324.25 349.8086,324.25 L335.8086,324.25 C334.7041,324.25 333.8086,323.3545 333.8086,322.25 L333.8086,317.75 C333.8086,316.6455 334.2041,316.25 335.3086,316.25 L350.3086,316.25 C351.4131,316.25 351.8086,316.6455 351.8086,317.75 L351.8086,322.25" fill="#D99E82"/><path d="M346.3086,316.25 C346.3086,318.183 344.7416,319.75 342.8086,319.75 C340.8756,319.75 339.3086,318.183 339.3086,316.25 L346.3086,316.25" fill="#662113"/><path d="M335.8086,324.25 L349.8086,324.25 C350.9131,324.25 351.8086,323.3545 351.8086,322.25 L333.8086,322.25 C333.8086,323.3545 334.7041,324.25 335.8086,324.25" fill="#C1694F"/><path d="M347.1666,310.25 L344.7751,310.25 L344.7751,307.25 C344.7751,306.6975 344.3271,306.25 343.7751,306.25 L341.7746,306.25 C341.2226,306.25 340.7751,306.698 340.7751,307.25 L340.7751,310.25 L338.3826,310.25 C337.7711,310.25 337.6246,310.5615 338.0571,310.9945 L341.9886,314.926 C342.4211,315.3585 343.1286,315.3585 343.5616,314.926 L347.4931,310.9945 C347.9246,310.5615 347.7786,310.25 347.1666,310.25" fill="#77B255"/><text fill="#000000" font-family="sans-serif" font-size="12" lengthAdjust="spacing" textLength="51.5684" x="355.623" y="322.9199">Exportar</text><rect fill="#EEEEEE" height="23.5" rx="5" ry="5" style="stroke:#000000;stroke-width:2.5;" width="140" x="451.5" y="304.25"/><path d="M500.6904,308.25 L499.7984,310.521 L498.9064,308.25 L496.8329,308.25 L495.8699,310.7015 L494.9064,308.25 L492.9749,308.25 L492.0119,310.7015 L491.0484,308.25 L488.9744,308.25 L488.0824,310.521 L487.1904,308.25 L486.0069,308.25 L487.8744,322.2565 L500.0059,322.2565 L501.8739,308.25 L500.6904,308.25 M497.8694,309.089 L499.0989,312.3015 L497.7984,315.612 L496.5699,312.485 L497.8694,309.089 M493.9404,309.2745 L495.1689,312.4845 L493.9404,315.6115 L492.7119,312.4845 L493.9404,309.2745 M490.0114,309.089 L491.3109,312.485 L490.0824,315.612 L488.7819,312.3015 L490.0114,309.089 M487.9194,314.5555 L488.0824,314.129 L489.3569,317.459 L488.5704,319.461 L487.9194,314.5555 M488.9744,322.25 L490.0824,319.355 L491.1904,322.25 L488.9744,322.25 M490.8084,317.459 L492.0119,314.315 L493.2149,317.459 L492.0119,320.522 L490.8084,317.459 M492.8324,322.25 L493.9404,319.355 L495.0484,322.25 L492.8324,322.25 M494.6659,317.459 L495.8689,314.315 L497.0719,317.459 L495.8689,320.522 L494.6659,317.459 M496.6904,322.25 L497.7984,319.355 L498.9064,322.25 L496.6904,322.25 M499.3864,319.654 L498.5239,317.459 L499.7984,314.1295 L500.0039,314.6665 L499.3864,319.654" fill="#9AAAB4"/><path d="M500.9404,323.25 C500.9404,322.698 500.4924,322.25 499.9404,322.25 L487.9404,322.25 C487.3884,322.25 486.9404,322.698 486.9404,323.25 C486.9404,323.802 487.3884,324.25 487.9404,324.25 L499.9404,324.25 C500.4924,324.25 500.9404,323.802 500.9404,323.25 M502.9404,307.25 C502.9404,306.6975 502.4924,306.25 501.9404,306.25 L485.9404,306.25 C485.3884,306.25 484.9404,306.698 484.9404,307.25 C484.9404,307.8025 485.3884,308.25 485.9404,308.25 L501.9404,308.25 C502.4924,308.25 502.9404,307.8025 502.9404,307.25" fill="#67757F"/><text fill="#000000" font-family="sans-serif" font-size="12" lengthAdjust="spacing" textLength="51.3047" x="506.7549" y="322.9199">Demoler</text><rect fill="#EEEEEE" height="23.5" rx="5" ry="5" style="stroke:#000000;stroke-width:2.5;" width="132" x="598.5" y="304.25"/><path d="M648.7227,313.75 L647.0417,313.75 C646.8797,313.0655 646.6097,312.4245 646.2507,311.843 L647.4402,310.6535 C647.8307,310.263 647.8307,309.6295 647.4402,309.239 L646.7332,308.532 C646.3427,308.1415 645.7097,308.1415 645.3192,308.532 L644.1297,309.7215 C643.5477,309.3625 642.9072,309.093 642.2227,308.931 L642.2227,307.25 C642.2227,306.698 641.7747,306.25 641.2227,306.25 L640.2227,306.25 C639.6707,306.25 639.2227,306.698 639.2227,307.25 L639.2227,308.931 C638.5382,309.093 637.8972,309.363 637.3157,309.722 L636.1267,308.5325 C635.7362,308.142 635.1027,308.142 634.7127,308.5325 L634.0052,309.2395 C633.6147,309.63 633.6147,310.2635 634.0047,310.654 L635.1942,311.8435 C634.8352,312.425 634.5657,313.066 634.4037,313.75 L632.7227,313.75 C632.1707,313.75 631.7227,314.198 631.7227,314.75 L631.7227,315.75 C631.7227,316.302 632.1707,316.75 632.7227,316.75 L634.4037,316.75 C634.5657,317.434 634.8357,318.075 635.1947,318.6565 L634.0052,319.846 C633.6152,320.236 633.6152,320.87 634.0057,321.2605 L634.7127,321.9675 C635.1027,322.3575 635.7362,322.3575 636.1267,321.9675 L637.3162,320.778 C637.8977,321.1375 638.5387,321.407 639.2232,321.569 L639.2232,323.25 C639.2232,323.802 639.6712,324.25 640.2232,324.25 L641.2232,324.25 C641.7752,324.25 642.2232,323.802 642.2232,323.25 L642.2232,321.569 C642.9072,321.407 643.5482,321.137 644.1297,320.778 L645.3192,321.9675 C645.7097,322.358 646.3427,322.358 646.7332,321.9675 L647.4402,321.2605 C647.8307,320.87 647.8307,320.2365 647.4402,319.846 L646.2507,318.6565 C646.6102,318.075 646.8797,317.434 647.0417,316.7495 L648.7227,316.7495 C649.2747,316.7495 649.7227,316.3015 649.7227,315.7495 L649.7227,314.7495 C649.7227,314.198 649.2747,313.75 648.7227,313.75 M640.7227,319.25 C638.5137,319.25 636.7227,317.459 636.7227,315.25 C636.7227,313.041 638.5137,311.25 640.7227,311.25 C642.9317,311.25 644.7227,313.041 644.7227,315.25 C644.7227,317.459 642.9317,319.25 640.7227,319.25" fill="#66757F"/><text fill="#000000" font-family="sans-serif" font-size="12" lengthAdjust="spacing" textLength="43.7402" x="653.5371" y="322.9199">Ajustes</text><line style="stroke:#AAAAAA;stroke-width:1;" x1="6" x2="736" y1="336.75" y2="336.75"/><line style="stroke:#AAAAAA;stroke-width:1;" x1="6" x2="736" y1="338.75" y2="338.75"/><text fill="#000000" font-family="sans-serif" font-size="14" font-weight="bold" lengthAdjust="spacing" textLength="198.0234" x="6" y="355.2451">Elementos de Formulario</text><text fill="#000000" font-family="sans-serif" font-size="12" font-weight="bold" lengthAdjust="spacing" textLength="43.0195" x="7" y="388.6543">Inputs</text><text fill="#000000" font-family="sans-serif" font-size="12" lengthAdjust="spacing" textLength="45.0176" x="8" y="405.623">Buscar:</text><text fill="#000000" font-family="sans-serif" font-size="12" lengthAdjust="spacing" textLength="88.0078" x="129.8594" y="405.623">Distrito Centro</text><line style="stroke:#000000;stroke-width:1;" x1="127.8594" x2="258.8594" y1="408.4531" y2="408.4531"/><line style="stroke:#000000;stroke-width:1;" x1="127.8594" x2="127.8594" y1="405.4531" y2="407.4531"/><line style="stroke:#000000;stroke-width:1;" x1="258.8594" x2="258.8594" y1="405.4531" y2="407.4531"/><text fill="#000000" font-family="sans-serif" font-size="12" lengthAdjust="spacing" textLength="116.8594" x="8" y="423.5918">Tasa Impuesto (%):</text><text fill="#000000" font-family="sans-serif" font-size="12" lengthAdjust="spacing" textLength="15.2695" x="129.8594" y="423.5918">10</text><line style="stroke:#000000;stroke-width:1;" x1="127.8594" x2="154.8594" y1="426.4219" y2="426.4219"/><line style="stroke:#000000;stroke-width:1;" x1="127.8594" x2="127.8594" y1="423.4219" y2="425.4219"/><line style="stroke:#000000;stroke-width:1;" x1="154.8594" x2="154.8594" y1="423.4219" y2="425.4219"/><text fill="#000000" font-family="sans-serif" font-size="12" lengthAdjust="spacing" textLength="91.9277" x="8" y="441.5605">Nombre Barrio:</text><text fill="#000000" font-family="sans-serif" font-size="12" lengthAdjust="spacing" textLength="104.6133" x="129.8594" y="441.5605">Nueva Esperanza</text><line style="stroke:#000000;stroke-width:1;" x1="127.8594" x2="258.8594" y1="444.3906" y2="444.3906"/><line style="stroke:#000000;stroke-width:1;" x1="127.8594" x2="127.8594" y1="441.3906" y2="443.3906"/><line style="stroke:#000000;stroke-width:1;" x1="258.8594" x2="258.8594" y1="441.3906" y2="443.3906"/><text fill="#000000" font-family="sans-serif" font-size="12" font-weight="bold" lengthAdjust="spacing" textLength="71.3262" x="7" y="476.498">Selectores</text><text fill="#000000" font-family="sans-serif" font-size="12" lengthAdjust="spacing" textLength="47.2793" x="8" y="493.4668">Pol&#237;tica:</text><rect fill="#EEEEEE" height="16.9688" style="stroke:#000000;stroke-width:1;" width="111" x="61.6855" y="482.3281"/><text fill="#000000" font-family="sans-serif" font-size="12" lengthAdjust="spacing" textLength="72.8906" x="63.6855" y="495.4668">Zonificaci&#243;n</text><line style="stroke:#000000;stroke-width:1;" x1="161.6855" x2="161.6855" y1="482.3281" y2="499.2969"/><polygon fill="#000000" points="164.6855,488.3281,170.6855,488.3281,167.6855,494.2969" style="stroke:#000000;stroke-width:1;"/><text fill="#000000" font-family="sans-serif" font-size="12" lengthAdjust="spacing" textLength="51.6855" x="8" y="513.4355">Servicio:</text><rect fill="#EEEEEE" height="16.9688" style="stroke:#000000;stroke-width:1;" width="71" x="61.6855" y="502.2969"/><text fill="#000000" font-family="sans-serif" font-size="12" lengthAdjust="spacing" textLength="45.8086" x="63.6855" y="515.4355">Energ&#237;a</text><line style="stroke:#000000;stroke-width:1;" x1="121.6855" x2="121.6855" y1="502.2969" y2="519.2656"/><polygon fill="#000000" points="124.6855,508.2969,130.6855,508.2969,127.6855,514.2656" style="stroke:#000000;stroke-width:1;"/><text fill="#000000" font-family="sans-serif" font-size="12" lengthAdjust="spacing" textLength="44.918" x="8" y="533.4043">Idioma:</text><rect fill="#EEEEEE" height="16.9688" style="stroke:#000000;stroke-width:1;" width="71" x="61.6855" y="522.2656"/><text fill="#000000" font-family="sans-serif" font-size="12" lengthAdjust="spacing" textLength="47.0859" x="63.6855" y="535.4043">Espa&#241;ol</text><line style="stroke:#000000;stroke-width:1;" x1="121.6855" x2="121.6855" y1="522.2656" y2="539.2344"/><polygon fill="#000000" points="124.6855,528.2656,130.6855,528.2656,127.6855,534.2344" style="stroke:#000000;stroke-width:1;"/><text fill="#000000" font-family="sans-serif" font-size="12" font-weight="bold" lengthAdjust="spacing" textLength="111.9727" x="7" y="570.3418">Checks &amp; Radios</text><rect fill="#EEEEEE" height="16.9688" style="stroke:#000000;stroke-width:1;" width="135" x="8" y="576.1719"/><text fill="#000000" font-family="sans-serif" font-size="12" lengthAdjust="spacing" textLength="88.1777" x="10" y="589.3105">Mostrar tr&#225;fico</text><line style="stroke:#000000;stroke-width:1;" x1="132" x2="132" y1="576.1719" y2="593.1406"/><polygon fill="#000000" points="135,582.1719,141,582.1719,138,588.1406" style="stroke:#000000;stroke-width:1;"/><rect fill="#EEEEEE" height="16.9688" style="stroke:#000000;stroke-width:1;" width="183" x="8" y="596.1406"/><text fill="#000000" font-family="sans-serif" font-size="12" lengthAdjust="spacing" textLength="138.1523" x="10" y="609.2793">Mostrar contaminaci&#243;n</text><line style="stroke:#000000;stroke-width:1;" x1="180" x2="180" y1="596.1406" y2="613.1094"/><polygon fill="#000000" points="183,602.1406,189,602.1406,186,608.1094" style="stroke:#000000;stroke-width:1;"/><rect fill="#EEEEEE" height="16.9688" style="stroke:#000000;stroke-width:1;" width="119" x="8" y="616.1094"/><text fill="#000000" font-family="sans-serif" font-size="12" lengthAdjust="spacing" textLength="80.5195" x="10" y="629.248">Mostrar ruido</text><line style="stroke:#000000;stroke-width:1;" x1="116" x2="116" y1="616.1094" y2="633.0781"/><polygon fill="#000000" points="119,622.1094,125,622.1094,122,628.0781" style="stroke:#000000;stroke-width:1;"/><text fill="#000000" font-family="sans-serif" font-size="12" lengthAdjust="spacing" textLength="35.8008" x="28" y="649.2168">Pausa</text><ellipse cx="15" cy="645.0625" fill="none" rx="5" ry="5" style="stroke:#000000;stroke-width:1.5;"/><ellipse cx="15" cy="645.0625" fill="#000000" rx="2" ry="2" style="stroke:#000000;stroke-width:1.5;"/><text fill="#000000" font-family="sans-serif" font-size="12" lengthAdjust="spacing" textLength="14.7363" x="28" y="665.1855">1x</text><ellipse cx="15" cy="661.0313" fill="none" rx="5" ry="5" style="stroke:#000000;stroke-width:1.5;"/><text fill="#000000" font-family="sans-serif" font-size="12" lengthAdjust="spacing" textLength="14.7363" x="28" y="681.1543">2x</text><ellipse cx="15" cy="677" fill="none" rx="5" ry="5" style="stroke:#000000;stroke-width:1.5;"/><text fill="#000000" font-family="sans-serif" font-size="12" lengthAdjust="spacing" textLength="14.7363" x="28" y="697.123">3x</text><ellipse cx="15" cy="692.9688" fill="none" rx="5" ry="5" style="stroke:#000000;stroke-width:1.5;"/><ellipse cx="15" cy="692.9688" fill="#000000" rx="2" ry="2" style="stroke:#000000;stroke-width:1.5;"/><text fill="#000000" font-family="sans-serif" font-size="12" font-weight="bold" lengthAdjust="spacing" textLength="94.5703" x="7" y="730.0605">&#193;rea de Texto</text><text fill="#000000" font-family="sans-serif" font-size="12" lengthAdjust="spacing" textLength="103.5645" x="11" y="747.0293">Notas del alcalde</text><line style="stroke:#000000;stroke-width:1;" x1="9" x2="156" y1="749.8594" y2="749.8594"/><line style="stroke:#000000;stroke-width:1;" x1="9" x2="9" y1="746.8594" y2="748.8594"/><line style="stroke:#000000;stroke-width:1;" x1="156" x2="156" y1="746.8594" y2="748.8594"/><text fill="#000000" font-family="sans-serif" font-size="12" lengthAdjust="spacing" textLength="231.3867" x="11" y="764.998">&#8212; Recordar ampliar subestaci&#243;n norte</text><line style="stroke:#000000;stroke-width:1;" x1="9" x2="308" y1="767.8281" y2="767.8281"/><line style="stroke:#000000;stroke-width:1;" x1="9" x2="9" y1="764.8281" y2="766.8281"/><line style="stroke:#000000;stroke-width:1;" x1="308" x2="308" y1="764.8281" y2="766.8281"/><text fill="#000000" font-family="sans-serif" font-size="12" lengthAdjust="spacing" textLength="201.416" x="11" y="782.9668">&#8212; Planificar nuevas l&#237;neas de bus</text><line style="stroke:#000000;stroke-width:1;" x1="9" x2="284" y1="785.7969" y2="785.7969"/><line style="stroke:#000000;stroke-width:1;" x1="9" x2="9" y1="782.7969" y2="784.7969"/><line style="stroke:#000000;stroke-width:1;" x1="284" x2="284" y1="782.7969" y2="784.7969"/><line style="stroke:#000000;stroke-width:1;" x1="7" x2="311" y1="734.8906" y2="734.8906"/><line style="stroke:#000000;stroke-width:1;" x1="7" x2="311" y1="788.7969" y2="788.7969"/><line style="stroke:#000000;stroke-width:1;" x1="7" x2="7" y1="734.8906" y2="752.8594"/><line style="stroke:#000000;stroke-width:1;" x1="311" x2="311" y1="752.8594" y2="770.8281"/><line style="stroke:#000000;stroke-width:1;" x1="311" x2="311" y1="734.8906" y2="752.8594"/><line style="stroke:#000000;stroke-width:1;" x1="7" x2="7" y1="770.8281" y2="788.7969"/><line style="stroke:#000000;stroke-width:1;" x1="7" x2="7" y1="752.8594" y2="770.8281"/><line style="stroke:#000000;stroke-width:1;" x1="311" x2="311" y1="770.8281" y2="788.7969"/><rect fill="none" height="53.9063" style="stroke:#000000;stroke-width:1;" width="15" x="315" y="734.8906"/><line style="stroke:#000000;stroke-width:1;" x1="315" x2="330" y1="746.8906" y2="746.8906"/><line style="stroke:#000000;stroke-width:1;" x1="315" x2="330" y1="776.7969" y2="776.7969"/><path d="M322,738.8906 L325,743.8906 L319,743.8906 L322,738.8906" fill="#000000"/><path d="M322,785.7969 L325,780.7969 L319,780.7969 L322,785.7969" fill="#000000"/><line style="stroke:#AAAAAA;stroke-width:1;" x1="6" x2="736" y1="794.2969" y2="794.2969"/><line style="stroke:#AAAAAA;stroke-width:1;" x1="6" x2="736" y1="796.2969" y2="796.2969"/><text fill="#000000" font-family="sans-serif" font-size="14" font-weight="bold" lengthAdjust="spacing" textLength="64.668" x="6" y="812.792">Tarjetas</text><path d="M25,842.5625 C25,843.1145 24.552,843.5625 24,843.5625 L21,843.5625 C20.448,843.5625 20,843.1145 20,842.5625 L20,841.5625 C20,841.0105 20.448,840.5625 21,840.5625 L24,840.5625 C24.552,840.5625 25,841.0105 25,841.5625 L25,842.5625 M14,842.5625 C14,843.1145 13.552,843.5625 13,843.5625 L10,843.5625 C9.448,843.5625 9,843.1145 9,842.5625 L9,841.5625 C9,841.0105 9.448,840.5625 10,840.5625 L13,840.5625 C13.552,840.5625 14,841.0105 14,841.5625 L14,842.5625" fill="#DAC8B1"/><path d="M26,853.0625 C26,853.6145 25.552,854.0625 25,854.0625 L9,854.0625 C8.448,854.0625 8,853.6145 8,853.0625 L8,842.5625 C8,842.0105 8.448,841.5625 9,841.5625 L25,841.5625 C25.552,841.5625 26,842.0105 26,842.5625 L26,853.0625" fill="#F1DCC1"/><path d="M19,840.5625 L19,839.5625 C19,839.1935 18.798,838.8745 18.5,838.701 L18.5,838.5625 C18.5,838.0105 18.052,837.5625 17.5,837.5625 L16.5,837.5625 C15.948,837.5625 15.5,838.0105 15.5,838.5625 L15.5,838.701 C15.2025,838.8745 15,839.1935 15,839.5625 L15,840.5625 L14.5,840.5625 L14.5,854.0625 L19.5,854.0625 L19.5,840.5625 L19,840.5625" fill="#DAC8B1"/><path d="M15,839.5625 L16,839.5625 L16,840.5625 L15,840.5625 M18,839.5625 L19,839.5625 L19,840.5625 L18,840.5625 M16.5,839.5625 L17.5,839.5625 L17.5,840.5625 L16.5,840.5625" fill="#55ACEE"/><path d="M15.5,843.5625 L16.5,843.5625 L16.5,850.5625 L15.5,850.5625 M17.5,843.5625 L18.5,843.5625 L18.5,850.5625 L17.5,850.5625" fill="#3B88C3"/><path d="M20,844.5625 L21,844.5625 L21,850.5625 L20,850.5625 M22,844.5625 L23,844.5625 L23,850.5625 L22,850.5625 M24,844.5625 L25,844.5625 L25,850.5625 L24,850.5625 M9,844.5625 L10,844.5625 L10,850.5625 L9,850.5625 M11,844.5625 L12,844.5625 L12,850.5625 L11,850.5625 M13,844.5625 L14,844.5625 L14,850.5625 L13,850.5625 M9,851.0625 L10,851.0625 L10,852.0625 L9,852.0625 M11,851.0625 L12,851.0625 L12,852.0625 L11,852.0625 M13,851.0625 L14,851.0625 L14,852.0625 L13,852.0625" fill="#55ACEE"/><path d="M15.5,851.0625 L16.5,851.0625 L16.5,852.0625 L15.5,852.0625 M17.5,851.0625 L18.5,851.0625 L18.5,852.0625 L17.5,852.0625" fill="#3B88C3"/><path d="M20,851.0625 L21,851.0625 L21,852.0625 L20,852.0625 M22,851.0625 L23,851.0625 L23,852.0625 L22,852.0625 M24,851.0625 L25,851.0625 L25,852.0625 L24,852.0625" fill="#55ACEE"/><path d="M9,852.5625 L10,852.5625 L10,854.0625 L9,854.0625 M11,852.5625 L12,852.5625 L12,854.0625 L11,854.0625 M13,852.5625 L14,852.5625 L14,854.0625 L13,854.0625 M15.5,852.5625 L16.5,852.5625 L16.5,854.0625 L15.5,854.0625 M17.5,852.5625 L18.5,852.5625 L18.5,854.0625 L17.5,854.0625 M20,852.5625 L21,852.5625 L21,854.0625 L20,854.0625 M22,852.5625 L23,852.5625 L23,854.0625 L22,854.0625 M24,852.5625 L25,852.5625 L25,854.0625 L24,854.0625" fill="#66757F"/><text fill="#000000" font-family="sans-serif" font-size="12" font-weight="bold" lengthAdjust="spacing" textLength="95.3086" x="30.1777" y="852.7324">Ayuntamiento</text><line style="stroke:#AAAAAA;stroke-width:1;" x1="8" x2="250" y1="861.0625" y2="861.0625"/><text fill="#000000" font-family="sans-serif" font-size="12" lengthAdjust="spacing" textLength="45.6211" x="8" y="876.7012">Nivel: 2</text><text fill="#000000" font-family="sans-serif" font-size="12" lengthAdjust="spacing" textLength="158.1621" x="8" y="892.6699">Mantenimiento: &#8364;120/sem</text><line style="stroke:#AAAAAA;stroke-width:1;" x1="8" x2="250" y1="901" y2="901"/><rect fill="#EEEEEE" height="17.9688" rx="5" ry="5" style="stroke:#000000;stroke-width:2.5;" width="236" x="10.5" y="908"/><text fill="#000000" font-family="sans-serif" font-size="12" lengthAdjust="spacing" textLength="165.252" x="45.874" y="921.1387">Actualizar] [Trasladar] [Info</text><line style="stroke:#000000;stroke-width:1;" x1="7" x2="250" y1="835.0625" y2="835.0625"/><line style="stroke:#000000;stroke-width:1;" x1="7" x2="250" y1="929.4688" y2="929.4688"/><line style="stroke:#000000;stroke-width:1;" x1="7" x2="7" y1="835.0625" y2="856.5625"/><line style="stroke:#000000;stroke-width:1;" x1="250" x2="250" y1="856.5625" y2="864.5625"/><line style="stroke:#000000;stroke-width:1;" x1="250" x2="250" y1="835.0625" y2="856.5625"/><line style="stroke:#000000;stroke-width:1;" x1="7" x2="7" y1="904.5" y2="929.4688"/><line style="stroke:#000000;stroke-width:1;" x1="7" x2="7" y1="896.5" y2="904.5"/><line style="stroke:#000000;stroke-width:1;" x1="250" x2="250" y1="904.5" y2="929.4688"/><line style="stroke:#000000;stroke-width:1;" x1="7" x2="7" y1="880.5313" y2="896.5"/><line style="stroke:#000000;stroke-width:1;" x1="250" x2="250" y1="896.5" y2="904.5"/><line style="stroke:#000000;stroke-width:1;" x1="7" x2="7" y1="864.5625" y2="880.5313"/><line style="stroke:#000000;stroke-width:1;" x1="250" x2="250" y1="880.5313" y2="896.5"/><line style="stroke:#000000;stroke-width:1;" x1="7" x2="7" y1="856.5625" y2="864.5625"/><line style="stroke:#000000;stroke-width:1;" x1="250" x2="250" y1="864.5625" y2="880.5313"/><path d="M271,852.0625 C271,854.0625 271,854.0625 269,854.0625 L255,854.0625 C253,854.0625 253,854.0625 253,852.0625 L253,838.0625 C253,836.0625 255,836.0625 255,836.0625 L269,836.0625 C271,836.0625 271,838.0625 271,838.0625 L271,852.0625" fill="#88C9F9"/><path d="M253,852.0625 C253,854.0625 255,854.0625 255,854.0625 L269,854.0625 C271,854.0625 271,852.0625 271,852.0625 L271,845.5625 L253,845.5625 L253,852.0625" fill="#77B255"/><path d="M268.6565,837.4015 C268.5195,837.4015 268.387,837.4225 268.263,837.461 C268.115,837.0395 267.715,836.7365 267.243,836.7365 C266.7365,836.7365 266.313,837.085 266.195,837.555 C266.07,837.4605 265.9155,837.402 265.746,837.402 C265.3325,837.402 264.9975,837.737 264.9975,838.1505 C264.9975,838.251 265.018,838.3465 265.0545,838.434 C264.9825,838.414 264.9085,838.4 264.8315,838.4 C264.372,838.3995 264,838.7715 264,839.231 C264,839.6905 264.372,840.0625 264.8315,840.0625 L268.6565,840.0625 C269.391,840.0625 269.987,839.467 269.987,838.732 C269.9875,837.9975 269.391,837.4015 268.6565,837.4015" fill="#F5F8FA"/><path d="M264.1875,845.5625 L259.8125,845.5625 L254.1315,853.8705 C254.5835,854.06 255,854.0625 255,854.0625 L269,854.0625 C269.355,854.0625 269.6445,853.9975 269.885,853.8935 L264.1875,845.5625" fill="#D99E82"/><path d="M255,854.0625 L269,854.0625 L263.6875,845.5625 L260.3125,845.5625" fill="#58595B"/><path d="M256.3125,854.0625 L267.6875,854.0625 L263.3125,845.5625 L260.6875,845.5625" fill="#808285"/><path d="M265,854.0625 L264.5,854.0625 L262.5,845.5625 L262.7345,845.5625 M261.5,845.5625 L259.5,854.0625 L259,854.0625 L261.242,845.5625" fill="#CCD6DD"/><path d="M259,852.5625 L265,852.5625 L265,853.0625 L259,853.0625 M259,851.0625 L265,851.0625 L265,851.5625 L259,851.5625 M258.969,849.7185 L264.969,849.7185 L264.969,850.2185 L258.969,850.2185 M259.5,848.5625 L264.5,848.5625 L264.5,849.0625 L259.5,849.0625 M260.5,847.5625 L263.5,847.5625 L263.5,848.0625 L260.5,848.0625 M260.5,846.7185 L263.5,846.7185 L263.5,847.0625 L260.5,847.0625 M260.5,846 L263.5,846 L263.5,846.344 L260.5,846.344" fill="#808285"/><path d="M257,846.8125 C257,846.9505 256.888,847.0625 256.75,847.0625 C256.612,847.0625 256.5,846.9505 256.5,846.8125 L256.5,841.3125 C256.5,841.1745 256.612,841.0625 256.75,841.0625 C256.888,841.0625 257,841.1745 257,841.3125 L257,846.8125 M267.5,846.8605 C267.5,846.972 267.4095,847.0625 267.298,847.0625 L267.2025,847.0625 C267.0905,847.0625 267,846.972 267,846.8605 L267,841.2645 C267,841.153 267.0905,841.0625 267.202,841.0625 L267.2975,841.0625 C267.4095,841.0625 267.5,841.153 267.5,841.2645 L267.5,846.8605" fill="#66757F"/><path d="M267.5,841.3125 C267.5,841.4505 267.388,841.5625 267.25,841.5625 L256.75,841.5625 C256.612,841.5625 256.5,841.4505 256.5,841.3125 C256.5,841.1745 256.612,841.0625 256.75,841.0625 L267.25,841.0625 C267.388,841.0625 267.5,841.1745 267.5,841.3125 M267.5,843.8705 C267.5,843.9765 267.414,844.0625 267.308,844.0625 L256.692,844.0625 C256.586,844.0625 256.5,843.9765 256.5,843.8705 L256.5,843.7545 C256.5,843.6485 256.586,843.5625 256.692,843.5625 L267.308,843.5625 C267.414,843.5625 267.5,843.6485 267.5,843.7545 L267.5,843.8705" fill="#66757F"/><path d="M266.5,843.5625 C266.5,843.8385 266.2765,844.0625 266,844.0625 L258,844.0625 C257.724,844.0625 257.5,843.8385 257.5,843.5625 L257.5,841.5625 C257.5,841.2865 257.724,841.0625 258,841.0625 L266,841.0625 C266.2765,841.0625 266.5,841.2865 266.5,841.5625 L266.5,843.5625" fill="#5C913B"/><path d="M259.5,841.5625 L260.5,841.5625 L260.5,842.5625 L259.5,842.5625" fill="#A6D488"/><path d="M259,843.0625 L261,843.0625 L261,843.5625 L259,843.5625" fill="#77B255"/><path d="M263.5,841.5625 L264.5,841.5625 L264.5,842.5625 L263.5,842.5625" fill="#A6D488"/><path d="M263,843.0625 L265,843.0625 L265,843.5625 L263,843.5625" fill="#77B255"/><text fill="#000000" font-family="sans-serif" font-size="12" font-weight="bold" lengthAdjust="spacing" textLength="46.8926" x="275.1777" y="852.7324">Tr&#225;fico</text><line style="stroke:#AAAAAA;stroke-width:1;" x1="253" x2="417.5029" y1="861.0625" y2="861.0625"/><text fill="#000000" font-family="sans-serif" font-size="18" font-weight="bold" lengthAdjust="spacing" textLength="163.5029" x="253" y="882.2705">Congesti&#243;n 28%</text><text fill="#FFA500" font-family="sans-serif" font-size="12" lengthAdjust="spacing" textLength="113.7598" x="253" y="899.6543">&#9888; Zonas cr&#237;ticas: 3</text><line style="stroke:#AAAAAA;stroke-width:1;" x1="253" x2="417.5029" y1="907.9844" y2="907.9844"/><rect fill="#EEEEEE" height="17.9688" rx="5" ry="5" style="stroke:#000000;stroke-width:2.5;" width="68" x="255.5" y="914.9844"/><text fill="#000000" font-family="sans-serif" font-size="12" lengthAdjust="spacing" textLength="58.3535" x="260.3232" y="928.123">Ver mapa</text><line style="stroke:#000000;stroke-width:1;" x1="252" x2="417.5029" y1="835.0625" y2="835.0625"/><line style="stroke:#000000;stroke-width:1;" x1="252" x2="417.5029" y1="936.4531" y2="936.4531"/><line style="stroke:#000000;stroke-width:1;" x1="252" x2="252" y1="835.0625" y2="856.5625"/><line style="stroke:#000000;stroke-width:1;" x1="417.5029" x2="417.5029" y1="856.5625" y2="864.5625"/><line style="stroke:#000000;stroke-width:1;" x1="417.5029" x2="417.5029" y1="835.0625" y2="856.5625"/><line style="stroke:#000000;stroke-width:1;" x1="252" x2="252" y1="911.4844" y2="936.4531"/><line style="stroke:#000000;stroke-width:1;" x1="252" x2="252" y1="903.4844" y2="911.4844"/><line style="stroke:#000000;stroke-width:1;" x1="417.5029" x2="417.5029" y1="911.4844" y2="936.4531"/><line style="stroke:#000000;stroke-width:1;" x1="252" x2="252" y1="887.5156" y2="903.4844"/><line style="stroke:#000000;stroke-width:1;" x1="417.5029" x2="417.5029" y1="903.4844" y2="911.4844"/><line style="stroke:#000000;stroke-width:1;" x1="252" x2="252" y1="864.5625" y2="887.5156"/><line style="stroke:#000000;stroke-width:1;" x1="417.5029" x2="417.5029" y1="887.5156" y2="903.4844"/><line style="stroke:#000000;stroke-width:1;" x1="252" x2="252" y1="856.5625" y2="864.5625"/><line style="stroke:#000000;stroke-width:1;" x1="417.5029" x2="417.5029" y1="864.5625" y2="887.5156"/><path d="M436.9719,843.888 C436.8989,843.6925 436.7119,843.5625 436.5029,843.5625 L430.4654,843.5625 L433.9479,836.7915 C434.0574,836.5785 434.0009,836.318 433.8124,836.17 C433.7214,836.098 433.6119,836.0625 433.5029,836.0625 C433.3864,836.0625 433.2699,836.1035 433.1764,836.184 L429.5029,839.3565 L422.1764,845.684 C422.0184,845.8205 421.9614,846.041 422.0344,846.2365 C422.1074,846.432 422.2939,846.5625 422.5029,846.5625 L428.5404,846.5625 L425.0579,853.3335 C424.9484,853.5465 425.0049,853.807 425.1934,853.955 C425.2844,854.027 425.3939,854.0625 425.5029,854.0625 C425.6194,854.0625 425.7359,854.0215 425.8294,853.941 L429.5029,850.7685 L436.8294,844.441 C436.9879,844.3045 437.0444,844.084 436.9719,843.888" fill="#FFAC33"/><text fill="#000000" font-family="sans-serif" font-size="12" font-weight="bold" lengthAdjust="spacing" textLength="51.5977" x="442.6807" y="852.7324">Energ&#237;a</text><line style="stroke:#AAAAAA;stroke-width:1;" x1="420.5029" x2="575.9971" y1="861.0625" y2="861.0625"/><text fill="#000000" font-family="sans-serif" font-size="18" font-weight="bold" lengthAdjust="spacing" textLength="154.4941" x="420.5029" y="882.2705">95% Capacidad</text><text fill="#008000" font-family="sans-serif" font-size="12" lengthAdjust="spacing" textLength="58.0957" x="420.5029" y="899.6543">&#8599; Estable</text><line style="stroke:#AAAAAA;stroke-width:1;" x1="420.5029" x2="575.9971" y1="907.9844" y2="907.9844"/><rect fill="#EEEEEE" height="17.9688" rx="5" ry="5" style="stroke:#000000;stroke-width:2.5;" width="108" x="423.0029" y="914.9844"/><text fill="#000000" font-family="sans-serif" font-size="12" lengthAdjust="spacing" textLength="87.0469" x="433.4795" y="928.123">Subestaciones</text><line style="stroke:#000000;stroke-width:1;" x1="419.5029" x2="575.9971" y1="835.0625" y2="835.0625"/><line style="stroke:#000000;stroke-width:1;" x1="419.5029" x2="575.9971" y1="936.4531" y2="936.4531"/><line style="stroke:#000000;stroke-width:1;" x1="419.5029" x2="419.5029" y1="835.0625" y2="856.5625"/><line style="stroke:#000000;stroke-width:1;" x1="575.9971" x2="575.9971" y1="856.5625" y2="864.5625"/><line style="stroke:#000000;stroke-width:1;" x1="575.9971" x2="575.9971" y1="835.0625" y2="856.5625"/><line style="stroke:#000000;stroke-width:1;" x1="419.5029" x2="419.5029" y1="911.4844" y2="936.4531"/><line style="stroke:#000000;stroke-width:1;" x1="419.5029" x2="419.5029" y1="903.4844" y2="911.4844"/><line style="stroke:#000000;stroke-width:1;" x1="575.9971" x2="575.9971" y1="911.4844" y2="936.4531"/><line style="stroke:#000000;stroke-width:1;" x1="419.5029" x2="419.5029" y1="887.5156" y2="903.4844"/><line style="stroke:#000000;stroke-width:1;" x1="575.9971" x2="575.9971" y1="903.4844" y2="911.4844"/><line style="stroke:#000000;stroke-width:1;" x1="419.5029" x2="419.5029" y1="864.5625" y2="887.5156"/><line style="stroke:#000000;stroke-width:1;" x1="575.9971" x2="575.9971" y1="887.5156" y2="903.4844"/><line style="stroke:#000000;stroke-width:1;" x1="419.5029" x2="419.5029" y1="856.5625" y2="864.5625"/><line style="stroke:#000000;stroke-width:1;" x1="575.9971" x2="575.9971" y1="864.5625" y2="887.5156"/><line style="stroke:#AAAAAA;stroke-width:1;" x1="6" x2="736" y1="941.9531" y2="941.9531"/><line style="stroke:#AAAAAA;stroke-width:1;" x1="6" x2="736" y1="943.9531" y2="943.9531"/><text fill="#000000" font-family="sans-serif" font-size="14" font-weight="bold" lengthAdjust="spacing" textLength="56.5059" x="6" y="960.4482">Alertas</text><text fill="#008000" filter="url(#b1x5be55ij4srz0)" font-family="sans-serif" font-size="12" lengthAdjust="spacing" textLength="31.1836" x="6" y="992.8574">&#10003; OK</text><text fill="#000000" font-family="sans-serif" font-size="12" lengthAdjust="spacing" textLength="131.9414" x="40.998" y="992.8574">Servicios funcionando</text><text fill="#0000FF" filter="url(#b1x5be55ij4srz1)" font-family="sans-serif" font-size="12" lengthAdjust="spacing" textLength="35.127" x="6" y="1008.8262">&#8505; Info:</text><text fill="#000000" font-family="sans-serif" font-size="12" lengthAdjust="spacing" textLength="150.6387" x="44.9414" y="1008.8262">Nuevo edificio disponible</text><text fill="#FFA500" filter="url(#b1x5be55ij4srz2)" font-family="sans-serif" font-size="12" lengthAdjust="spacing" textLength="50.8535" x="6" y="1024.7949">&#9888; Aviso:</text><text fill="#000000" font-family="sans-serif" font-size="12" lengthAdjust="spacing" textLength="130.6289" x="60.668" y="1024.7949">Tr&#225;fico alto en Centro</text><text fill="#FF0000" filter="url(#b1x5be55ij4srz3)" font-family="sans-serif" font-size="12" lengthAdjust="spacing" textLength="47.6367" x="6" y="1040.7637">&#10006; Error:</text><text fill="#000000" font-family="sans-serif" font-size="12" lengthAdjust="spacing" textLength="172.6406" x="57.4512" y="1040.7637">Falta de agua en Distrito Sur</text><line style="stroke:#000000;stroke-width:1;" x1="5" x2="736" y1="42.2969" y2="42.2969"/><line style="stroke:#000000;stroke-width:1;" x1="5" x2="736" y1="1044.5938" y2="1044.5938"/><line style="stroke:#000000;stroke-width:1;" x1="5" x2="5" y1="42.2969" y2="58.2656"/><line style="stroke:#000000;stroke-width:1;" x1="736" x2="736" y1="42.2969" y2="58.2656"/><line style="stroke:#000000;stroke-width:1;" x1="5" x2="5" y1="964.75" y2="980.7188"/><line style="stroke:#000000;stroke-width:1;" x1="736" x2="736" y1="964.75" y2="980.7188"/><line style="stroke:#000000;stroke-width:1;" x1="5" x2="5" y1="817.0938" y2="833.0625"/><line style="stroke:#000000;stroke-width:1;" x1="736" x2="736" y1="817.0938" y2="833.0625"/><line style="stroke:#000000;stroke-width:1;" x1="5" x2="5" y1="359.5469" y2="375.5156"/><line style="stroke:#000000;stroke-width:1;" x1="736" x2="736" y1="359.5469" y2="375.5156"/><line style="stroke:#000000;stroke-width:1;" x1="5" x2="5" y1="84.5625" y2="100.5313"/><line style="stroke:#000000;stroke-width:1;" x1="736" x2="736" y1="84.5625" y2="100.5313"/><line style="stroke:#000000;stroke-width:1;" x1="5" x2="5" y1="1012.6563" y2="1028.625"/><line style="stroke:#000000;stroke-width:1;" x1="736" x2="736" y1="1012.6563" y2="1028.625"/><line style="stroke:#000000;stroke-width:1;" x1="5" x2="5" y1="946.4531" y2="964.75"/><line style="stroke:#000000;stroke-width:1;" x1="736" x2="736" y1="946.4531" y2="964.75"/><line style="stroke:#000000;stroke-width:1;" x1="5" x2="5" y1="798.7969" y2="817.0938"/><line style="stroke:#000000;stroke-width:1;" x1="736" x2="736" y1="798.7969" y2="817.0938"/><line style="stroke:#000000;stroke-width:1;" x1="5" x2="5" y1="341.25" y2="359.5469"/><line style="stroke:#000000;stroke-width:1;" x1="736" x2="736" y1="341.25" y2="359.5469"/><line style="stroke:#000000;stroke-width:1;" x1="5" x2="5" y1="66.2656" y2="84.5625"/><line style="stroke:#000000;stroke-width:1;" x1="736" x2="736" y1="66.2656" y2="84.5625"/><line style="stroke:#000000;stroke-width:1;" x1="5" x2="5" y1="996.6875" y2="1012.6563"/><line style="stroke:#000000;stroke-width:1;" x1="736" x2="736" y1="996.6875" y2="1012.6563"/><line style="stroke:#000000;stroke-width:1;" x1="5" x2="5" y1="938.4531" y2="946.4531"/><line style="stroke:#000000;stroke-width:1;" x1="736" x2="736" y1="938.4531" y2="946.4531"/><line style="stroke:#000000;stroke-width:1;" x1="5" x2="5" y1="790.7969" y2="798.7969"/><line style="stroke:#000000;stroke-width:1;" x1="736" x2="736" y1="790.7969" y2="798.7969"/><line style="stroke:#000000;stroke-width:1;" x1="5" x2="5" y1="333.25" y2="341.25"/><line style="stroke:#000000;stroke-width:1;" x1="736" x2="736" y1="333.25" y2="341.25"/><line style="stroke:#000000;stroke-width:1;" x1="5" x2="5" y1="58.2656" y2="66.2656"/><line style="stroke:#000000;stroke-width:1;" x1="736" x2="736" y1="58.2656" y2="66.2656"/><line style="stroke:#000000;stroke-width:1;" x1="5" x2="5" y1="980.7188" y2="996.6875"/><line style="stroke:#000000;stroke-width:1;" x1="736" x2="736" y1="980.7188" y2="996.6875"/><line style="stroke:#000000;stroke-width:1;" x1="5" x2="5" y1="833.0625" y2="938.4531"/><line style="stroke:#000000;stroke-width:1;" x1="736" x2="736" y1="833.0625" y2="938.4531"/><line style="stroke:#000000;stroke-width:1;" x1="5" x2="5" y1="375.5156" y2="790.7969"/><line style="stroke:#000000;stroke-width:1;" x1="736" x2="736" y1="375.5156" y2="790.7969"/><line style="stroke:#000000;stroke-width:1;" x1="5" x2="5" y1="100.5313" y2="333.25"/><line style="stroke:#000000;stroke-width:1;" x1="736" x2="736" y1="100.5313" y2="333.25"/><line style="stroke:#000000;stroke-width:1;" x1="5" x2="5" y1="1028.625" y2="1044.5938"/><line style="stroke:#000000;stroke-width:1;" x1="736" x2="736" y1="1028.625" y2="1044.5938"/><rect fill="none" height="53.9063" style="stroke:#000000;stroke-width:1;" width="15" x="315" y="734.8906"/><line style="stroke:#000000;stroke-width:1;" x1="315" x2="330" y1="746.8906" y2="746.8906"/><line style="stroke:#000000;stroke-width:1;" x1="315" x2="330" y1="776.7969" y2="776.7969"/><path d="M322,738.8906 L325,743.8906 L319,743.8906 L322,738.8906" fill="#000000"/><path d="M322,785.7969 L325,780.7969 L319,780.7969 L322,785.7969" fill="#000000"/><!--SRC=[RLLDRnit4BtpLmmCfB1HE9PasRKNYX1RabqvaM94Yb7KY01gTwmmuP8RVgXst01jKVGFj6Y1eeVstXoAddhsF_4lwP3IolB7IU9m-1xvvitiK-kuSPPBnvnm4g6DLamK32wimnpMuLKNkchzaES8gotXBc3V2vcXMMFiydDskG6DSNDVEwtGmhTme4tk9JT2XzMGcxVe-EplMCO_FPrn6NFxV8eJdeghVnLyP4-UC49gMF41asfz0PcXX2EF4ztO25lDniQuoHwpov2ybwOY9XqReL9H1DouVmcdZQHwiDd-8cb2IolhZ1VcDN76-7Pda-8dLv-udSTgstjL2dKKcWc55vdrlO2mD_5BeTOEXRhgZ5wATFuZtORkqY4TCxsWxzCkbxD3gPRQ96FfiVcbdg9fRCH8StctyAQGI2zoOegt4soJIlA6ZuKKWO9qQ2vOXppdL__Sq1xZUuyKY2UXXvdWIiDiTMYuod2-w9mxms61Gnf1DzLAtzAllj-XfnvwRZ9-ezvM9KZLucQo5Antje9-vuKsRZct7NBRc6k9Pg7rxcuGzQqdXqK1xnM_8p57vNGe_vAb7h10LnNUpI_DzhrDkKc8PgKjgER2QMWHZj6mmeRSSkZcXKTBuTL7Qp6lMg6jlix71c6V6oA9uRx7AOUEBP14-y0fPoxK02McJflIQEnOowjFJgGyd1jzhPKueqKqzOWDq4n5EiCSbUOQiMucT4u788Pj4KeeHoL5wmscxony1YyvvPKyevwc5t43pbpzHHHwT1EYmZcU2pMd1M2ms2FZPpfWNxBLhzRWc7lBsIgiGVKy_jJEOtpplAI_-juW3xeFyTpf6VkWorRwEZHoQ4SkKquJW4HPkVxk5tY9gGu60PuNKj2lzMFIUDxOYWonI3sMVAQF0HKKja3YAOouCFOswdpF3UKKkLl-or5C2utUgGL7NVYeGt1EJ5fVPtrg9vb0ZVMuSgZ4R3U1wn_-hjOg6nRpa7LAVUUv51-2TK-7Xbl9e-LFGv-_PX-fK3Tii_4ndDUXPBgvyKvefmb940MexJnQllYytpNvQeBDwz__1F8C2P2QcOri0fjb_yUhdQ21d1VyzYtk3Ao7Bh6xzOYwjA0wP3nxu0eJWwYQrp_z1c5sZINUeXsKHGm3zlL3PTcZbhvNbLlOZJ5FtoLIJDwuETaVFyEBPvHAyMP91sMNM3ZpAX3IdD9iUMmk0SNrzO__nGcSt8KAVQk1njvP08HCs88wajvsH_Sbm0kKKdyJAx4t5VO-PbbeyZqD3bJpaL8Y6ioMuGgXtj4xVuMECRHx5-o0G69tSVgc1B35e1fuGne_HPN5Zp4BlU9UzPu3VJ4iYGBLnxLARUjnjR8wz0XzFOLA7QgLf5P9whlG6mmXxA-nrSFZvs2rDoa60GXzx1q1hB4ZJaFj9JM9o3615mMge_QpCa1UcWgZLHYyxEYaTvEmNL_V5owMYRnuqcDjFEDUEZgHwaoeIGAlXWVhE-mvQUlvXB1HiPOcN7EHKATB-Jy0]--></g></svg>