<svg xmlns="http://www.w3.org/2000/svg" xmlns:xlink="http://www.w3.org/1999/xlink" contentStyleType="text/css" data-diagram-type="SALT" height="172px" preserveAspectRatio="none" style="width:601px;height:172px;background:#FFFFFF;" version="1.1" viewBox="0 0 601 172" width="601px" zoomAndPan="magnify"><defs/><g><text fill="#000000" font-family="sans-serif" font-size="12" lengthAdjust="spacing" textLength="207.6973" x="10" y="18.1387">El Buen Taco - Sistema de Pedidos</text><line style="stroke:#000000;stroke-width:1;" x1="8" x2="275" y1="20.9688" y2="20.9688"/><line style="stroke:#000000;stroke-width:1;" x1="8" x2="8" y1="17.9688" y2="19.9688"/><line style="stroke:#000000;stroke-width:1;" x1="275" x2="275" y1="17.9688" y2="19.9688"/><text fill="#000000" font-family="sans-serif" font-size="12" lengthAdjust="spacing" textLength="3.8145" x="282" y="18.1387">&#160;</text><line style="stroke:#000000;stroke-width:1;" x1="280" x2="286.8145" y1="20.9688" y2="20.9688"/><line style="stroke:#000000;stroke-width:1;" x1="280" x2="280" y1="17.9688" y2="19.9688"/><line style="stroke:#000000;stroke-width:1;" x1="286.8145" x2="286.8145" y1="17.9688" y2="19.9688"/><text fill="#000000" font-family="sans-serif" font-size="12" lengthAdjust="spacing" textLength="127.0313" x="10" y="38.1074">Selecciona tus tacos:</text><line style="stroke:#000000;stroke-width:1;" x1="8" x2="179" y1="40.9375" y2="40.9375"/><line style="stroke:#000000;stroke-width:1;" x1="8" x2="8" y1="37.9375" y2="39.9375"/><line style="stroke:#000000;stroke-width:1;" x1="179" x2="179" y1="37.9375" y2="39.9375"/><rect fill="#EEEEEE" height="17.9688" rx="5" ry="5" style="stroke:#000000;stroke-width:2.5;" width="404" x="185.5" y="29.4688"/><text fill="#000000" font-family="sans-serif" font-size="12" lengthAdjust="spacing" textLength="277.9688" x="248.5156" y="42.6074">&#127790; Carnitas] [&#127791; Pastor] [&#129385; Suadero] [&#127790; Barbacoa</text><text fill="#000000" font-family="sans-serif" font-size="12" lengthAdjust="spacing" textLength="3.8145" x="10" y="65.0762">&#160;</text><line style="stroke:#000000;stroke-width:1;" x1="8" x2="14.8145" y1="67.9063" y2="67.9063"/><line style="stroke:#000000;stroke-width:1;" x1="8" x2="8" y1="64.9063" y2="66.9063"/><line style="stroke:#000000;stroke-width:1;" x1="14.8145" x2="14.8145" y1="64.9063" y2="66.9063"/><rect fill="#EEEEEE" height="17.9688" rx="5" ry="5" style="stroke:#000000;stroke-width:2.5;" width="132" x="21.3145" y="56.4375"/><text fill="#000000" font-family="sans-serif" font-size="12" lengthAdjust="spacing" textLength="98.2793" x="38.1748" y="69.5762">A&#241;adir al pedido</text><text fill="#000000" font-family="sans-serif" font-size="12" lengthAdjust="spacing" textLength="85.3359" x="10" y="92.0449">Pedido actual:</text><line style="stroke:#000000;stroke-width:1;" x1="8" x2="123" y1="94.875" y2="94.875"/><line style="stroke:#000000;stroke-width:1;" x1="8" x2="8" y1="91.875" y2="93.875"/><line style="stroke:#000000;stroke-width:1;" x1="123" x2="123" y1="91.875" y2="93.875"/><text fill="#000000" font-family="sans-serif" font-size="12" lengthAdjust="spacing" textLength="145.9395" x="130" y="92.0449">3 tacos - Total: $75 USD</text><line style="stroke:#000000;stroke-width:1;" x1="128" x2="323" y1="94.875" y2="94.875"/><line style="stroke:#000000;stroke-width:1;" x1="128" x2="128" y1="91.875" y2="93.875"/><line style="stroke:#000000;stroke-width:1;" x1="323" x2="323" y1="91.875" y2="93.875"/><text fill="#000000" font-family="sans-serif" font-size="12" lengthAdjust="spacing" textLength="3.8145" x="10" y="112.0137">&#160;</text><line style="stroke:#000000;stroke-width:1;" x1="8" x2="14.8145" y1="114.8438" y2="114.8438"/><line style="stroke:#000000;stroke-width:1;" x1="8" x2="8" y1="111.8438" y2="113.8438"/><line style="stroke:#000000;stroke-width:1;" x1="14.8145" x2="14.8145" y1="111.8438" y2="113.8438"/><rect fill="#EEEEEE" height="17.9688" rx="5" ry="5" style="stroke:#000000;stroke-width:2.5;" width="220" x="21.3145" y="103.375"/><text fill="#000000" font-family="sans-serif" font-size="12" lengthAdjust="spacing" textLength="170.2559" x="46.1865" y="116.5137">Confirmar Pedido] [Cancelar</text><text fill="#000000" font-family="sans-serif" font-size="12" lengthAdjust="spacing" textLength="3.8145" x="10" y="138.9824">&#160;</text><line style="stroke:#000000;stroke-width:1;" x1="8" x2="14.8145" y1="141.8125" y2="141.8125"/><line style="stroke:#000000;stroke-width:1;" x1="8" x2="8" y1="138.8125" y2="140.8125"/><line style="stroke:#000000;stroke-width:1;" x1="14.8145" x2="14.8145" y1="138.8125" y2="140.8125"/><text fill="#000000" font-family="sans-serif" font-size="12" lengthAdjust="spacing" textLength="3.8145" x="21.8145" y="138.9824">&#160;</text><line style="stroke:#000000;stroke-width:1;" x1="19.8145" x2="26.6289" y1="141.8125" y2="141.8125"/><line style="stroke:#000000;stroke-width:1;" x1="19.8145" x2="19.8145" y1="138.8125" y2="140.8125"/><line style="stroke:#000000;stroke-width:1;" x1="26.6289" x2="26.6289" y1="138.8125" y2="140.8125"/><text fill="#000000" font-family="sans-serif" font-size="12" lengthAdjust="spacing" textLength="79.8164" x="10" y="158.9512">Panel inferior</text><line style="stroke:#000000;stroke-width:1;" x1="8" x2="123" y1="161.7813" y2="161.7813"/><line style="stroke:#000000;stroke-width:1;" x1="8" x2="8" y1="158.7813" y2="160.7813"/><line style="stroke:#000000;stroke-width:1;" x1="123" x2="123" y1="158.7813" y2="160.7813"/><text fill="#000000" font-family="sans-serif" font-size="12" lengthAdjust="spacing" textLength="114.293" x="127" y="158.9512">"Pedidos activos: 5</text><text fill="#000000" font-family="sans-serif" font-size="12" lengthAdjust="spacing" textLength="50.0625" x="243.293" y="158.9512">Listos: 2</text><text fill="#000000" font-family="sans-serif" font-size="12" lengthAdjust="spacing" textLength="112.084" x="295.3555" y="158.9512">En preparaci&#243;n: 3"</text><line style="stroke:#000000;stroke-width:1;" x1="5" x2="594" y1="5" y2="5"/><line style="stroke:#000000;stroke-width:1;" x1="5" x2="594" y1="165.7813" y2="165.7813"/><line style="stroke:#000000;stroke-width:1;" x1="5" x2="5" y1="5" y2="24.9688"/><line style="stroke:#000000;stroke-width:1;" x1="594" x2="594" y1="5" y2="24.9688"/><line style="stroke:#000000;stroke-width:1;" x1="5" x2="5" y1="125.8438" y2="145.8125"/><line style="stroke:#000000;stroke-width:1;" x1="594" x2="594" y1="125.8438" y2="145.8125"/><line style="stroke:#000000;stroke-width:1;" x1="5" x2="5" y1="78.9063" y2="98.875"/><line style="stroke:#000000;stroke-width:1;" x1="594" x2="594" y1="78.9063" y2="98.875"/><line style="stroke:#000000;stroke-width:1;" x1="5" x2="5" y1="24.9688" y2="51.9375"/><line style="stroke:#000000;stroke-width:1;" x1="594" x2="594" y1="24.9688" y2="51.9375"/><line style="stroke:#000000;stroke-width:1;" x1="5" x2="5" y1="145.8125" y2="165.7813"/><line style="stroke:#000000;stroke-width:1;" x1="594" x2="594" y1="145.8125" y2="165.7813"/><line style="stroke:#000000;stroke-width:1;" x1="5" x2="5" y1="98.875" y2="125.8438"/><line style="stroke:#000000;stroke-width:1;" x1="594" x2="594" y1="98.875" y2="125.8438"/><line style="stroke:#000000;stroke-width:1;" x1="5" x2="5" y1="51.9375" y2="78.9063"/><line style="stroke:#000000;stroke-width:1;" x1="594" x2="594" y1="51.9375" y2="78.9063"/><!--SRC=[LP1DQXj148NtVOh7a8LDa94bAmwpSYGv0KKYGqRonioYF5CI3QrkqJ-2uFW6kKDMMMGJOt84NoX7I6aauMJHqDtrwjNtwYf4yZ6GYUh-jGBkaLqR31DRpAbswA3K8VAQq30ARdJZGeQlo38yxEKb6wvhxImXfe0eNI4NYLI1sp_Vl_t2YBpLaKBLlXzHK8ZEjwyVFr4cQjYxwY0UahyJ3wh4u31YD_3stVCJDTg333OjHtKixx50TKnayfQkl-SG_BcByebNbmCiod7sd-N8sQNsQ_A7P88m8bkp8L_zAtm9Mv1b0ssNxBNpnvG7Wh13q5k9Zu5qJMLnktjFxjSM6yyRybJhvzysHpzhupseAxPDktvL6B9nCPjYopx8Fd5-rkls1cVzap9PJEHqpz7jvOFBl7U1sNYENVbKdNmefWWk-PhHo4olxrAK_bCreItXSx9Hhpd7fmtRoVZZyKEOjjexksORrUHczY9uSz4PweYIlP3WPgR6lAHaedJKhj5sbMCnVzzvgwPaLubMuirMZPpu-YyvR3BcBm00]--></g></svg>