<svg xmlns="http://www.w3.org/2000/svg" xmlns:xlink="http://www.w3.org/1999/xlink" contentStyleType="text/css" data-diagram-type="JSON" height="528px" preserveAspectRatio="none" style="width:961px;height:528px;background:#FFFFFF;" version="1.1" viewBox="0 0 961 528" width="961px" zoomAndPan="magnify"><defs/><g><rect fill="#F1F1F1" height="81.1875" rx="5" ry="5" style="stroke:#F1F1F1;stroke-width:1.5;" width="187.1729" x="10" y="160.4063"/><text fill="#000000" font-family="sans-serif" font-size="14" font-weight="bold" lengthAdjust="spacing" textLength="71.1416" x="15" y="175.4014">producto</text><text fill="#000000" font-family="sans-serif" font-size="14" lengthAdjust="spacing" textLength="90.9932" x="101.1797" y="175.4014">El Buen Taco</text><line style="stroke:#000000;stroke-width:1;" x1="96.1797" x2="96.1797" y1="160.4063" y2="180.7031"/><line style="stroke:#000000;stroke-width:1;" x1="10" x2="197.1729" y1="180.7031" y2="180.7031"/><text fill="#000000" font-family="sans-serif" font-size="14" font-weight="bold" lengthAdjust="spacing" textLength="76.1797" x="15" y="195.6982">backbone</text><text fill="#000000" font-family="sans-serif" font-size="14" lengthAdjust="spacing" textLength="13.3506" x="101.1797" y="195.6982">&#160;&#160;&#160;</text><line style="stroke:#000000;stroke-width:1;" x1="96.1797" x2="96.1797" y1="180.7031" y2="201"/><line style="stroke:#000000;stroke-width:1;" x1="10" x2="197.1729" y1="201" y2="201"/><text fill="#000000" font-family="sans-serif" font-size="14" font-weight="bold" lengthAdjust="spacing" textLength="68.8926" x="15" y="215.9951">historias</text><text fill="#000000" font-family="sans-serif" font-size="14" lengthAdjust="spacing" textLength="13.3506" x="101.1797" y="215.9951">&#160;&#160;&#160;</text><line style="stroke:#000000;stroke-width:1;" x1="96.1797" x2="96.1797" y1="201" y2="221.2969"/><line style="stroke:#000000;stroke-width:1;" x1="10" x2="197.1729" y1="221.2969" y2="221.2969"/><text fill="#000000" font-family="sans-serif" font-size="14" font-weight="bold" lengthAdjust="spacing" textLength="66.3018" x="15" y="236.292">releases</text><text fill="#000000" font-family="sans-serif" font-size="14" lengthAdjust="spacing" textLength="13.3506" x="101.1797" y="236.292">&#160;&#160;&#160;</text><line style="stroke:#000000;stroke-width:1;" x1="96.1797" x2="96.1797" y1="221.2969" y2="241.5938"/><rect fill="none" height="81.1875" rx="5" ry="5" style="stroke:#000000;stroke-width:1.5;" width="187.1729" x="10" y="160.4063"/><rect fill="#F1F1F1" height="121.7813" rx="5" ry="5" style="stroke:#F1F1F1;stroke-width:1.5;" width="142.0566" x="254" y="10"/><text fill="#000000" font-family="sans-serif" font-size="14" lengthAdjust="spacing" textLength="103.0107" x="259" y="24.9951">Explorar men&#250;</text><line style="stroke:#000000;stroke-width:1;" x1="254" x2="396.0566" y1="30.2969" y2="30.2969"/><text fill="#000000" font-family="sans-serif" font-size="14" lengthAdjust="spacing" textLength="123.1357" x="259" y="45.292">Seleccionar tacos</text><line style="stroke:#000000;stroke-width:1;" x1="254" x2="396.0566" y1="50.5938" y2="50.5938"/><text fill="#000000" font-family="sans-serif" font-size="14" lengthAdjust="spacing" textLength="121.9395" x="259" y="65.5889">Confirmar pedido</text><line style="stroke:#000000;stroke-width:1;" x1="254" x2="396.0566" y1="70.8906" y2="70.8906"/><text fill="#000000" font-family="sans-serif" font-size="14" lengthAdjust="spacing" textLength="132.0566" x="259" y="85.8857">Preparar en cocina</text><line style="stroke:#000000;stroke-width:1;" x1="254" x2="396.0566" y1="91.1875" y2="91.1875"/><text fill="#000000" font-family="sans-serif" font-size="14" lengthAdjust="spacing" textLength="112.9775" x="259" y="106.1826">Entregar pedido</text><line style="stroke:#000000;stroke-width:1;" x1="254" x2="396.0566" y1="111.4844" y2="111.4844"/><text fill="#000000" font-family="sans-serif" font-size="14" lengthAdjust="spacing" textLength="113.1689" x="259" y="126.4795">Generar reporte</text><rect fill="none" height="121.7813" rx="5" ry="5" style="stroke:#000000;stroke-width:1.5;" width="142.0566" x="254" y="10"/><rect fill="#F1F1F1" height="121.7813" rx="5" ry="5" style="stroke:#F1F1F1;stroke-width:1.5;" width="182.374" x="234" y="150"/><text fill="#000000" font-family="sans-serif" font-size="14" font-weight="bold" lengthAdjust="spacing" textLength="115.1787" x="239" y="164.9951">Explorar men&#250;</text><text fill="#000000" font-family="sans-serif" font-size="14" lengthAdjust="spacing" textLength="13.3506" x="398.0234" y="164.9951">&#160;&#160;&#160;</text><line style="stroke:#000000;stroke-width:1;" x1="393.0234" x2="393.0234" y1="150" y2="170.2969"/><line style="stroke:#000000;stroke-width:1;" x1="234" x2="416.374" y1="170.2969" y2="170.2969"/><text fill="#000000" font-family="sans-serif" font-size="14" font-weight="bold" lengthAdjust="spacing" textLength="138.4688" x="239" y="185.292">Seleccionar tacos</text><text fill="#000000" font-family="sans-serif" font-size="14" lengthAdjust="spacing" textLength="13.3506" x="398.0234" y="185.292">&#160;&#160;&#160;</text><line style="stroke:#000000;stroke-width:1;" x1="393.0234" x2="393.0234" y1="170.2969" y2="190.5938"/><line style="stroke:#000000;stroke-width:1;" x1="234" x2="416.374" y1="190.5938" y2="190.5938"/><text fill="#000000" font-family="sans-serif" font-size="14" font-weight="bold" lengthAdjust="spacing" textLength="137.4434" x="239" y="205.5889">Confirmar pedido</text><text fill="#000000" font-family="sans-serif" font-size="14" lengthAdjust="spacing" textLength="13.3506" x="398.0234" y="205.5889">&#160;&#160;&#160;</text><line style="stroke:#000000;stroke-width:1;" x1="393.0234" x2="393.0234" y1="190.5938" y2="210.8906"/><line style="stroke:#000000;stroke-width:1;" x1="234" x2="416.374" y1="210.8906" y2="210.8906"/><text fill="#000000" font-family="sans-serif" font-size="14" font-weight="bold" lengthAdjust="spacing" textLength="149.0234" x="239" y="225.8857">Preparar en cocina</text><text fill="#000000" font-family="sans-serif" font-size="14" lengthAdjust="spacing" textLength="13.3506" x="398.0234" y="225.8857">&#160;&#160;&#160;</text><line style="stroke:#000000;stroke-width:1;" x1="393.0234" x2="393.0234" y1="210.8906" y2="231.1875"/><line style="stroke:#000000;stroke-width:1;" x1="234" x2="416.374" y1="231.1875" y2="231.1875"/><text fill="#000000" font-family="sans-serif" font-size="14" font-weight="bold" lengthAdjust="spacing" textLength="127.8457" x="239" y="246.1826">Entregar pedido</text><text fill="#000000" font-family="sans-serif" font-size="14" lengthAdjust="spacing" textLength="13.3506" x="398.0234" y="246.1826">&#160;&#160;&#160;</text><line style="stroke:#000000;stroke-width:1;" x1="393.0234" x2="393.0234" y1="231.1875" y2="251.4844"/><line style="stroke:#000000;stroke-width:1;" x1="234" x2="416.374" y1="251.4844" y2="251.4844"/><text fill="#000000" font-family="sans-serif" font-size="14" font-weight="bold" lengthAdjust="spacing" textLength="127.709" x="239" y="266.4795">Generar reporte</text><text fill="#000000" font-family="sans-serif" font-size="14" lengthAdjust="spacing" textLength="13.3506" x="398.0234" y="266.4795">&#160;&#160;&#160;</text><line style="stroke:#000000;stroke-width:1;" x1="393.0234" x2="393.0234" y1="251.4844" y2="271.7813"/><rect fill="none" height="121.7813" rx="5" ry="5" style="stroke:#000000;stroke-width:1.5;" width="182.374" x="234" y="150"/><rect fill="#F1F1F1" height="40.5938" rx="5" ry="5" style="stroke:#F1F1F1;stroke-width:1.5;" width="462.6348" x="470" y="23.5"/><text fill="#000000" font-family="sans-serif" font-size="14" lengthAdjust="spacing" textLength="452.6348" x="475" y="38.4951">Como cliente quiero ver el men&#250; de tacos para elegir f&#225;cilmente</text><line style="stroke:#000000;stroke-width:1;" x1="470" x2="932.6348" y1="43.7969" y2="43.7969"/><text fill="#000000" font-family="sans-serif" font-size="14" lengthAdjust="spacing" textLength="303.6455" x="475" y="58.792">Como cliente quiero filtrar por tipo o precio</text><rect fill="none" height="40.5938" rx="5" ry="5" style="stroke:#000000;stroke-width:1.5;" width="462.6348" x="470" y="23.5"/><rect fill="#F1F1F1" height="40.5938" rx="5" ry="5" style="stroke:#F1F1F1;stroke-width:1.5;" width="439.9941" x="481.5" y="82.5"/><text fill="#000000" font-family="sans-serif" font-size="14" lengthAdjust="spacing" textLength="299.2842" x="486.5" y="97.4951">Como cliente quiero a&#241;adir tacos al carrito</text><line style="stroke:#000000;stroke-width:1;" x1="481.5" x2="921.4941" y1="102.7969" y2="102.7969"/><text fill="#000000" font-family="sans-serif" font-size="14" lengthAdjust="spacing" textLength="429.9941" x="486.5" y="117.792">Como cliente quiero modificar cantidades antes de confirmar</text><rect fill="none" height="40.5938" rx="5" ry="5" style="stroke:#000000;stroke-width:1.5;" width="439.9941" x="481.5" y="82.5"/><rect fill="#F1F1F1" height="40.5938" rx="5" ry="5" style="stroke:#F1F1F1;stroke-width:1.5;" width="496.9102" x="453" y="141.5"/><text fill="#000000" font-family="sans-serif" font-size="14" lengthAdjust="spacing" textLength="295.668" x="458" y="156.4951">Como cajero quiero ver el total del pedido</text><line style="stroke:#000000;stroke-width:1;" x1="453" x2="949.9102" y1="161.7969" y2="161.7969"/><text fill="#000000" font-family="sans-serif" font-size="14" lengthAdjust="spacing" textLength="486.9102" x="458" y="176.792">Como cajero quiero seleccionar m&#233;todo de pago y registrar el pedido</text><rect fill="none" height="40.5938" rx="5" ry="5" style="stroke:#000000;stroke-width:1.5;" width="496.9102" x="453" y="141.5"/><rect fill="#F1F1F1" height="40.5938" rx="5" ry="5" style="stroke:#F1F1F1;stroke-width:1.5;" width="410.709" x="496" y="200.5"/><text fill="#000000" font-family="sans-serif" font-size="14" lengthAdjust="spacing" textLength="400.709" x="501" y="215.4951">Como cocinero quiero ver los pedidos activos con detalle</text><line style="stroke:#000000;stroke-width:1;" x1="496" x2="906.709" y1="220.7969" y2="220.7969"/><text fill="#000000" font-family="sans-serif" font-size="14" lengthAdjust="spacing" textLength="351.4014" x="501" y="235.792">Como cocinero quiero marcar pedidos como listos</text><rect fill="none" height="40.5938" rx="5" ry="5" style="stroke:#000000;stroke-width:1.5;" width="410.709" x="496" y="200.5"/><rect fill="#F1F1F1" height="40.5938" rx="5" ry="5" style="stroke:#F1F1F1;stroke-width:1.5;" width="306.2217" x="548.5" y="259.5"/><text fill="#000000" font-family="sans-serif" font-size="14" lengthAdjust="spacing" textLength="275.4268" x="553.5" y="274.4951">Como cajero quiero notificar la entrega</text><line style="stroke:#000000;stroke-width:1;" x1="548.5" x2="854.7217" y1="279.7969" y2="279.7969"/><text fill="#000000" font-family="sans-serif" font-size="14" lengthAdjust="spacing" textLength="296.2217" x="553.5" y="294.792">Como cajero quiero imprimir el ticket final</text><rect fill="none" height="40.5938" rx="5" ry="5" style="stroke:#000000;stroke-width:1.5;" width="306.2217" x="548.5" y="259.5"/><rect fill="#F1F1F1" height="20.2969" rx="5" ry="5" style="stroke:#F1F1F1;stroke-width:1.5;" width="447.7666" x="477.5" y="318.8516"/><text fill="#000000" font-family="sans-serif" font-size="14" lengthAdjust="spacing" textLength="437.7666" x="482.5" y="333.8467">Como due&#241;o quiero ver el resumen diario de ventas y pedidos</text><rect fill="none" height="20.2969" rx="5" ry="5" style="stroke:#000000;stroke-width:1.5;" width="447.7666" x="477.5" y="318.8516"/><rect fill="#F1F1F1" height="60.8906" rx="5" ry="5" style="stroke:#F1F1F1;stroke-width:1.5;" width="109.8105" x="270" y="402.5"/><text fill="#000000" font-family="sans-serif" font-size="14" font-weight="bold" lengthAdjust="spacing" textLength="35.0273" x="275" y="417.4951">MVP</text><text fill="#000000" font-family="sans-serif" font-size="14" lengthAdjust="spacing" textLength="13.3506" x="361.46" y="417.4951">&#160;&#160;&#160;</text><line style="stroke:#000000;stroke-width:1;" x1="356.46" x2="356.46" y1="402.5" y2="422.7969"/><line style="stroke:#000000;stroke-width:1;" x1="270" x2="379.8105" y1="422.7969" y2="422.7969"/><text fill="#000000" font-family="sans-serif" font-size="14" font-weight="bold" lengthAdjust="spacing" textLength="76.46" x="275" y="437.792">Release 2</text><text fill="#000000" font-family="sans-serif" font-size="14" lengthAdjust="spacing" textLength="13.3506" x="361.46" y="437.792">&#160;&#160;&#160;</text><line style="stroke:#000000;stroke-width:1;" x1="356.46" x2="356.46" y1="422.7969" y2="443.0938"/><line style="stroke:#000000;stroke-width:1;" x1="270" x2="379.8105" y1="443.0938" y2="443.0938"/><text fill="#000000" font-family="sans-serif" font-size="14" font-weight="bold" lengthAdjust="spacing" textLength="76.46" x="275" y="458.0889">Release 3</text><text fill="#000000" font-family="sans-serif" font-size="14" lengthAdjust="spacing" textLength="13.3506" x="361.46" y="458.0889">&#160;&#160;&#160;</text><line style="stroke:#000000;stroke-width:1;" x1="356.46" x2="356.46" y1="443.0938" y2="463.3906"/><rect fill="none" height="60.8906" rx="5" ry="5" style="stroke:#000000;stroke-width:1.5;" width="109.8105" x="270" y="402.5"/><rect fill="#F1F1F1" height="60.8906" rx="5" ry="5" style="stroke:#F1F1F1;stroke-width:1.5;" width="133.1357" x="635" y="357.5"/><text fill="#000000" font-family="sans-serif" font-size="14" lengthAdjust="spacing" textLength="103.0107" x="640" y="372.4951">Explorar men&#250;</text><line style="stroke:#000000;stroke-width:1;" x1="635" x2="768.1357" y1="377.7969" y2="377.7969"/><text fill="#000000" font-family="sans-serif" font-size="14" lengthAdjust="spacing" textLength="123.1357" x="640" y="392.792">Seleccionar tacos</text><line style="stroke:#000000;stroke-width:1;" x1="635" x2="768.1357" y1="398.0938" y2="398.0938"/><text fill="#000000" font-family="sans-serif" font-size="14" lengthAdjust="spacing" textLength="121.9395" x="640" y="413.0889">Confirmar pedido</text><rect fill="none" height="60.8906" rx="5" ry="5" style="stroke:#000000;stroke-width:1.5;" width="133.1357" x="635" y="357.5"/><rect fill="#F1F1F1" height="40.5938" rx="5" ry="5" style="stroke:#F1F1F1;stroke-width:1.5;" width="142.0566" x="630.5" y="436.5"/><text fill="#000000" font-family="sans-serif" font-size="14" lengthAdjust="spacing" textLength="132.0566" x="635.5" y="451.4951">Preparar en cocina</text><line style="stroke:#000000;stroke-width:1;" x1="630.5" x2="772.5566" y1="456.7969" y2="456.7969"/><text fill="#000000" font-family="sans-serif" font-size="14" lengthAdjust="spacing" textLength="112.9775" x="635.5" y="471.792">Entregar pedido</text><rect fill="none" height="40.5938" rx="5" ry="5" style="stroke:#000000;stroke-width:1.5;" width="142.0566" x="630.5" y="436.5"/><rect fill="#F1F1F1" height="20.2969" rx="5" ry="5" style="stroke:#F1F1F1;stroke-width:1.5;" width="123.1689" x="640" y="495.8516"/><text fill="#000000" font-family="sans-serif" font-size="14" lengthAdjust="spacing" textLength="113.1689" x="645" y="510.8467">Generar reporte</text><rect fill="none" height="20.2969" rx="5" ry="5" style="stroke:#000000;stroke-width:1.5;" width="123.1689" x="640" y="495.8516"/><path d="M185,191 L198,191 C225.383,191 214.9726,160.6922 234,141 C238.4642,136.3798 243.2449,131.8098 248.191,127.3508" fill="none" style="stroke:#000000;stroke-width:1;stroke-dasharray:3.0,3.0;"/><path d="M250.2629,129.7001 L249.9529,125.797 L246.1191,125.0016 L254.0641,122.1712 L250.2629,129.7001" fill="#000000"/><ellipse cx="185" cy="191" fill="#000000" rx="3" ry="3" style="stroke:#000000;stroke-width:1;"/><path d="M403.5,160 L416.5,160 C458.4317,160 419.4919,98.2087 453,73 C456.4641,70.3939 460.0359,67.9472 463.7018,65.6514" fill="none" style="stroke:#000000;stroke-width:1;stroke-dasharray:3.0,3.0;"/><path d="M465.2904,68.3303 L465.711,64.4599 L462.1133,62.9724 L470.3991,61.68 L465.2904,68.3303" fill="#000000"/><ellipse cx="403.5" cy="160" fill="#000000" rx="3" ry="3" style="stroke:#000000;stroke-width:1;"/><path d="M403.5,180 L416.5,180 C443.3006,180 429.7224,145.2826 453,132 C459.8477,128.0926 466.9742,124.594 474.3052,121.4659" fill="none" style="stroke:#000000;stroke-width:1;stroke-dasharray:3.0,3.0;"/><path d="M475.5076,124.4245 L476.5242,120.5641 L473.1028,118.5073 L481.7017,118.4598 L475.5076,124.4245" fill="#000000"/><ellipse cx="403.5" cy="180" fill="#000000" rx="3" ry="3" style="stroke:#000000;stroke-width:1;"/><path d="M403.5,201 L416.5,201 C433.32,201 436.4887,194.2081 453,191 C466.5887,188.3597 480.6463,185.9269 494.8442,183.6908" fill="none" style="stroke:#000000;stroke-width:1;stroke-dasharray:3.0,3.0;"/><path d="M495.3048,186.6651 L497.0749,183.3454 L494.3836,180.7166 L502.2799,182.5394 L495.3048,186.6651" fill="#000000"/><ellipse cx="403.5" cy="201" fill="#000000" rx="3" ry="3" style="stroke:#000000;stroke-width:1;"/><path d="M403.5,221 L416.5,221 C439.8881,221 464.3576,221 488.7084,221" fill="none" style="stroke:#000000;stroke-width:1;stroke-dasharray:3.0,3.0;"/><path d="M488.7084,224.0208 L490.974,221 L488.7084,217.9792 L496.2604,221 L488.7084,224.0208" fill="#000000"/><ellipse cx="403.5" cy="221" fill="#000000" rx="3" ry="3" style="stroke:#000000;stroke-width:1;"/><path d="M403.5,241 L416.5,241 C433.32,241 436.4887,247.7919 453,251 C481.4408,256.526 511.9351,261.1433 541.4722,264.9497" fill="none" style="stroke:#000000;stroke-width:1;stroke-dasharray:3.0,3.0;"/><path d="M541.0921,267.9445 L543.7183,265.2348 L541.8523,261.9549 L548.9592,265.9 L541.0921,267.9445" fill="#000000"/><ellipse cx="403.5" cy="241" fill="#000000" rx="3" ry="3" style="stroke:#000000;stroke-width:1;"/><path d="M403.5,262 L416.5,262 C443.3006,262 429.4618,297.1849 453,310 C500.4366,335.8263 560.7217,340.9513 609.976,339.4387" fill="none" style="stroke:#000000;stroke-width:1;stroke-dasharray:3.0,3.0;"/><path d="M610.0894,342.4366 L612.2244,339.3536 L609.8626,336.4407 L617.4709,339.1551 L610.0894,342.4366" fill="#000000"/><ellipse cx="403.5" cy="262" fill="#000000" rx="3" ry="3" style="stroke:#000000;stroke-width:1;"/><path d="M185,211 L198,211 C207.2711,211 216.9245,211 226.5819,211" fill="none" style="stroke:#000000;stroke-width:1;stroke-dasharray:3.0,3.0;"/><path d="M226.5819,214.0955 L228.9035,211 L226.5819,207.9045 L234.3206,211 L226.5819,214.0955" fill="#000000"/><ellipse cx="185" cy="211" fill="#000000" rx="3" ry="3" style="stroke:#000000;stroke-width:1;"/><path d="M368.5,413 L381.5,413 C466.1082,413 562.9366,404.1786 627.6126,397.0159" fill="none" style="stroke:#000000;stroke-width:1;stroke-dasharray:3.0,3.0;"/><path d="M627.9584,400.1059 L629.9301,396.7565 L627.2667,393.9259 L635.3375,396.1513 L627.9584,400.1059" fill="#000000"/><ellipse cx="368.5" cy="413" fill="#000000" rx="3" ry="3" style="stroke:#000000;stroke-width:1;"/><path d="M368.5,433 L381.5,433 C464.2172,433 558.6429,441.0981 623.2642,447.8863" fill="none" style="stroke:#000000;stroke-width:1;stroke-dasharray:3.0,3.0;"/><path d="M622.9359,450.9783 L625.5832,448.1325 L623.5925,444.7942 L630.9943,448.707 L622.9359,450.9783" fill="#000000"/><ellipse cx="368.5" cy="433" fill="#000000" rx="3" ry="3" style="stroke:#000000;stroke-width:1;"/><path d="M368.5,453 L381.5,453 C416.6877,453 418.9965,477.9482 453,487 C512.338,502.796 582.2746,506.906 632.7269,507.4386" fill="none" style="stroke:#000000;stroke-width:1;stroke-dasharray:3.0,3.0;"/><path d="M632.705,510.4833 L635.0104,507.4551 L632.7488,504.3939 L640.3386,507.4934 L632.705,510.4833" fill="#000000"/><ellipse cx="368.5" cy="453" fill="#000000" rx="3" ry="3" style="stroke:#000000;stroke-width:1;"/><path d="M185,231 L198,231 C202.8061,231 267.2965,337.4486 302.2854,395.7975" fill="none" style="stroke:#000000;stroke-width:1;stroke-dasharray:3.0,3.0;"/><path d="M299.6762,397.361 L303.4581,397.7544 L304.8946,394.234 L306.1942,402.3205 L299.6762,397.361" fill="#000000"/><ellipse cx="185" cy="231" fill="#000000" rx="3" ry="3" style="stroke:#000000;stroke-width:1;"/><!--SRC=[XLHDJnj13Btlhx1o0gaW2D1MEI4WHKg96l5rgJWCCyxMC3lUpin6HHK_fiSUkVQQFrRF9g7PP4aF8S7ZZ-VtR1-7g7ny2Eoodnb0f_HiAXsvquDEty99XGwkbUREk_Hwh_JZFJkKrw_olrZwFqhBNdaeq4t_r5vYlKABMXCxUOWI7HOFf-p6v0inbsZ8yC8-ybYgb4RAQTRarEAbxwB7V2tW71qcVubZ7x4ZrhiQuZSAaJsf81X_jc9SOA_X50pQ4hg8yBqYz0mJ51HsvWi6P_WXeHCpvkHXFFsboHOfQ0xdZLHZiZ7L5OWGgMHWA3qABvqwwkvDjlu3KKrVbA6vCoWBMdbFaJUZATZGcCHLt5qaemnAi3Y4rAPUADF4jYRO6ZJra98toOiS1PMHNmtLscF2Kll5z7TammbGgNA69n4u5qNhqNZDra3OCZfh69Dv1QLDejRfX0GTQIBVme5K5kXsJTYL34A8VkKa1OgFJPCNck1MftSpUuxZN24hmpOBtKWT5QMdWcQSatx4A3Fdb6s2MDsLLH2cmkdBgeGUGoKZ3eQKfrgGYI1IGIIPTpql8d-VwytpegCAkBHumzlHSh7MMx7XMhIDNwEnorb5w2vNUVEKjCZHckrWELlBdPdtd3rdn-XCVJgpaPL5kXbU9FQ2T0Bxkzszxj7kmTPLvM0WdxrzsElsZZxqkeSmFBk6zBoTRPsFBY1mvJKAqpBdT5z5YT_E1cgYuBAIHIsm1rzAT8Eppmi3zDs4FBjqWxB1xV2Vm_l3dHEAS8K-wNWxpCvmh2eR9KBB_hky1pVNdtO-PXVAvPNA9JUwx9Gbht_gWQki_Gi0]--></g></svg>