<svg xmlns="http://www.w3.org/2000/svg" xmlns:xlink="http://www.w3.org/1999/xlink" contentStyleType="text/css" data-diagram-type="MINDMAP" height="979px" preserveAspectRatio="none" style="width:793px;height:979px;background:#FFFFFF;" version="1.1" viewBox="0 0 793 979" width="793px" zoomAndPan="magnify"><defs/><g><rect fill="#F1F1F1" height="36.2969" rx="12.5" ry="12.5" style="stroke:#181818;stroke-width:1.5;" width="195.3145" x="10" y="470.375"/><text fill="#000000" font-family="sans-serif" font-size="14" lengthAdjust="spacing" textLength="175.3145" x="20" y="493.3701">Producto: "El Buen Taco"</text><rect fill="#F1F1F1" height="36.2969" rx="12.5" ry="12.5" style="stroke:#181818;stroke-width:1.5;" width="62.0889" x="255.3145" y="76.2969"/><text fill="#000000" font-family="sans-serif" font-size="14" lengthAdjust="spacing" textLength="42.0889" x="265.3145" y="99.292">Visi&#243;n</text><rect fill="#F1F1F1" height="36.2969" rx="12.5" ry="12.5" style="stroke:#181818;stroke-width:1.5;" width="371.5449" x="367.4033" y="20"/><text fill="#000000" font-family="sans-serif" font-size="14" lengthAdjust="spacing" textLength="351.5449" x="377.4033" y="42.9951">Agilizar la gesti&#243;n de pedidos en taquer&#237;as locales</text><path d="M317.4033,94.4453 L327.4033,94.4453 C342.4033,94.4453 342.4033,38.1484 357.4033,38.1484 L367.4033,38.1484" fill="none" style="stroke:#181818;stroke-width:1;"/><rect fill="#F1F1F1" height="36.2969" rx="12.5" ry="12.5" style="stroke:#181818;stroke-width:1.5;" width="330.4473" x="367.4033" y="76.2969"/><text fill="#000000" font-family="sans-serif" font-size="14" lengthAdjust="spacing" textLength="310.4473" x="377.4033" y="99.292">Reducir errores al tomar y entregar &#243;rdenes</text><path d="M317.4033,94.4453 L327.4033,94.4453 C342.4033,94.4453 342.4033,94.4453 357.4033,94.4453 L367.4033,94.4453" fill="none" style="stroke:#181818;stroke-width:1;"/><rect fill="#F1F1F1" height="36.2969" rx="12.5" ry="12.5" style="stroke:#181818;stroke-width:1.5;" width="303.459" x="367.4033" y="132.5938"/><text fill="#000000" font-family="sans-serif" font-size="14" lengthAdjust="spacing" textLength="283.459" x="377.4033" y="155.5889">Digitalizar los reportes de ventas diarias</text><path d="M317.4033,94.4453 L327.4033,94.4453 C342.4033,94.4453 342.4033,150.7422 357.4033,150.7422 L367.4033,150.7422" fill="none" style="stroke:#181818;stroke-width:1;"/><path d="M205.3145,488.5234 L215.3145,488.5234 C230.3145,488.5234 230.3145,94.4453 245.3145,94.4453 L255.3145,94.4453" fill="none" style="stroke:#181818;stroke-width:1;"/><rect fill="#F1F1F1" height="36.2969" rx="12.5" ry="12.5" style="stroke:#181818;stroke-width:1.5;" width="80.498" x="255.3145" y="273.3359"/><text fill="#000000" font-family="sans-serif" font-size="14" lengthAdjust="spacing" textLength="60.498" x="265.3145" y="296.3311">Usuarios</text><rect fill="#F1F1F1" height="36.2969" rx="12.5" ry="12.5" style="stroke:#181818;stroke-width:1.5;" width="150.7715" x="385.8125" y="188.8906"/><text fill="#000000" font-family="sans-serif" font-size="14" lengthAdjust="spacing" textLength="130.7715" x="395.8125" y="211.8857">Due&#241;o de taquer&#237;a</text><path d="M335.8125,291.4844 L345.8125,291.4844 C360.8125,291.4844 360.8125,207.0391 375.8125,207.0391 L385.8125,207.0391" fill="none" style="stroke:#181818;stroke-width:1;"/><rect fill="#F1F1F1" height="36.2969" rx="12.5" ry="12.5" style="stroke:#181818;stroke-width:1.5;" width="78.4746" x="385.8125" y="245.1875"/><text fill="#000000" font-family="sans-serif" font-size="14" lengthAdjust="spacing" textLength="58.4746" x="395.8125" y="268.1826">Cajero/a</text><path d="M335.8125,291.4844 L345.8125,291.4844 C360.8125,291.4844 360.8125,263.3359 375.8125,263.3359 L385.8125,263.3359" fill="none" style="stroke:#181818;stroke-width:1;"/><rect fill="#F1F1F1" height="36.2969" rx="12.5" ry="12.5" style="stroke:#181818;stroke-width:1.5;" width="95.0313" x="385.8125" y="301.4844"/><text fill="#000000" font-family="sans-serif" font-size="14" lengthAdjust="spacing" textLength="75.0313" x="395.8125" y="324.4795">Cocinero/a</text><path d="M335.8125,291.4844 L345.8125,291.4844 C360.8125,291.4844 360.8125,319.6328 375.8125,319.6328 L385.8125,319.6328" fill="none" style="stroke:#181818;stroke-width:1;"/><rect fill="#F1F1F1" height="36.2969" rx="12.5" ry="12.5" style="stroke:#181818;stroke-width:1.5;" width="103.7539" x="385.8125" y="357.7813"/><text fill="#000000" font-family="sans-serif" font-size="14" lengthAdjust="spacing" textLength="83.7539" x="395.8125" y="380.7764">Cliente final</text><path d="M335.8125,291.4844 L345.8125,291.4844 C360.8125,291.4844 360.8125,375.9297 375.8125,375.9297 L385.8125,375.9297" fill="none" style="stroke:#181818;stroke-width:1;"/><path d="M205.3145,488.5234 L215.3145,488.5234 C230.3145,488.5234 230.3145,291.4844 245.3145,291.4844 L255.3145,291.4844" fill="none" style="stroke:#181818;stroke-width:1;"/><rect fill="#F1F1F1" height="36.2969" rx="12.5" ry="12.5" style="stroke:#181818;stroke-width:1.5;" width="108.8398" x="255.3145" y="498.5234"/><text fill="#000000" font-family="sans-serif" font-size="14" lengthAdjust="spacing" textLength="88.8398" x="265.3145" y="521.5186">Necesidades</text><rect fill="#F1F1F1" height="36.2969" rx="12.5" ry="12.5" style="stroke:#181818;stroke-width:1.5;" width="367.1426" x="414.1543" y="414.0781"/><text fill="#000000" font-family="sans-serif" font-size="14" lengthAdjust="spacing" textLength="347.1426" x="424.1543" y="437.0732">Tomar pedidos r&#225;pidamente desde un dispositivo</text><path d="M364.1543,516.6719 L374.1543,516.6719 C389.1543,516.6719 389.1543,432.2266 404.1543,432.2266 L414.1543,432.2266" fill="none" style="stroke:#181818;stroke-width:1;"/><rect fill="#F1F1F1" height="36.2969" rx="12.5" ry="12.5" style="stroke:#181818;stroke-width:1.5;" width="307.6563" x="414.1543" y="470.375"/><text fill="#000000" font-family="sans-serif" font-size="14" lengthAdjust="spacing" textLength="287.6563" x="424.1543" y="493.3701">Ver en cocina las &#243;rdenes en tiempo real</text><path d="M364.1543,516.6719 L374.1543,516.6719 C389.1543,516.6719 389.1543,488.5234 404.1543,488.5234 L414.1543,488.5234" fill="none" style="stroke:#181818;stroke-width:1;"/><rect fill="#F1F1F1" height="36.2969" rx="12.5" ry="12.5" style="stroke:#181818;stroke-width:1.5;" width="296.1035" x="414.1543" y="526.6719"/><text fill="#000000" font-family="sans-serif" font-size="14" lengthAdjust="spacing" textLength="276.1035" x="424.1543" y="549.667">Calcular ingresos y ventas autom&#225;ticas</text><path d="M364.1543,516.6719 L374.1543,516.6719 C389.1543,516.6719 389.1543,544.8203 404.1543,544.8203 L414.1543,544.8203" fill="none" style="stroke:#181818;stroke-width:1;"/><rect fill="#F1F1F1" height="36.2969" rx="12.5" ry="12.5" style="stroke:#181818;stroke-width:1.5;" width="253.6592" x="414.1543" y="582.9688"/><text fill="#000000" font-family="sans-serif" font-size="14" lengthAdjust="spacing" textLength="233.6592" x="424.1543" y="605.9639">Mejorar la experiencia del cliente</text><path d="M364.1543,516.6719 L374.1543,516.6719 C389.1543,516.6719 389.1543,601.1172 404.1543,601.1172 L414.1543,601.1172" fill="none" style="stroke:#181818;stroke-width:1;"/><path d="M205.3145,488.5234 L215.3145,488.5234 C230.3145,488.5234 230.3145,516.6719 245.3145,516.6719 L255.3145,516.6719" fill="none" style="stroke:#181818;stroke-width:1;"/><rect fill="#F1F1F1" height="36.2969" rx="12.5" ry="12.5" style="stroke:#181818;stroke-width:1.5;" width="56.3672" x="255.3145" y="723.7109"/><text fill="#000000" font-family="sans-serif" font-size="14" lengthAdjust="spacing" textLength="36.3672" x="265.3145" y="746.7061">Valor</text><rect fill="#F1F1F1" height="36.2969" rx="12.5" ry="12.5" style="stroke:#181818;stroke-width:1.5;" width="205.0625" x="361.6816" y="639.2656"/><text fill="#000000" font-family="sans-serif" font-size="14" lengthAdjust="spacing" textLength="185.0625" x="371.6816" y="662.2607">+30% eficiencia operativa</text><path d="M311.6816,741.8594 L321.6816,741.8594 C336.6816,741.8594 336.6816,657.4141 351.6816,657.4141 L361.6816,657.4141" fill="none" style="stroke:#181818;stroke-width:1;"/><rect fill="#F1F1F1" height="36.2969" rx="12.5" ry="12.5" style="stroke:#181818;stroke-width:1.5;" width="180.1182" x="361.6816" y="695.5625"/><text fill="#000000" font-family="sans-serif" font-size="14" lengthAdjust="spacing" textLength="160.1182" x="371.6816" y="718.5576">-50% errores humanos</text><path d="M311.6816,741.8594 L321.6816,741.8594 C336.6816,741.8594 336.6816,713.7109 351.6816,713.7109 L361.6816,713.7109" fill="none" style="stroke:#181818;stroke-width:1;"/><rect fill="#F1F1F1" height="36.2969" rx="12.5" ry="12.5" style="stroke:#181818;stroke-width:1.5;" width="241.8672" x="361.6816" y="751.8594"/><text fill="#000000" font-family="sans-serif" font-size="14" lengthAdjust="spacing" textLength="221.8672" x="371.6816" y="774.8545">Reportes autom&#225;ticos sin papel</text><path d="M311.6816,741.8594 L321.6816,741.8594 C336.6816,741.8594 336.6816,770.0078 351.6816,770.0078 L361.6816,770.0078" fill="none" style="stroke:#181818;stroke-width:1;"/><rect fill="#F1F1F1" height="36.2969" rx="12.5" ry="12.5" style="stroke:#181818;stroke-width:1.5;" width="294.6611" x="361.6816" y="808.1563"/><text fill="#000000" font-family="sans-serif" font-size="14" lengthAdjust="spacing" textLength="274.6611" x="371.6816" y="831.1514">Mejor servicio y satisfacci&#243;n del cliente</text><path d="M311.6816,741.8594 L321.6816,741.8594 C336.6816,741.8594 336.6816,826.3047 351.6816,826.3047 L361.6816,826.3047" fill="none" style="stroke:#181818;stroke-width:1;"/><path d="M205.3145,488.5234 L215.3145,488.5234 C230.3145,488.5234 230.3145,741.8594 245.3145,741.8594 L255.3145,741.8594" fill="none" style="stroke:#181818;stroke-width:1;"/><rect fill="#F1F1F1" height="36.2969" rx="12.5" ry="12.5" style="stroke:#181818;stroke-width:1.5;" width="74.2705" x="255.3145" y="892.6016"/><text fill="#000000" font-family="sans-serif" font-size="14" lengthAdjust="spacing" textLength="54.2705" x="265.3145" y="915.5967">Riesgos</text><rect fill="#F1F1F1" height="36.2969" rx="12.5" ry="12.5" style="stroke:#181818;stroke-width:1.5;" width="320.0088" x="379.585" y="864.4531"/><text fill="#000000" font-family="sans-serif" font-size="14" lengthAdjust="spacing" textLength="300.0088" x="389.585" y="887.4482">Falta de dispositivos o conexi&#243;n en el local</text><path d="M329.585,910.75 L339.585,910.75 C354.585,910.75 354.585,882.6016 369.585,882.6016 L379.585,882.6016" fill="none" style="stroke:#181818;stroke-width:1;"/><rect fill="#F1F1F1" height="36.2969" rx="12.5" ry="12.5" style="stroke:#181818;stroke-width:1.5;" width="263.332" x="379.585" y="920.75"/><text fill="#000000" font-family="sans-serif" font-size="14" lengthAdjust="spacing" textLength="243.332" x="389.585" y="943.7451">Resistencia al cambio del personal</text><path d="M329.585,910.75 L339.585,910.75 C354.585,910.75 354.585,938.8984 369.585,938.8984 L379.585,938.8984" fill="none" style="stroke:#181818;stroke-width:1;"/><path d="M205.3145,488.5234 L215.3145,488.5234 C230.3145,488.5234 230.3145,910.75 245.3145,910.75 L255.3145,910.75" fill="none" style="stroke:#181818;stroke-width:1;"/><!--SRC=[LLBDJXj13BxlKrX8bI1LQ0ZGLZbH25HAIOiWv6vcdQtHx7WxFn7fs_00FLGyGbwitic6qCDAipF-VlpPPo6YZpMxiiQcwC6DbpAPA2FOkxHmdiZ138ti5RqUp3dm-iNfiGTVAhRy6prOX8f2R1-W96Yev582A2xYhqH-_GS3M35eAMJaBQa0Uo3lnLC0j12bLgQLWgAdIe_h5r-Iwm1ZhZXYfwRKdXhnKP4gjrI8yfUCdh4jX_kGz2mTDD7whxI5hsRo_GK-afSFtOyOTcz-BIifmO8TsfRnEnaAN6BP-Pbbjzj6_VgvqSSwOxH4jP8cmQ6Hm96NaZ5pycqaffL2pIoyjfYJOgeRqSQoO6lFccHLX5sb4QdAQjif9Wrh_HpPuCRDb1x5R-P0JmrvDMyOrOa5i-aaZmwj-5p__dZm3cZ1fYiKnQ3wt3JVFsrVkydyJ3KwsKwj2trdG6q5Tj1WGtPd1GBvfRABUWvA71PeJBST_rcwPGfLntw5DhQUt-OMG3GlHqyPh2afFEzHvoTmY9iMT8CCrWyiMKBx2TAExenqgRl5BcuikdW_lTOSVM1nS7Gu70nF3u_txtHS4_q6Hp0OZau_ZOOdC1tFe7q-AFQ_tbn3aEHDDXSzFwIe-8DYWak4s-GYrpI27msvoVZRzW8ktPAzk7OjYibykYluUD8_vmXtcfBkn7nQZ6c1oKP562bru2EudrtrFnVNwAg4bNAJAov4UVrg12vP-my0]--></g></svg>