<svg xmlns="http://www.w3.org/2000/svg" xmlns:xlink="http://www.w3.org/1999/xlink" contentStyleType="text/css" data-diagram-type="MINDMAP" height="641px" preserveAspectRatio="none" style="width:1281px;height:641px;background:#FFFFFF;" version="1.1" viewBox="0 0 1281 641" width="1281px" zoomAndPan="magnify"><defs/><g><rect fill="#FF0000" height="36.2969" rx="12.5" ry="12.5" style="stroke:#181818;stroke-width:1.5;" width="147.3262" x="520.8359" y="301.4844"/><text fill="#000000" font-family="sans-serif" font-size="14" lengthAdjust="spacing" textLength="122.876" x="530.8359" y="324.4795">AmeriCity Builder</text><rect fill="#2F29D8" height="36.2969" rx="12.5" ry="12.5" style="stroke:#181818;stroke-width:1.5;" width="186.3184" x="718.1621" y="132.5938"/><text fill="#000000" font-family="sans-serif" font-size="14" lengthAdjust="spacing" textLength="161.8682" x="728.1621" y="155.5889">Ocio y Entretenimiento</text><rect fill="#2F29D8" height="36.2969" rx="12.5" ry="12.5" style="stroke:#181818;stroke-width:1.5;" width="121.4521" x="954.4805" y="48.1484"/><text fill="#000000" font-family="sans-serif" font-size="14" lengthAdjust="spacing" textLength="101.4521" x="964.4805" y="71.1436">Mega Estadios</text><rect fill="#2F29D8" height="36.2969" rx="12.5" ry="12.5" style="stroke:#181818;stroke-width:1.5;" width="143.3955" x="1125.9326" y="20"/><text fill="#000000" font-family="sans-serif" font-size="14" lengthAdjust="spacing" textLength="123.3955" x="1135.9326" y="42.9951">Futbol Americano</text><path d="M1075.9326,66.2969 L1085.9326,66.2969 C1100.9326,66.2969 1100.9326,38.1484 1115.9326,38.1484 L1125.9326,38.1484" fill="none" style="stroke:#181818;stroke-width:1;"/><rect fill="#2F29D8" height="36.2969" rx="12.5" ry="12.5" style="stroke:#181818;stroke-width:1.5;" width="79.3359" x="1125.9326" y="76.2969"/><text fill="#000000" font-family="sans-serif" font-size="14" lengthAdjust="spacing" textLength="59.3359" x="1135.9326" y="99.292">Baseball</text><path d="M1075.9326,66.2969 L1085.9326,66.2969 C1100.9326,66.2969 1100.9326,94.4453 1115.9326,94.4453 L1125.9326,94.4453" fill="none" style="stroke:#181818;stroke-width:1;"/><path d="M904.4805,150.7422 L914.4805,150.7422 C929.4805,150.7422 929.4805,66.2969 944.4805,66.2969 L954.4805,66.2969" fill="none" style="stroke:#181818;stroke-width:1;"/><rect fill="#2F29D8" height="36.2969" rx="12.5" ry="12.5" style="stroke:#181818;stroke-width:1.5;" width="124.4395" x="954.4805" y="188.8906"/><text fill="#000000" font-family="sans-serif" font-size="14" lengthAdjust="spacing" textLength="104.4395" x="964.4805" y="211.8857">Zonas abiertas</text><rect fill="#2F29D8" height="36.2969" rx="12.5" ry="12.5" style="stroke:#181818;stroke-width:1.5;" width="65.0693" x="1128.9199" y="132.5938"/><text fill="#000000" font-family="sans-serif" font-size="14" lengthAdjust="spacing" textLength="45.0693" x="1138.9199" y="155.5889">Playas</text><path d="M1078.9199,207.0391 L1088.9199,207.0391 C1103.9199,207.0391 1103.9199,150.7422 1118.9199,150.7422 L1128.9199,150.7422" fill="none" style="stroke:#181818;stroke-width:1;"/><rect fill="#2F29D8" height="36.2969" rx="12.5" ry="12.5" style="stroke:#181818;stroke-width:1.5;" width="131.3711" x="1128.9199" y="188.8906"/><text fill="#000000" font-family="sans-serif" font-size="14" lengthAdjust="spacing" textLength="111.3711" x="1138.9199" y="211.8857">Campos de Golf</text><path d="M1078.9199,207.0391 L1088.9199,207.0391 C1103.9199,207.0391 1103.9199,207.0391 1118.9199,207.0391 L1128.9199,207.0391" fill="none" style="stroke:#181818;stroke-width:1;"/><rect fill="#2F29D8" height="36.2969" rx="12.5" ry="12.5" style="stroke:#181818;stroke-width:1.5;" width="75.0498" x="1128.9199" y="245.1875"/><text fill="#000000" font-family="sans-serif" font-size="14" lengthAdjust="spacing" textLength="55.0498" x="1138.9199" y="268.1826">Marinas</text><path d="M1078.9199,207.0391 L1088.9199,207.0391 C1103.9199,207.0391 1103.9199,263.3359 1118.9199,263.3359 L1128.9199,263.3359" fill="none" style="stroke:#181818;stroke-width:1;"/><path d="M904.4805,150.7422 L914.4805,150.7422 C929.4805,150.7422 929.4805,207.0391 944.4805,207.0391 L954.4805,207.0391" fill="none" style="stroke:#181818;stroke-width:1;"/><path d="M668.1621,319.6328 L678.1621,319.6328 C693.1621,319.6328 693.1621,150.7422 708.1621,150.7422 L718.1621,150.7422" fill="none" style="stroke:#181818;stroke-width:1;"/><rect fill="#D5D025" height="36.2969" rx="12.5" ry="12.5" style="stroke:#181818;stroke-width:1.5;" width="98.2441" x="718.1621" y="442.2266"/><text fill="#000000" font-family="sans-serif" font-size="14" lengthAdjust="spacing" textLength="73.7939" x="728.1621" y="465.2217">Comercios</text><rect fill="#D5D025" height="36.2969" rx="12.5" ry="12.5" style="stroke:#181818;stroke-width:1.5;" width="82.4941" x="866.4063" y="385.9297"/><text fill="#000000" font-family="sans-serif" font-size="14" lengthAdjust="spacing" textLength="62.4941" x="876.4063" y="408.9248">Compras</text><rect fill="#D5D025" height="36.2969" rx="12.5" ry="12.5" style="stroke:#181818;stroke-width:1.5;" width="79.7734" x="998.9004" y="301.4844"/><text fill="#000000" font-family="sans-serif" font-size="14" lengthAdjust="spacing" textLength="59.7734" x="1008.9004" y="324.4795">Walmart</text><path d="M948.9004,404.0781 L958.9004,404.0781 C973.9004,404.0781 973.9004,319.6328 988.9004,319.6328 L998.9004,319.6328" fill="none" style="stroke:#181818;stroke-width:1;"/><rect fill="#D5D025" height="36.2969" rx="12.5" ry="12.5" style="stroke:#181818;stroke-width:1.5;" width="67.3867" x="998.9004" y="357.7813"/><text fill="#000000" font-family="sans-serif" font-size="14" lengthAdjust="spacing" textLength="47.3867" x="1008.9004" y="380.7764">Costco</text><path d="M948.9004,404.0781 L958.9004,404.0781 C973.9004,404.0781 973.9004,375.9297 988.9004,375.9297 L998.9004,375.9297" fill="none" style="stroke:#181818;stroke-width:1;"/><rect fill="#D5D025" height="36.2969" rx="12.5" ry="12.5" style="stroke:#181818;stroke-width:1.5;" width="78.3926" x="998.9004" y="414.0781"/><text fill="#000000" font-family="sans-serif" font-size="14" lengthAdjust="spacing" textLength="58.3926" x="1008.9004" y="437.0732">Buccees</text><path d="M948.9004,404.0781 L958.9004,404.0781 C973.9004,404.0781 973.9004,432.2266 988.9004,432.2266 L998.9004,432.2266" fill="none" style="stroke:#181818;stroke-width:1;"/><rect fill="#D5D025" height="36.2969" rx="12.5" ry="12.5" style="stroke:#181818;stroke-width:1.5;" width="93.0898" x="998.9004" y="470.375"/><text fill="#000000" font-family="sans-serif" font-size="14" lengthAdjust="spacing" textLength="73.0898" x="1008.9004" y="493.3701">Strip Malls</text><path d="M948.9004,404.0781 L958.9004,404.0781 C973.9004,404.0781 973.9004,488.5234 988.9004,488.5234 L998.9004,488.5234" fill="none" style="stroke:#181818;stroke-width:1;"/><path d="M816.4063,460.375 L826.4063,460.375 C841.4063,460.375 841.4063,404.0781 856.4063,404.0781 L866.4063,404.0781" fill="none" style="stroke:#181818;stroke-width:1;"/><rect fill="#D5D025" height="36.2969" rx="12.5" ry="12.5" style="stroke:#181818;stroke-width:1.5;" width="113.1807" x="866.4063" y="554.8203"/><text fill="#000000" font-family="sans-serif" font-size="14" lengthAdjust="spacing" textLength="93.1807" x="876.4063" y="577.8154">Restaurantes</text><rect fill="#D5D025" height="36.2969" rx="12.5" ry="12.5" style="stroke:#181818;stroke-width:1.5;" width="116.8857" x="1029.5869" y="526.6719"/><text fill="#000000" font-family="sans-serif" font-size="14" lengthAdjust="spacing" textLength="96.8857" x="1039.5869" y="549.667">Estilo "To-Go"</text><path d="M979.5869,572.9688 L989.5869,572.9688 C1004.5869,572.9688 1004.5869,544.8203 1019.5869,544.8203 L1029.5869,544.8203" fill="none" style="stroke:#181818;stroke-width:1;"/><rect fill="#D5D025" height="36.2969" rx="12.5" ry="12.5" style="stroke:#181818;stroke-width:1.5;" width="140.1074" x="1029.5869" y="582.9688"/><text fill="#000000" font-family="sans-serif" font-size="14" lengthAdjust="spacing" textLength="120.1074" x="1039.5869" y="605.9639">Servicio de mesa</text><path d="M979.5869,572.9688 L989.5869,572.9688 C1004.5869,572.9688 1004.5869,601.1172 1019.5869,601.1172 L1029.5869,601.1172" fill="none" style="stroke:#181818;stroke-width:1;"/><path d="M816.4063,460.375 L826.4063,460.375 C841.4063,460.375 841.4063,572.9688 856.4063,572.9688 L866.4063,572.9688" fill="none" style="stroke:#181818;stroke-width:1;"/><path d="M668.1621,319.6328 L678.1621,319.6328 C693.1621,319.6328 693.1621,460.375 708.1621,460.375 L718.1621,460.375" fill="none" style="stroke:#181818;stroke-width:1;"/><rect fill="#FFFFFF" height="36.2969" rx="12.5" ry="12.5" style="stroke:#181818;stroke-width:1.5;" width="173.9795" x="296.8564" y="76.2969"/><text fill="#000000" font-family="sans-serif" font-size="14" lengthAdjust="spacing" textLength="149.5293" x="306.8564" y="99.292">Servicios Ciudadanos</text><rect fill="#FFFFFF" height="36.2969" rx="12.5" ry="12.5" style="stroke:#181818;stroke-width:1.5;" width="55.916" x="190.9404" y="20"/><text fill="#000000" font-family="sans-serif" font-size="14" lengthAdjust="spacing" textLength="35.916" x="200.9404" y="42.9951">Agua</text><path d="M296.8564,94.4453 L286.8564,94.4453 C271.8564,94.4453 271.8564,38.1484 256.8564,38.1484 L246.8564,38.1484" fill="none" style="stroke:#181818;stroke-width:1;"/><rect fill="#FFFFFF" height="36.2969" rx="12.5" ry="12.5" style="stroke:#181818;stroke-width:1.5;" width="102.1201" x="144.7363" y="76.2969"/><text fill="#000000" font-family="sans-serif" font-size="14" lengthAdjust="spacing" textLength="82.1201" x="154.7363" y="99.292">Electricidad</text><path d="M296.8564,94.4453 L286.8564,94.4453 C271.8564,94.4453 271.8564,94.4453 256.8564,94.4453 L246.8564,94.4453" fill="none" style="stroke:#181818;stroke-width:1;"/><rect fill="#FFFFFF" height="36.2969" rx="12.5" ry="12.5" style="stroke:#181818;stroke-width:1.5;" width="112.5996" x="134.2568" y="132.5938"/><text fill="#000000" font-family="sans-serif" font-size="14" lengthAdjust="spacing" textLength="92.5996" x="144.2568" y="155.5889">Saneamiento</text><path d="M296.8564,94.4453 L286.8564,94.4453 C271.8564,94.4453 271.8564,150.7422 256.8564,150.7422 L246.8564,150.7422" fill="none" style="stroke:#181818;stroke-width:1;"/><path d="M520.8359,319.6328 L510.8359,319.6328 C495.8359,319.6328 495.8359,94.4453 480.8359,94.4453 L470.8359,94.4453" fill="none" style="stroke:#181818;stroke-width:1;"/><rect fill="#FFBBCC" height="36.2969" rx="12.5" ry="12.5" style="stroke:#181818;stroke-width:1.5;" width="100.8145" x="370.0215" y="385.9297"/><text fill="#000000" font-family="sans-serif" font-size="14" lengthAdjust="spacing" textLength="76.3643" x="380.0215" y="408.9248">Transporte</text><rect fill="#FFBBCC" height="36.2969" rx="12.5" ry="12.5" style="stroke:#181818;stroke-width:1.5;" width="111.6357" x="208.3857" y="273.3359"/><text fill="#000000" font-family="sans-serif" font-size="14" lengthAdjust="spacing" textLength="91.6357" x="218.3857" y="296.3311">Tipos de v&#237;as</text><rect fill="#FFBBCC" height="36.2969" rx="12.5" ry="12.5" style="stroke:#181818;stroke-width:1.5;" width="148.3857" x="10" y="188.8906"/><text fill="#000000" font-family="sans-serif" font-size="14" lengthAdjust="spacing" textLength="128.3857" x="20" y="211.8857">Calles suburbanas</text><path d="M208.3857,291.4844 L198.3857,291.4844 C183.3857,291.4844 183.3857,207.0391 168.3857,207.0391 L158.3857,207.0391" fill="none" style="stroke:#181818;stroke-width:1;"/><rect fill="#FFBBCC" height="36.2969" rx="12.5" ry="12.5" style="stroke:#181818;stroke-width:1.5;" width="73.457" x="84.9287" y="245.1875"/><text fill="#000000" font-family="sans-serif" font-size="14" lengthAdjust="spacing" textLength="53.457" x="94.9287" y="268.1826">Stroads</text><path d="M208.3857,291.4844 L198.3857,291.4844 C183.3857,291.4844 183.3857,263.3359 168.3857,263.3359 L158.3857,263.3359" fill="none" style="stroke:#181818;stroke-width:1;"/><rect fill="#FFBBCC" height="36.2969" rx="12.5" ry="12.5" style="stroke:#181818;stroke-width:1.5;" width="93.9375" x="64.4482" y="301.4844"/><text fill="#000000" font-family="sans-serif" font-size="14" lengthAdjust="spacing" textLength="73.9375" x="74.4482" y="324.4795">Autopistas</text><path d="M208.3857,291.4844 L198.3857,291.4844 C183.3857,291.4844 183.3857,319.6328 168.3857,319.6328 L158.3857,319.6328" fill="none" style="stroke:#181818;stroke-width:1;"/><rect fill="#FFBBCC" height="36.2969" rx="12.5" ry="12.5" style="stroke:#181818;stroke-width:1.5;" width="86.6436" x="71.7422" y="357.7813"/><text fill="#000000" font-family="sans-serif" font-size="14" lengthAdjust="spacing" textLength="66.6436" x="81.7422" y="380.7764">Freeways</text><path d="M208.3857,291.4844 L198.3857,291.4844 C183.3857,291.4844 183.3857,375.9297 168.3857,375.9297 L158.3857,375.9297" fill="none" style="stroke:#181818;stroke-width:1;"/><path d="M370.0215,404.0781 L360.0215,404.0781 C345.0215,404.0781 345.0215,291.4844 330.0215,291.4844 L320.0215,291.4844" fill="none" style="stroke:#181818;stroke-width:1;"/><rect fill="#FFBBCC" height="36.2969" rx="12.5" ry="12.5" style="stroke:#181818;stroke-width:1.5;" width="69.3281" x="250.6934" y="498.5234"/><text fill="#000000" font-family="sans-serif" font-size="14" lengthAdjust="spacing" textLength="49.3281" x="260.6934" y="521.5186">Medios</text><rect fill="#FFBBCC" height="36.2969" rx="12.5" ry="12.5" style="stroke:#181818;stroke-width:1.5;" width="143.874" x="56.8193" y="414.0781"/><text fill="#000000" font-family="sans-serif" font-size="14" lengthAdjust="spacing" textLength="123.874" x="66.8193" y="437.0732">Coches peque&#241;os</text><path d="M250.6934,516.6719 L240.6934,516.6719 C225.6934,516.6719 225.6934,432.2266 210.6934,432.2266 L200.6934,432.2266" fill="none" style="stroke:#181818;stroke-width:1;"/><rect fill="#FFBBCC" height="36.2969" rx="12.5" ry="12.5" style="stroke:#181818;stroke-width:1.5;" width="132.1572" x="68.5361" y="470.375"/><text fill="#000000" font-family="sans-serif" font-size="14" lengthAdjust="spacing" textLength="112.1572" x="78.5361" y="493.3701">Coches grandes</text><path d="M250.6934,516.6719 L240.6934,516.6719 C225.6934,516.6719 225.6934,488.5234 210.6934,488.5234 L200.6934,488.5234" fill="none" style="stroke:#181818;stroke-width:1;"/><rect fill="#FFBBCC" height="36.2969" rx="12.5" ry="12.5" style="stroke:#181818;stroke-width:1.5;" width="97.916" x="102.7773" y="526.6719"/><text fill="#000000" font-family="sans-serif" font-size="14" lengthAdjust="spacing" textLength="73.4658" x="112.7773" y="549.667">Autobuses</text><path d="M250.6934,516.6719 L240.6934,516.6719 C225.6934,516.6719 225.6934,544.8203 210.6934,544.8203 L200.6934,544.8203" fill="none" style="stroke:#181818;stroke-width:1;"/><rect fill="#FFBBCC" height="36.2969" rx="12.5" ry="12.5" style="stroke:#181818;stroke-width:1.5;" width="96.1387" x="104.5547" y="582.9688"/><text fill="#000000" font-family="sans-serif" font-size="14" lengthAdjust="spacing" textLength="76.1387" x="114.5547" y="605.9639">Monorieles</text><path d="M250.6934,516.6719 L240.6934,516.6719 C225.6934,516.6719 225.6934,601.1172 210.6934,601.1172 L200.6934,601.1172" fill="none" style="stroke:#181818;stroke-width:1;"/><path d="M370.0215,404.0781 L360.0215,404.0781 C345.0215,404.0781 345.0215,516.6719 330.0215,516.6719 L320.0215,516.6719" fill="none" style="stroke:#181818;stroke-width:1;"/><path d="M520.8359,319.6328 L510.8359,319.6328 C495.8359,319.6328 495.8359,404.0781 480.8359,404.0781 L470.8359,404.0781" fill="none" style="stroke:#181818;stroke-width:1;"/><!--SRC=[XLDDJnin4BtxLupe1Hej3H5K44K8iX0aO0iYWKgzJTQJrAhNtleZLLJnatheR-2FTNRZXT93kTbltXlFFC-S-80kLCh82cinyc6jwLYa-vd2fSCAVWg0NKzkfKfb_RJXmFiM1HXZ-MtfR3GojzewUBTOB3Zms4WiqzzW3nQ38tcO12mfRKNkRPayaFt1mOlCaNn3CPcCntdULLQXClyNSCOMRnMFOlGXMIDwSCebgbo5DOoZqf8SZ4RF2O-PacKmxTo2N4M94WqVHwFN9Z8tO-xfCc9xEDTK1iTn5hJ050rXfSW4om_tu8Qbi8Pp4nm5CceJuhpFJdFA7XCBMYASyzzAVgj1UZ29OMxrflYIozcWO_GqHwrRrHThq0FE5Rc0INQhSTsTSwngRaCIN5Yzs605EiKgqNOzSsXyRLqWhgdxazJbJ2NjwkaNyxC6o_bbyk3ZFBevcWwU1cTHfijf3BPMFdJ1YIFwWUlsndss3MwIsV8h9wlfUwIdt_-WFCT6qbyfvz4plBaNrbYdY4jfNSxJ33OVzceUaxaShrtdoMVK5MzGCiZwK7REnh8aIYpkIDNibTOj07V43KMkANGC_YobBMpDR7PXjv8gJKlZMaKUnGdnNgPT5Vmp9jmNrx0YvvKriBSxuANOtUjlpoB19xk2_ZxizOU3_d3_28hf39huZjY-kBq6RwCh2IGxwzGy1awm8ovnXN0NJL0L3U6c9dDvTjK1F7OhvQofUER4vKFnGlYudurLQClbPNWen1ajCEh0Yj9APPP3k9zDiaDnZOPdVScvoOYSbosuzH1CrFeF]--></g></svg>