<svg xmlns="http://www.w3.org/2000/svg" xmlns:xlink="http://www.w3.org/1999/xlink" contentStyleType="text/css" data-diagram-type="DESCRIPTION" height="408px" preserveAspectRatio="none" style="width:3430px;height:408px;background:#FFFFFF;" version="1.1" viewBox="0 0 3430 408" width="3430px" zoomAndPan="magnify"><title>Sistema de Gesti&#243;n de Biblioteca Universitaria - Diagrama de Casos de Uso</title><defs/><g><g class="title" data-source-line="1"><text fill="#000000" font-family="sans-serif" font-size="14" font-weight="bold" lengthAdjust="spacing" textLength="593.6465" x="1411.1768" y="22.9951">Sistema de Gesti&#243;n de Biblioteca Universitaria - Diagrama de Casos de Uso</text></g><!--cluster Sistema Biblioteca--><g class="cluster" data-entity="Sistema Biblioteca" data-source-line="20" data-uid="ent0004" id="cluster_Sistema Biblioteca"><rect fill="none" height="170" rx="2.5" ry="2.5" style="stroke:#181818;stroke-width:1;" width="3417" x="7" y="135.7969"/><text fill="#000000" font-family="sans-serif" font-size="14" font-weight="bold" lengthAdjust="spacing" textLength="146.9521" x="1642.0239" y="150.792">Sistema Biblioteca</text></g><!--cluster Gesti?n de Reservas--><g class="cluster" data-entity="Gesti.n de Reservas" data-source-line="30" data-uid="ent0010" id="cluster_Gesti.n de Reservas"><rect fill="#FFFFE0" height="93" rx="2.5" ry="2.5" style="stroke:#181818;stroke-width:1;" width="572" x="1264" y="183.7969"/><text fill="#000000" font-family="sans-serif" font-size="14" font-weight="bold" lengthAdjust="spacing" textLength="161.5742" x="1469.2129" y="198.792">Gesti&#243;n de Reservas</text></g><!--cluster B?squeda y Consulta--><g class="cluster" data-entity="B.squeda y Consulta" data-source-line="36" data-uid="ent0014" id="cluster_B.squeda y Consulta"><rect fill="#E0FFFF" height="97" rx="2.5" ry="2.5" style="stroke:#181818;stroke-width:1;" width="674" x="31" y="181.7969"/><text fill="#000000" font-family="sans-serif" font-size="14" font-weight="bold" lengthAdjust="spacing" textLength="165.8945" x="285.0527" y="196.792">B&#250;squeda y Consulta</text></g><!--cluster Penalizaciones--><g class="cluster" data-entity="Penalizaciones" data-source-line="42" data-uid="ent0018" id="cluster_Penalizaciones"><rect fill="#FFB6C1" height="89" rx="2.5" ry="2.5" style="stroke:#181818;stroke-width:1;" width="569" x="1860" y="185.7969"/><text fill="#000000" font-family="sans-serif" font-size="14" font-weight="bold" lengthAdjust="spacing" textLength="116.874" x="2086.063" y="200.792">Penalizaciones</text></g><!--cluster Reportes--><g class="cluster" data-entity="Reportes" data-source-line="48" data-uid="ent0022" id="cluster_Reportes"><rect fill="#E6E6FA" height="103" rx="2.5" ry="2.5" style="stroke:#181818;stroke-width:1;" width="513" x="2887" y="178.7969"/><text fill="#000000" font-family="sans-serif" font-size="14" font-weight="bold" lengthAdjust="spacing" textLength="71.3398" x="3107.8301" y="193.792">Reportes</text></g><!--entity UC1--><g class="entity" data-entity="UC1" data-source-line="23" data-uid="ent0005" id="entity_UC1"><ellipse cx="802.8316" cy="239.9632" fill="#ADD8E6" rx="78.8316" ry="18.1663" style="stroke:#00008B;stroke-width:0.5;"/><text fill="#000000" font-family="sans-serif" font-size="14" lengthAdjust="spacing" textLength="127.9141" x="738.8745" y="244.6116">Solicitar pr&#233;stamo</text></g><!--entity UC2--><g class="entity" data-entity="UC2" data-source-line="24" data-uid="ent0006" id="entity_UC2"><ellipse cx="1166.0739" cy="239.6117" fill="#ADD8E6" rx="79.5739" ry="18.3148" style="stroke:#00008B;stroke-width:0.5;"/><text fill="#000000" font-family="sans-serif" font-size="14" lengthAdjust="spacing" textLength="129.6709" x="1101.2384" y="244.2601">Renovar pr&#233;stamo</text></g><!--entity UC3--><g class="entity" data-entity="UC3" data-source-line="25" data-uid="ent0007" id="entity_UC3"><ellipse cx="983.8122" cy="239.5593" fill="#ADD8E6" rx="66.8122" ry="15.7624" style="stroke:#00008B;stroke-width:0.5;"/><text fill="#000000" font-family="sans-serif" font-size="14" lengthAdjust="spacing" textLength="98.2256" x="934.6994" y="244.2077">Devolver libro</text></g><!--entity UC4--><g class="entity" data-entity="UC4" data-source-line="26" data-uid="ent0008" id="entity_UC4"><ellipse cx="2783.0523" cy="239.6073" fill="#ADD8E6" rx="84.5523" ry="19.3105" style="stroke:#00008B;stroke-width:0.5;"/><text fill="#000000" font-family="sans-serif" font-size="14" lengthAdjust="spacing" textLength="141.292" x="2712.4063" y="244.2558">Procesar devoluci&#243;n</text></g><!--entity UC5--><g class="entity" data-entity="UC5" data-source-line="27" data-uid="ent0009" id="entity_UC5"><ellipse cx="2555.8542" cy="239.6677" fill="#ADD8E6" rx="107.3542" ry="23.8708" style="stroke:#00008B;stroke-width:0.5;"/><text fill="#000000" font-family="sans-serif" font-size="14" lengthAdjust="spacing" textLength="192.1445" x="2459.782" y="244.3162">Registrar pr&#233;stamo manual</text></g><!--entity UC6--><g class="entity" data-entity="UC6" data-source-line="31" data-uid="ent0011" id="entity_UC6"><ellipse cx="1531.9253" cy="239.5819" fill="#ADD8E6" rx="66.9253" ry="15.7851" style="stroke:#00008B;stroke-width:0.5;"/><text fill="#000000" font-family="sans-serif" font-size="14" lengthAdjust="spacing" textLength="98.5195" x="1482.6656" y="244.2304">Hacer reserva</text></g><!--entity UC7--><g class="entity" data-entity="UC7" data-source-line="32" data-uid="ent0012" id="entity_UC7"><ellipse cx="1355.1574" cy="239.7283" fill="#ADD8E6" rx="75.1574" ry="17.4315" style="stroke:#00008B;stroke-width:0.5;"/><text fill="#000000" font-family="sans-serif" font-size="14" lengthAdjust="spacing" textLength="119.1094" x="1295.6027" y="244.3768">Cancelar reserva</text></g><!--entity UC8--><g class="entity" data-entity="UC8" data-source-line="33" data-uid="ent0013" id="entity_UC8"><ellipse cx="1727.1833" cy="239.8335" fill="#ADD8E6" rx="93.1833" ry="21.0367" style="stroke:#00008B;stroke-width:0.5;"/><text fill="#000000" font-family="sans-serif" font-size="14" lengthAdjust="spacing" textLength="160.9111" x="1646.7277" y="244.482">Notificar disponibilidad</text></g><!--entity UC9--><g class="entity" data-entity="UC9" data-source-line="37" data-uid="ent0015" id="entity_UC9"><ellipse cx="607.1042" cy="240.0177" fill="#ADD8E6" rx="81.6042" ry="18.7208" style="stroke:#00008B;stroke-width:0.5;"/><text fill="#000000" font-family="sans-serif" font-size="14" lengthAdjust="spacing" textLength="134.4424" x="539.883" y="244.6661">Buscar en cat&#225;logo</text></g><!--entity UC10--><g class="entity" data-entity="UC10" data-source-line="38" data-uid="ent0016" id="entity_UC10"><ellipse cx="386.1381" cy="240.0245" fill="#ADD8E6" rx="104.1381" ry="23.2276" style="stroke:#00008B;stroke-width:0.5;"/><text fill="#000000" font-family="sans-serif" font-size="14" lengthAdjust="spacing" textLength="185.1377" x="293.5693" y="244.6729">Ver historial de pr&#233;stamos</text></g><!--entity UC11--><g class="entity" data-entity="UC11" data-source-line="39" data-uid="ent0017" id="entity_UC11"><ellipse cx="147.1374" cy="239.7243" fill="#ADD8E6" rx="100.1374" ry="22.4275" style="stroke:#00008B;stroke-width:0.5;"/><text fill="#000000" font-family="sans-serif" font-size="14" lengthAdjust="spacing" textLength="176.3604" x="58.9572" y="244.3728">Consultar estado de libro</text></g><!--entity UC12--><g class="entity" data-entity="UC12" data-source-line="43" data-uid="ent0019" id="entity_UC12"><ellipse cx="2140.7594" cy="239.8487" fill="#ADD8E6" rx="68.2594" ry="16.0519" style="stroke:#00008B;stroke-width:0.5;"/><text fill="#000000" font-family="sans-serif" font-size="14" lengthAdjust="spacing" textLength="101.958" x="2089.7804" y="244.4972">Calcular multa</text></g><!--entity UC13--><g class="entity" data-entity="UC13" data-source-line="44" data-uid="ent0020" id="entity_UC13"><ellipse cx="1957.1971" cy="239.8363" fill="#ADD8E6" rx="80.6971" ry="18.5394" style="stroke:#00008B;stroke-width:0.5;"/><text fill="#000000" font-family="sans-serif" font-size="14" lengthAdjust="spacing" textLength="132.3164" x="1891.0389" y="244.4847">Pagar multa online</text></g><!--entity UC14--><g class="entity" data-entity="UC14" data-source-line="45" data-uid="ent0021" id="entity_UC14"><ellipse cx="2329.1707" cy="240.031" fill="#ADD8E6" rx="84.1707" ry="19.2341" style="stroke:#00008B;stroke-width:0.5;"/><text fill="#000000" font-family="sans-serif" font-size="14" lengthAdjust="spacing" textLength="140.4102" x="2258.9656" y="244.6794">Aplicar penalizaci&#243;n</text></g><!--entity UC15--><g class="entity" data-entity="UC15" data-source-line="49" data-uid="ent0023" id="entity_UC15"><ellipse cx="3265.8468" cy="239.6662" fill="#ADD8E6" rx="117.3468" ry="25.8694" style="stroke:#00008B;stroke-width:0.5;"/><text fill="#000000" font-family="sans-serif" font-size="14" lengthAdjust="spacing" textLength="213.6846" x="3159.0046" y="244.3147">Generar reporte de pr&#233;stamos</text></g><!--entity UC16--><g class="entity" data-entity="UC16" data-source-line="50" data-uid="ent0024" id="entity_UC16"><ellipse cx="3008.1433" cy="239.7255" fill="#ADD8E6" rx="105.1433" ry="23.4287" style="stroke:#00008B;stroke-width:0.5;"/><text fill="#000000" font-family="sans-serif" font-size="14" lengthAdjust="spacing" textLength="187.332" x="2914.4773" y="244.374">Generar reporte de multas</text></g><!--entity EST--><g class="entity" data-entity="EST" data-source-line="16" data-uid="ent0002" id="entity_EST"><ellipse cx="983.9165" cy="59.2969" fill="#FFB6C1" rx="16" ry="16" style="stroke:#FF8C00;stroke-width:0.5;"/><path d="M983.9165,79.2969 C987.9165,79.2969 990.9165,79.2969 994.9165,75.2969 C1002.9165,75.2969 1010.9165,83.2969 1010.9165,91.2969 L1010.9165,95.2969 C1010.9165,99.2969 1006.9165,103.2969 1002.9165,103.2969 L964.9165,103.2969 C960.9165,103.2969 956.9165,99.2969 956.9165,95.2969 L956.9165,91.2969 C956.9165,83.2969 964.9165,75.2969 972.9165,75.2969 C976.9165,79.2969 979.9165,79.2969 983.9165,79.2969" fill="#FFB6C1" style="stroke:#FF8C00;stroke-width:0.5;"/><text fill="#000000" font-family="sans-serif" font-size="14" lengthAdjust="spacing" textLength="74.833" x="946.5" y="116.792">Estudiante</text></g><!--entity SYS--><g class="entity" data-entity="SYS" data-source-line="17" data-uid="ent0003" id="entity_SYS"><ellipse cx="1934.1948" cy="59.2969" fill="#D3D3D3" rx="16" ry="16" style="stroke:#FF8C00;stroke-width:0.5;"/><path d="M1934.1948,79.2969 C1938.1948,79.2969 1941.1948,79.2969 1945.1948,75.2969 C1953.1948,75.2969 1961.1948,83.2969 1961.1948,91.2969 L1961.1948,95.2969 C1961.1948,99.2969 1957.1948,103.2969 1953.1948,103.2969 L1915.1948,103.2969 C1911.1948,103.2969 1907.1948,99.2969 1907.1948,95.2969 L1907.1948,91.2969 C1907.1948,83.2969 1915.1948,75.2969 1923.1948,75.2969 C1927.1948,79.2969 1930.1948,79.2969 1934.1948,79.2969" fill="#D3D3D3" style="stroke:#FF8C00;stroke-width:0.5;"/><text fill="#000000" font-family="sans-serif" font-size="14" lengthAdjust="spacing" textLength="56.3896" x="1906" y="116.792">Sistema</text></g><!--entity PROF--><g class="entity" data-entity="PROF" data-source-line="54" data-uid="ent0025" id="entity_PROF"><ellipse cx="985.9604" cy="342.2969" fill="#F08080" rx="16" ry="16" style="stroke:#FF8C00;stroke-width:0.5;"/><path d="M985.9604,362.2969 C989.9604,362.2969 992.9604,362.2969 996.9604,358.2969 C1004.9604,358.2969 1012.9604,366.2969 1012.9604,374.2969 L1012.9604,378.2969 C1012.9604,382.2969 1008.9604,386.2969 1004.9604,386.2969 L966.9604,386.2969 C962.9604,386.2969 958.9604,382.2969 958.9604,378.2969 L958.9604,374.2969 C958.9604,366.2969 966.9604,358.2969 974.9604,358.2969 C978.9604,362.2969 981.9604,362.2969 985.9604,362.2969" fill="#F08080" style="stroke:#FF8C00;stroke-width:0.5;"/><text fill="#000000" font-family="sans-serif" font-size="14" lengthAdjust="spacing" textLength="57.9209" x="957" y="399.792">Profesor</text></g><!--entity BIB--><g class="entity" data-entity="BIB" data-source-line="55" data-uid="ent0026" id="entity_BIB"><ellipse cx="2783.1577" cy="342.2969" fill="#FFA07A" rx="16" ry="16" style="stroke:#FF8C00;stroke-width:0.5;"/><path d="M2783.1577,362.2969 C2787.1577,362.2969 2790.1577,362.2969 2794.1577,358.2969 C2802.1577,358.2969 2810.1577,366.2969 2810.1577,374.2969 L2810.1577,378.2969 C2810.1577,382.2969 2806.1577,386.2969 2802.1577,386.2969 L2764.1577,386.2969 C2760.1577,386.2969 2756.1577,382.2969 2756.1577,378.2969 L2756.1577,374.2969 C2756.1577,366.2969 2764.1577,358.2969 2772.1577,358.2969 C2776.1577,362.2969 2779.1577,362.2969 2783.1577,362.2969" fill="#FFA07A" style="stroke:#FF8C00;stroke-width:0.5;"/><text fill="#000000" font-family="sans-serif" font-size="14" lengthAdjust="spacing" textLength="87.3154" x="2739.5" y="399.792">Bibliotecario</text></g><g class="entity" data-entity="GMN52" data-source-line="87" data-uid="ent0053" id="entity_GMN52"><path d="M1057,344.2969 L1057,384.5625 A0,0 0 0 0 1057,384.5625 L1274.8345,384.5625 A0,0 0 0 0 1274.8345,384.5625 L1274.8345,354.2969 L1264.8345,344.2969 L1170,344.2969 L1166,258.3469 L1162,344.2969 L1057,344.2969 A0,0 0 0 0 1057,344.2969" fill="#FEFFDD" style="stroke:#181818;stroke-width:0.5;"/><path d="M1264.8345,344.2969 L1264.8345,354.2969 L1274.8345,354.2969 L1264.8345,344.2969" fill="#FEFFDD" style="stroke:#181818;stroke-width:0.5;"/><text fill="#000000" font-family="sans-serif" font-size="13" lengthAdjust="spacing" textLength="154.5591" x="1063" y="361.3638">M&#225;ximo 2 renovaciones</text><text fill="#000000" font-family="sans-serif" font-size="13" lengthAdjust="spacing" textLength="196.8345" x="1063" y="376.4966">Si no hay reservas pendientes</text></g><g class="entity" data-entity="GMN55" data-source-line="92" data-uid="ent0056" id="entity_GMN55"><path d="M680,344.2969 L680,384.5625 A0,0 0 0 0 680,384.5625 L921.7207,384.5625 A0,0 0 0 0 921.7207,384.5625 L921.7207,354.2969 L911.7207,344.2969 L805.32,344.2969 L802.72,257.8269 L797.32,344.2969 L680,344.2969 A0,0 0 0 0 680,344.2969" fill="#FEFFDD" style="stroke:#181818;stroke-width:0.5;"/><path d="M911.7207,344.2969 L911.7207,354.2969 L921.7207,354.2969 L911.7207,344.2969" fill="#FEFFDD" style="stroke:#181818;stroke-width:0.5;"/><text fill="#000000" font-family="sans-serif" font-size="13" lengthAdjust="spacing" textLength="220.7207" x="686" y="361.3638">Estudiantes: max 3 libros, 14 d&#237;as</text><text fill="#000000" font-family="sans-serif" font-size="13" lengthAdjust="spacing" textLength="213.0146" x="686" y="376.4966">Profesores: max 5 libros, 30 d&#237;as</text></g><g class="entity" data-entity="GMN58" data-source-line="97" data-uid="ent0059" id="entity_GMN58"><path d="M2057.5,344.2969 L2057.5,384.5625 A0,0 0 0 0 2057.5,384.5625 L2224.6992,384.5625 A0,0 0 0 0 2224.6992,384.5625 L2224.6992,354.2969 L2214.6992,344.2969 L2145,344.2969 L2141,255.8169 L2137,344.2969 L2057.5,344.2969 A0,0 0 0 0 2057.5,344.2969" fill="#FEFFDD" style="stroke:#181818;stroke-width:0.5;"/><path d="M2214.6992,344.2969 L2214.6992,354.2969 L2224.6992,354.2969 L2214.6992,344.2969" fill="#FEFFDD" style="stroke:#181818;stroke-width:0.5;"/><text fill="#000000" font-family="sans-serif" font-size="13" lengthAdjust="spacing" textLength="146.1992" x="2063.5" y="361.3638">Estudiantes: &#8364;0.50/d&#237;a</text><text fill="#000000" font-family="sans-serif" font-size="13" lengthAdjust="spacing" textLength="138.4932" x="2063.5" y="376.4966">Profesores: &#8364;0.30/d&#237;a</text></g><!--link EST to UC1--><g class="link" data-entity-1="EST" data-entity-2="UC1" data-source-line="57" data-uid="lnk27" id="link_EST_UC1"><path d="M946.26,99.1169 C931.13,106.7669 913.99,116.6069 900,127.7969 C864.62,156.0869 835.3045,193.454 818.4145,216.824" fill="none" id="EST-to-UC1" style="stroke:#00008B;stroke-width:1;"/><polygon fill="#00008B" points="814.9,221.6869,823.4138,216.7355,817.8288,217.6344,816.9299,212.0495,814.9,221.6869" style="stroke:#00008B;stroke-width:1;"/></g><!--link EST to UC2--><g class="link" data-entity-1="EST" data-entity-2="UC2" data-source-line="58" data-uid="lnk28" id="link_EST_UC2"><path d="M1021.77,98.8369 C1037.19,106.5069 1054.72,116.4369 1069,127.7969 C1104.25,155.8369 1133.3681,192.922 1150.3181,216.402" fill="none" id="EST-to-UC2" style="stroke:#00008B;stroke-width:1;"/><polygon fill="#00008B" points="1153.83,221.2669,1151.8054,211.6284,1150.9034,217.2128,1145.3189,216.3109,1153.83,221.2669" style="stroke:#00008B;stroke-width:1;"/></g><!--link EST to UC3--><g class="link" data-entity-1="EST" data-entity-2="UC3" data-source-line="59" data-uid="lnk29" id="link_EST_UC3"><path d="M984,120.1769 C984,153.2869 984,193.6769 984,217.4369" fill="none" id="EST-to-UC3" style="stroke:#00008B;stroke-width:1;"/><polygon fill="#00008B" points="984,223.4369,988,214.4369,984,218.4369,980,214.4369,984,223.4369" style="stroke:#00008B;stroke-width:1;"/></g><!--link EST to UC6--><g class="link" data-entity-1="EST" data-entity-2="UC6" data-source-line="60" data-uid="lnk30" id="link_EST_UC6"><path d="M1021.51,82.1669 C1118.51,82.4169 1375.17,87.0169 1448,127.7969 C1487.43,149.8769 1511.5593,193.4821 1523.0593,218.3221" fill="none" id="EST-to-UC6" style="stroke:#00008B;stroke-width:1;"/><polygon fill="#00008B" points="1525.58,223.7669,1525.4288,213.9192,1523.4794,219.2295,1518.169,217.2802,1525.58,223.7669" style="stroke:#00008B;stroke-width:1;"/></g><!--link EST to UC7--><g class="link" data-entity-1="EST" data-entity-2="UC7" data-source-line="61" data-uid="lnk31" id="link_EST_UC7"><path d="M1021.77,84.5569 C1090.8,89.2569 1234.1,101.9069 1276,127.7969 C1312.62,150.4269 1334.6695,191.4912 1345.7595,216.5212" fill="none" id="EST-to-UC7" style="stroke:#00008B;stroke-width:1;"/><polygon fill="#00008B" points="1348.19,222.0069,1348.2013,212.158,1346.1646,217.4355,1340.8871,215.3987,1348.19,222.0069" style="stroke:#00008B;stroke-width:1;"/></g><!--link EST to UC9--><g class="link" data-entity-1="EST" data-entity-2="UC9" data-source-line="62" data-uid="lnk32" id="link_EST_UC9"><path d="M946.46,84.7269 C877.82,89.7269 735.27,102.8369 693,127.7969 C655.21,150.1069 630.7638,190.5657 617.9638,215.8057" fill="none" id="EST-to-UC9" style="stroke:#00008B;stroke-width:1;"/><polygon fill="#00008B" points="615.25,221.1569,622.8881,214.9392,617.5115,216.6975,615.7532,211.3209,615.25,221.1569" style="stroke:#00008B;stroke-width:1;"/></g><!--link EST to UC10--><g class="link" data-entity-1="EST" data-entity-2="UC10" data-source-line="63" data-uid="lnk33" id="link_EST_UC10"><path d="M946.28,82.8469 C848.03,84.7769 586.38,93.0969 508,127.7969 C463.22,147.6169 427.5994,185.8187 406.3794,212.0987" fill="none" id="EST-to-UC10" style="stroke:#00008B;stroke-width:1;"/><polygon fill="#00008B" points="402.61,216.7669,411.3762,212.2775,405.7511,212.8767,405.1519,207.2517,402.61,216.7669" style="stroke:#00008B;stroke-width:1;"/></g><!--link EST to UC11--><g class="link" data-entity-1="EST" data-entity-2="UC11" data-source-line="64" data-uid="lnk34" id="link_EST_UC11"><path d="M946.27,83.1869 C807.15,86.6869 327.69,100.6269 265,127.7969 C220.36,147.1469 185.7894,186.2591 165.7194,212.6791" fill="none" id="EST-to-UC11" style="stroke:#00008B;stroke-width:1;"/><polygon fill="#00008B" points="162.09,217.4569,170.7194,212.7098,165.1145,213.4754,164.349,207.8706,162.09,217.4569" style="stroke:#00008B;stroke-width:1;"/></g><!--link EST to UC13--><g class="link" data-entity-1="EST" data-entity-2="UC13" data-source-line="65" data-uid="lnk35" id="link_EST_UC13"><path d="M1021.61,82.8169 C1176.47,85.1469 1760.3,95.9869 1836,127.7969 C1883.83,147.8969 1921.1752,190.7431 1940.8652,216.6031" fill="none" id="EST-to-UC13" style="stroke:#00008B;stroke-width:1;"/><polygon fill="#00008B" points="1944.5,221.3769,1942.2304,211.7931,1941.471,217.3988,1935.8654,216.6394,1944.5,221.3769" style="stroke:#00008B;stroke-width:1;"/></g><!--link SYS to UC8--><g class="link" data-entity-1="SYS" data-entity-2="UC8" data-source-line="67" data-uid="lnk36" id="link_SYS_UC8"><path d="M1905.98,98.2269 C1891.87,106.5769 1874.69,117.2269 1860,127.7969 C1818.73,157.4669 1778.458,192.3322 1752.808,215.3222" fill="none" id="SYS-to-UC8" style="stroke:#00008B;stroke-width:1;"/><polygon fill="#00008B" points="1748.34,219.3269,1757.7117,216.2986,1752.0633,215.9897,1752.3722,210.3413,1748.34,219.3269" style="stroke:#00008B;stroke-width:1;"/></g><!--link SYS to UC12--><g class="link" data-entity-1="SYS" data-entity-2="UC12" data-source-line="68" data-uid="lnk37" id="link_SYS_UC12"><path d="M1962.07,88.1869 C1988.06,94.6569 2026.83,107.0069 2055,127.7969 C2091.09,154.4269 2116.7926,194.8851 2130.0426,218.4851" fill="none" id="SYS-to-UC12" style="stroke:#00008B;stroke-width:1;"/><polygon fill="#00008B" points="2132.98,223.7169,2132.0618,213.9109,2130.5322,219.357,2125.0861,217.8274,2132.98,223.7169" style="stroke:#00008B;stroke-width:1;"/></g><!--reverse link UC1 to PROF--><g class="link" data-entity-1="UC1" data-entity-2="PROF" data-source-line="70" data-uid="lnk38" id="link_UC1_PROF"><path d="M825.4953,261.4509 C844.0353,277.8409 869.91,298.5769 900,313.7969 C916.56,322.1769 923.6,317.0969 940,325.7969 C945.73,328.8369 951.43,332.6569 956.76,336.6769" fill="none" id="UC1-backto-PROF" style="stroke:#00008B;stroke-width:1;"/><polygon fill="#00008B" points="821,257.4769,825.0936,266.4347,824.7461,260.7885,830.3922,260.441,821,257.4769" style="stroke:#00008B;stroke-width:1;"/></g><!--reverse link UC2 to PROF--><g class="link" data-entity-1="UC2" data-entity-2="PROF" data-source-line="71" data-uid="lnk39" id="link_UC2_PROF"><path d="M1142.0007,261.6118 C1123.1207,277.5118 1097.74,297.3869 1069,313.7969 C1056.89,320.7169 1052.24,319.1169 1040,325.7969 C1031.68,330.3369 1023.08,335.8769 1015.26,341.2869" fill="none" id="UC2-backto-PROF" style="stroke:#00008B;stroke-width:1;"/><polygon fill="#00008B" points="1146.59,257.7469,1137.1293,260.4848,1142.7655,260.9677,1142.2826,266.6039,1146.59,257.7469" style="stroke:#00008B;stroke-width:1;"/></g><!--reverse link UC3 to PROF--><g class="link" data-entity-1="UC3" data-entity-2="PROF" data-source-line="72" data-uid="lnk40" id="link_UC3_PROF"><path d="M984.347,261.8161 C984.627,279.1261 985,302.2269 985.39,325.7869" fill="none" id="UC3-backto-PROF" style="stroke:#00008B;stroke-width:1;"/><polygon fill="#00008B" points="984.25,255.8169,980.3961,264.8804,984.3309,260.8162,988.395,264.751,984.25,255.8169" style="stroke:#00008B;stroke-width:1;"/></g><!--reverse link UC6 to PROF--><g class="link" data-entity-1="UC6" data-entity-2="PROF" data-source-line="73" data-uid="lnk41" id="link_UC6_PROF"><path d="M1516.7169,260.2328 C1502.0769,277.8628 1478.77,301.7769 1448,313.7969 C1363.51,346.8069 1126.15,297.4169 1040,325.7969 C1031.33,328.6569 1022.8,333.3869 1015.18,338.5469" fill="none" id="UC6-backto-PROF" style="stroke:#00008B;stroke-width:1;"/><polygon fill="#00008B" points="1520.55,255.6169,1511.723,259.9854,1517.3557,259.4635,1517.8776,265.0962,1520.55,255.6169" style="stroke:#00008B;stroke-width:1;"/></g><!--reverse link UC7 to PROF--><g class="link" data-entity-1="UC7" data-entity-2="PROF" data-source-line="74" data-uid="lnk42" id="link_UC7_PROF"><path d="M1339.1996,262.0842 C1325.2896,279.6842 1304.4,301.8469 1276,313.7969 C1227.6,334.1669 1089.7,308.8369 1040,325.7969 C1031.36,328.7469 1022.84,333.5169 1015.22,338.6769" fill="none" id="UC7-backto-PROF" style="stroke:#00008B;stroke-width:1;"/><polygon fill="#00008B" points="1342.92,257.3769,1334.2012,261.9576,1339.8197,261.2996,1340.4776,266.9181,1342.92,257.3769" style="stroke:#00008B;stroke-width:1;"/></g><!--reverse link UC9 to PROF--><g class="link" data-entity-1="UC9" data-entity-2="PROF" data-source-line="75" data-uid="lnk43" id="link_UC9_PROF"><path d="M625.0144,262.5606 C640.5244,280.1806 663.31,302.0669 693,313.7969 C744.11,333.9869 888.69,306.1169 940,325.7969 C945.87,328.0469 951.55,331.3569 956.81,335.0869" fill="none" id="UC9-backto-PROF" style="stroke:#00008B;stroke-width:1;"/><polygon fill="#00008B" points="621.05,258.0569,623.9941,267.4554,624.3537,261.81,629.9991,262.1695,621.05,258.0569" style="stroke:#00008B;stroke-width:1;"/></g><!--reverse link UC10 to PROF--><g class="link" data-entity-1="UC10" data-entity-2="PROF" data-source-line="76" data-uid="lnk44" id="link_UC10_PROF"><path d="M417.4898,265.8938 C441.0098,283.4338 472.22,303.3669 508,313.7969 C554.1,327.2269 894.99,309.0669 940,325.7969 C945.89,327.9869 951.59,331.2669 956.85,334.9769" fill="none" id="UC10-backto-PROF" style="stroke:#00008B;stroke-width:1;"/><polygon fill="#00008B" points="412.68,262.3069,417.5034,270.8938,416.6882,265.296,422.286,264.4807,412.68,262.3069" style="stroke:#00008B;stroke-width:1;"/></g><!--reverse link UC11 to PROF--><g class="link" data-entity-1="UC11" data-entity-2="PROF" data-source-line="77" data-uid="lnk45" id="link_UC11_PROF"><path d="M176.4899,265.3785 C199.1299,283.0485 229.64,303.4069 265,313.7969 C336.97,334.9469 869.56,300.0169 940,325.7969 C945.9,327.9569 951.6,331.2169 956.86,334.9269" fill="none" id="UC11-backto-PROF" style="stroke:#00008B;stroke-width:1;"/><polygon fill="#00008B" points="171.76,261.6869,176.3938,270.3775,175.7016,264.7632,181.3159,264.071,171.76,261.6869" style="stroke:#00008B;stroke-width:1;"/></g><!--reverse link UC13 to PROF--><g class="link" data-entity-1="UC13" data-entity-2="PROF" data-source-line="78" data-uid="lnk46" id="link_UC13_PROF"><path d="M1931.6114,261.7001 C1908.7314,279.5701 1874.68,302.7169 1836,313.7969 C1750.96,338.1569 1124.21,298.7269 1040,325.7969 C1031.31,328.5869 1022.77,333.2969 1015.15,338.4569" fill="none" id="UC13-backto-PROF" style="stroke:#00008B;stroke-width:1;"/><polygon fill="#00008B" points="1936.34,258.0069,1926.7849,260.3943,1932.3995,261.0846,1931.7092,266.6991,1936.34,258.0069" style="stroke:#00008B;stroke-width:1;"/></g><!--reverse link UC4 to BIB--><g class="link" data-entity-1="UC4" data-entity-2="BIB" data-source-line="80" data-uid="lnk47" id="link_UC4_BIB"><path d="M2783,265.4069 C2783,282.9369 2783,303.7369 2783,325.7169" fill="none" id="UC4-backto-BIB" style="stroke:#00008B;stroke-width:1;"/><polygon fill="#00008B" points="2783,259.4069,2779,268.4069,2783,264.4069,2787,268.4069,2783,259.4069" style="stroke:#00008B;stroke-width:1;"/></g><!--reverse link UC5 to BIB--><g class="link" data-entity-1="UC5" data-entity-2="BIB" data-source-line="81" data-uid="lnk48" id="link_UC5_BIB"><path d="M2596.5604,265.5515 C2621.3604,280.4815 2650.29,297.4069 2681,313.7969 C2699.93,323.8969 2721.23,334.3669 2739.45,343.0669" fill="none" id="UC5-backto-BIB" style="stroke:#00008B;stroke-width:1;"/><polygon fill="#00008B" points="2591.42,262.4569,2597.0675,270.5257,2595.7036,265.0357,2601.1936,263.6718,2591.42,262.4569" style="stroke:#00008B;stroke-width:1;"/></g><!--reverse link UC14 to BIB--><g class="link" data-entity-1="UC14" data-entity-2="BIB" data-source-line="82" data-uid="lnk49" id="link_UC14_BIB"><path d="M2348.6891,262.8695 C2364.9291,280.0695 2387.92,301.0369 2417,313.7969 C2474.03,338.8169 2655.24,354.3669 2739.34,360.4169" fill="none" id="UC14-backto-BIB" style="stroke:#00008B;stroke-width:1;"/><polygon fill="#00008B" points="2344.57,258.5069,2347.8403,267.7969,2348.0026,262.1424,2353.6571,262.3047,2344.57,258.5069" style="stroke:#00008B;stroke-width:1;"/></g><!--reverse link UC15 to BIB--><g class="link" data-entity-1="UC15" data-entity-2="BIB" data-source-line="83" data-uid="lnk50" id="link_UC15_BIB"><path d="M3225.2609,267.8151 C3198.9209,284.2651 3166.68,302.0369 3131,313.7969 C3025.38,348.6269 2893.77,358.9469 2826.71,362.0069" fill="none" id="UC15-backto-BIB" style="stroke:#00008B;stroke-width:1;"/><polygon fill="#00008B" points="3230.35,264.6369,3220.5975,266.0115,3226.1091,267.2854,3224.8352,272.797,3230.35,264.6369" style="stroke:#00008B;stroke-width:1;"/></g><!--reverse link UC16 to BIB--><g class="link" data-entity-1="UC16" data-entity-2="BIB" data-source-line="84" data-uid="lnk51" id="link_UC16_BIB"><path d="M2973.999,265.9902 C2952.559,281.4102 2927.23,298.4969 2899,313.7969 C2875.8,326.3669 2848.74,338.0769 2826.6,346.9369" fill="none" id="UC16-backto-BIB" style="stroke:#00008B;stroke-width:1;"/><polygon fill="#00008B" points="2978.87,262.4869,2969.2279,264.4945,2974.8108,265.4063,2973.899,270.9892,2978.87,262.4869" style="stroke:#00008B;stroke-width:1;"/></g><!--SRC=[ZPNDRXCn483l-nHME70Xa4sQj4K8gKbBGG8Q9HIfnyckkxNgsC7sfWse5zwaHoGuSUEQD-5967kz6s-ohUXXvUbyddzF33ESaYdJXiw1f9ISKctO-hUmvo6RSIODJO2S2xQaIZC3YW5fasC6cOBYoWYqrFPmhcKKwMic5e0w0ecHQcfMw01kg9Pp6YWNa5n3HWkreea1aV4Go3NwrPHyYmZ-3H7FbCn5Ef9SAlAUPLTco7DQQALAgIeqnw2kAyMHKl9cw_ztso4-vkA2SYvl6fsSAGpPcekYmaphH9iyPI0CRH7Gv6JwYJnnLiPCN9UGhxKZfXTJJvmgMA6XgX0L5pIXvGDrdwURikTQaemAge1JxPHbxLfJoLbYcqOMQlr36vXBv_Xy5DV12HLosO1rwzWnNKgEWq0ucwcIwTMPiP89rMWhjN2Us6dovDwsqmoJLA5RCWUH0_TyVvEl-_YX8QrmIYTKKxK4tVAbB5hcQrNpznOI35qLl7SnsCL681BAOPlStoK_IiCkMM9pPNeX1Pinpb98_Oq3T-Ek8VxX-e_-ajCKo8gCfD0vDr36Frg1Q8f-c6lhYGgIW5dVSvcL3JZSXJzZebTON8dFbTigLHNMvG1q6ZBteQ0NP5DfBuQTZkC7CnfJ0PnzXOH9GQjUsC5locK4FCbjYUT5veNrxYuuXgoaY1IS2Lh2lLtuQC5TCnPLB9lHY_SU37r25rAP8cXOKe6ll2dcK_V4x5GulBce_V-wv_AfxWnyP7VL8i4dT8aBKpbYF3bxKuw6n3TUGfl5e5ZHeE6xeGUdmETIH95TGUtsQ_VUD-Sk2OHUA0o2ytvmFWmXd9n0Y6igj1RPhLQ81y4PknlXbxngjrrAaOqZ47gXC0Y5_L0u38MuKvDgnkF088fxJh8LGg4V2d6bia9TDQXKaS1IavaqHiw9lFIhySFw_fRXrkfYT-q2BQOV5LD6X2HNi2gNYBPJcJAAFmuwmXEnzXgisXUs-HtHBt4Xtf9UyGhrCuB1fkjVO5sKGr92_GhgTJpqc9_kjgE_ttzsdlSxB-pLBVDErVEgqkW_]--></g></svg>