<svg xmlns="http://www.w3.org/2000/svg" xmlns:xlink="http://www.w3.org/1999/xlink" contentStyleType="text/css" data-diagram-type="STATE" height="1260px" preserveAspectRatio="none" style="width:1122px;height:1260px;background:#FFFFFF;" version="1.1" viewBox="0 0 1122 1260" width="1122px" zoomAndPan="magnify"><title>Sistema de Gesti&#243;n de Biblioteca Universitaria - Diagrama de Estados
Ciclo de Vida del Pr&#233;stamo</title><defs/><g><g class="title" data-source-line="1"><text fill="#000000" font-family="sans-serif" font-size="14" font-weight="bold" lengthAdjust="spacing" textLength="551.0654" x="278.6489" y="22.9951">Sistema de Gesti&#243;n de Biblioteca Universitaria - Diagrama de Estados</text><text fill="#000000" font-family="sans-serif" font-size="14" font-weight="bold" lengthAdjust="spacing" textLength="211.5586" x="448.4023" y="39.292">Ciclo de Vida del Pr&#233;stamo</text></g><!--cluster EnCurso--><g class="cluster" data-entity="EnCurso" data-source-line="22" data-uid="ent0003" id="cluster_EnCurso"><path d="M221,127.5938 L647,127.5938 A12.5,12.5 0 0 1 659.5,140.0938 L659.5,148.8906 L208.5,148.8906 L208.5,140.0938 A12.5,12.5 0 0 1 221,127.5938" fill="#ADD8E6"/><rect fill="none" height="902" rx="12.5" ry="12.5" style="stroke:#00008B;stroke-width:0.5;" width="451" x="208.5" y="127.5938"/><line style="stroke:#00008B;stroke-width:0.5;" x1="208.5" x2="659.5" y1="148.8906" y2="148.8906"/><text fill="#000000" font-family="sans-serif" font-size="14" lengthAdjust="spacing" textLength="62.4326" x="402.7837" y="144.5889">En Curso</text></g><g id="EnCurso.Activo"><rect fill="#90EE90" height="78.2031" rx="12.5" ry="12.5" style="stroke:#00008B;stroke-width:0.5;" width="246.4766" x="374.5" y="281.5938"/><line style="stroke:#00008B;stroke-width:0.5;" x1="374.5" x2="620.9766" y1="307.8906" y2="307.8906"/><text fill="#000000" font-family="sans-serif" font-size="14" lengthAdjust="spacing" textLength="43.5039" x="475.9863" y="299.5889">Activo</text><text fill="#000000" font-family="sans-serif" font-size="12" lengthAdjust="spacing" textLength="203.5078" x="379.5" y="324.0293">entry / enviarEmailConfirmacion()</text><text fill="#000000" font-family="sans-serif" font-size="12" lengthAdjust="spacing" textLength="226.4766" x="379.5" y="337.998">entry / actualizarDisponibilidadLibro()</text><text fill="#000000" font-family="sans-serif" font-size="12" lengthAdjust="spacing" textLength="144.6152" x="379.5" y="351.9668">exit / registrarHistorial()</text></g><g id="EnCurso.Renovado"><rect fill="#90EE90" height="64.2344" rx="12.5" ry="12.5" style="stroke:#00008B;stroke-width:0.5;" width="285.2012" x="327" y="567.5938"/><line style="stroke:#00008B;stroke-width:0.5;" x1="327" x2="612.2012" y1="593.8906" y2="593.8906"/><text fill="#000000" font-family="sans-serif" font-size="14" lengthAdjust="spacing" textLength="70.0957" x="434.5527" y="585.5889">Renovado</text><text fill="#000000" font-family="sans-serif" font-size="12" lengthAdjust="spacing" textLength="217.9043" x="332" y="610.0293">entry / extenderFechaVencimiento()</text><text fill="#000000" font-family="sans-serif" font-size="12" lengthAdjust="spacing" textLength="265.2012" x="332" y="623.998">entry / incrementarContadorRenovaciones()</text></g><path d="M237.5,723.5938 L493.3125,723.5938 A12.5,12.5 0 0 1 505.8125,736.0938 L505.8125,782.8281 L225,782.8281 L225,736.0938 A12.5,12.5 0 0 1 237.5,723.5938" fill="#F08080"/><rect fill="none" height="290.2344" rx="12.5" ry="12.5" style="stroke:#00008B;stroke-width:0.5;" width="280.8125" x="225" y="723.5938"/><line style="stroke:#00008B;stroke-width:0.5;" x1="225" x2="505.8125" y1="782.8281" y2="782.8281"/><line style="stroke:#00008B;stroke-width:0.5;" x1="225" x2="505.8125" y1="749.8906" y2="749.8906"/><text fill="#000000" font-family="sans-serif" font-size="14" lengthAdjust="spacing" textLength="56.1025" x="337.355" y="741.5889">Vencido</text><text fill="#000000" font-family="sans-serif" font-size="12" lengthAdjust="spacing" textLength="133.2246" x="230" y="761.0293">entry / calcularMulta()</text><text fill="#000000" font-family="sans-serif" font-size="12" lengthAdjust="spacing" textLength="207.5273" x="230" y="774.998">entry / enviarNotificacionRetraso()</text><g id="EnCurso.Vencido.VencidoNormal"><rect fill="#ADD8E6" height="50" rx="12.5" ry="12.5" style="stroke:#00008B;stroke-width:0.5;" width="127.0029" x="237" y="850.8281"/><line style="stroke:#00008B;stroke-width:0.5;" x1="237" x2="364.0029" y1="877.125" y2="877.125"/><text fill="#000000" font-family="sans-serif" font-size="14" lengthAdjust="spacing" textLength="107.0029" x="247" y="868.8232">VencidoNormal</text></g><g id="EnCurso.Vencido.VencidoCritico"><rect fill="#ADD8E6" height="50" rx="12.5" ry="12.5" style="stroke:#00008B;stroke-width:0.5;" width="121.165" x="240" y="953.8281"/><line style="stroke:#00008B;stroke-width:0.5;" x1="240" x2="361.165" y1="980.125" y2="980.125"/><text fill="#000000" font-family="sans-serif" font-size="14" lengthAdjust="spacing" textLength="101.165" x="250" y="971.8232">VencidoCritico</text></g><ellipse cx="300.5" cy="803.8281" fill="#222222" rx="10" ry="10" style="stroke:#222222;stroke-width:1;"/><!--link *start*Vencido to VencidoNormal--><g class="link" data-entity-1=".start.Vencido" data-entity-2="VencidoNormal" data-source-line="42" data-uid="lnk10" id="link_.start.Vencido_VencidoNormal"><path d="M300.5,813.9781 C300.5,823.2481 300.5,831.9681 300.5,844.6081" fill="none" id="*start*Vencido-to-VencidoNormal" style="stroke:#2F4F4F;stroke-width:1;"/><polygon fill="#2F4F4F" points="300.5,850.6081,304.5,841.6081,300.5,845.6081,296.5,841.6081,300.5,850.6081" style="stroke:#2F4F4F;stroke-width:1;"/></g><!--link VencidoNormal to VencidoCritico--><g class="link" data-entity-1="VencidoNormal" data-entity-2="VencidoCritico" data-source-line="46" data-uid="lnk11" id="link_VencidoNormal_VencidoCritico"><path d="M300.5,901.0181 C300.5,916.8981 300.5,931.5781 300.5,947.4881" fill="none" id="VencidoNormal-to-VencidoCritico" style="stroke:#2F4F4F;stroke-width:1;"/><polygon fill="#2F4F4F" points="300.5,953.4881,304.5,944.4881,300.5,948.4881,296.5,944.4881,300.5,953.4881" style="stroke:#2F4F4F;stroke-width:1;"/><text fill="#000000" font-family="sans-serif" font-size="13" lengthAdjust="spacing" textLength="189.3125" x="301.5" y="931.895">continuar vencido [&gt;30 d&#237;as]</text></g><g class="entity" data-entity="verificarRenovacion" data-uid="ent0009" id="entity_verificarRenovacion"><polygon fill="#F1F1F1" points="405.5,451.5938,417.5,463.5938,405.5,475.5938,393.5,463.5938,405.5,451.5938" style="stroke:#181818;stroke-width:0.5;"/></g><ellipse cx="497.5" cy="172.5938" fill="#222222" rx="10" ry="10" style="stroke:#222222;stroke-width:1;"/><g id="Solicitado"><rect fill="#FFFF00" height="64.2344" rx="12.5" ry="12.5" style="stroke:#00008B;stroke-width:0.5;" width="206.8906" x="676" y="140.5938"/><line style="stroke:#00008B;stroke-width:0.5;" x1="676" x2="882.8906" y1="166.8906" y2="166.8906"/><text fill="#000000" font-family="sans-serif" font-size="14" lengthAdjust="spacing" textLength="68.3389" x="745.2759" y="158.5889">Solicitado</text><text fill="#000000" font-family="sans-serif" font-size="12" lengthAdjust="spacing" textLength="155.6953" x="681" y="183.0293">entry / registrarSolicitud()</text><text fill="#000000" font-family="sans-serif" font-size="12" lengthAdjust="spacing" textLength="186.8906" x="681" y="196.998">entry / verificarDisponibilidad()</text></g><g id="Devuelto"><rect fill="#D3D3D3" height="64.2344" rx="12.5" ry="12.5" style="stroke:#00008B;stroke-width:0.5;" width="230.5039" x="644" y="1107.5938"/><line style="stroke:#00008B;stroke-width:0.5;" x1="644" x2="874.5039" y1="1133.8906" y2="1133.8906"/><text fill="#000000" font-family="sans-serif" font-size="14" lengthAdjust="spacing" textLength="63.1094" x="727.6973" y="1125.5889">Devuelto</text><text fill="#000000" font-family="sans-serif" font-size="12" lengthAdjust="spacing" textLength="121.5645" x="649" y="1150.0293">entry / liberarLibro()</text><text fill="#000000" font-family="sans-serif" font-size="12" lengthAdjust="spacing" textLength="210.5039" x="649" y="1163.998">entry / procesarSiguienteReserva()</text></g><g id="Cancelado"><rect fill="#D3D3D3" height="64.2344" rx="12.5" ry="12.5" style="stroke:#00008B;stroke-width:0.5;" width="195.0781" x="845" y="288.5938"/><line style="stroke:#00008B;stroke-width:0.5;" x1="845" x2="1040.0781" y1="314.8906" y2="314.8906"/><text fill="#000000" font-family="sans-serif" font-size="14" lengthAdjust="spacing" textLength="73.459" x="905.8096" y="306.5889">Cancelado</text><text fill="#000000" font-family="sans-serif" font-size="12" lengthAdjust="spacing" textLength="140.3965" x="850" y="331.0293">entry / liberarReserva()</text><text fill="#000000" font-family="sans-serif" font-size="12" lengthAdjust="spacing" textLength="175.0781" x="850" y="344.998">entry / notificarCancelacion()</text></g><ellipse cx="779.5" cy="69.5938" fill="#222222" rx="10" ry="10" style="stroke:#222222;stroke-width:1;"/><ellipse cx="850.5" cy="1243.5938" fill="none" rx="11" ry="11" style="stroke:#222222;stroke-width:1;"/><ellipse cx="850.5" cy="1243.5938" fill="#222222" rx="6" ry="6" style="stroke:#222222;stroke-width:1;"/><g class="entity" data-entity="GMN2" data-source-line="79" data-uid="ent0003" id="entity_GMN2"><path d="M918,152.5938 L918,168.5938 L883.19,172.5938 L918,176.5938 L918,192.8594 A0,0 0 0 0 918,192.8594 L1115.3633,192.8594 A0,0 0 0 0 1115.3633,192.8594 L1115.3633,162.5938 L1105.3633,152.5938 L918,152.5938 A0,0 0 0 0 918,152.5938" fill="#FEFFDD" style="stroke:#181818;stroke-width:0.5;"/><path d="M1105.3633,152.5938 L1105.3633,162.5938 L1115.3633,162.5938 L1105.3633,152.5938" fill="#FEFFDD" style="stroke:#181818;stroke-width:0.5;"/><text fill="#000000" font-family="sans-serif" font-size="13" lengthAdjust="spacing" textLength="176.3633" x="924" y="169.6606">Estado inicial del pr&#233;stamo</text><text fill="#000000" font-family="sans-serif" font-size="13" lengthAdjust="spacing" textLength="162.4746" x="924" y="184.7935">Pendiente de aprobaci&#243;n</text></g><g class="entity" data-entity="GMN5" data-source-line="84" data-uid="ent0006" id="entity_GMN5"><path d="M6,293.0938 L6,348.4922 A0,0 0 0 0 6,348.4922 L153.06,348.4922 L397.58,458.9438 L161.06,348.4922 L192.5405,348.4922 A0,0 0 0 0 192.5405,348.4922 L192.5405,303.0938 L182.5405,293.0938 L6,293.0938 A0,0 0 0 0 6,293.0938" fill="#FEFFDD" style="stroke:#181818;stroke-width:0.5;"/><path d="M182.5405,293.0938 L182.5405,303.0938 L192.5405,303.0938 L182.5405,293.0938" fill="#FEFFDD" style="stroke:#181818;stroke-width:0.5;"/><text fill="#000000" font-family="sans-serif" font-size="13" lengthAdjust="spacing" textLength="156.3872" x="12" y="310.1606">Decisi&#243;n de renovaci&#243;n:</text><text fill="#000000" font-family="sans-serif" font-size="13" lengthAdjust="spacing" textLength="163.3823" x="12" y="325.2935">- M&#225;ximo 2 renovaciones</text><text fill="#000000" font-family="sans-serif" font-size="13" lengthAdjust="spacing" textLength="165.5405" x="12" y="340.4263">- Sin reservas pendientes</text></g><g class="entity" data-entity="GMN8" data-source-line="90" data-uid="ent0009" id="entity_GMN8"><path d="M248,1112.0938 L248,1167.4922 A0,0 0 0 0 248,1167.4922 L417.2495,1167.4922 A0,0 0 0 0 417.2495,1167.4922 L417.2495,1122.0938 L407.2495,1112.0938 L339.78,1112.0938 L347.79,1013.9338 L331.78,1112.0938 L248,1112.0938 A0,0 0 0 0 248,1112.0938" fill="#FEFFDD" style="stroke:#181818;stroke-width:0.5;"/><path d="M407.2495,1112.0938 L407.2495,1122.0938 L417.2495,1122.0938 L407.2495,1112.0938" fill="#FEFFDD" style="stroke:#181818;stroke-width:0.5;"/><text fill="#000000" font-family="sans-serif" font-size="13" lengthAdjust="spacing" textLength="47.2837" x="254" y="1129.1606">Multas:</text><text fill="#000000" font-family="sans-serif" font-size="13" lengthAdjust="spacing" textLength="148.2495" x="254" y="1144.2935">- Estudiante: &#8364;0.50/d&#237;a</text><text fill="#000000" font-family="sans-serif" font-size="13" lengthAdjust="spacing" textLength="132.5454" x="254" y="1159.4263">- Profesor: &#8364;0.30/d&#237;a</text></g><g class="entity" data-entity="GMN11" data-source-line="96" data-uid="ent0012" id="entity_GMN11"><path d="M451.5,1112.0938 L451.5,1167.4922 A0,0 0 0 0 451.5,1167.4922 L609.2539,1167.4922 A0,0 0 0 0 609.2539,1167.4922 L609.2539,1143.5938 L643.91,1139.5938 L609.2539,1135.5938 L609.2539,1122.0938 L599.2539,1112.0938 L451.5,1112.0938 A0,0 0 0 0 451.5,1112.0938" fill="#FEFFDD" style="stroke:#181818;stroke-width:0.5;"/><path d="M599.2539,1112.0938 L599.2539,1122.0938 L609.2539,1122.0938 L599.2539,1112.0938" fill="#FEFFDD" style="stroke:#181818;stroke-width:0.5;"/><text fill="#000000" font-family="sans-serif" font-size="13" lengthAdjust="spacing" textLength="127.6069" x="457.5" y="1129.1606">Estado final exitoso</text><text fill="#000000" font-family="sans-serif" font-size="13" lengthAdjust="spacing" textLength="136.7539" x="457.5" y="1144.2935">Libro disponible para</text><text fill="#000000" font-family="sans-serif" font-size="13" lengthAdjust="spacing" textLength="112.0806" x="457.5" y="1159.4263">siguiente usuario</text></g><!--link *start* to Solicitado--><g class="link" data-entity-1=".start." data-entity-2="Solicitado" data-source-line="11" data-uid="lnk3" id="link_.start._Solicitado"><path d="M779.5,79.9137 C779.5,93.4938 779.5,113.3537 779.5,134.1537" fill="none" id="*start*-to-Solicitado" style="stroke:#2F4F4F;stroke-width:1;"/><polygon fill="#2F4F4F" points="779.5,140.1537,783.5,131.1537,779.5,135.1537,775.5,131.1537,779.5,140.1537" style="stroke:#2F4F4F;stroke-width:1;"/></g><!--link Solicitado to Activo--><g class="link" data-entity-1="Solicitado" data-entity-2="Activo" data-source-line="18" data-uid="lnk4" id="link_Solicitado_Activo"><path d="M675.82,202.5838 C640.16,213.4637 605.25,225.4037 589.5,234.5938 C568.28,246.9838 552.0922,260.7407 535.9122,277.0007" fill="none" id="Solicitado-to-Activo" style="stroke:#2F4F4F;stroke-width:1;"/><polygon fill="#2F4F4F" points="531.68,281.2537,540.8636,277.6956,535.2068,277.7095,535.1929,272.0527,531.68,281.2537" style="stroke:#2F4F4F;stroke-width:1;"/><text fill="#000000" font-family="sans-serif" font-size="13" lengthAdjust="spacing" textLength="164.8169" x="590.5" y="247.6606">aprobar [libro disponible]</text></g><!--link Solicitado to Cancelado--><g class="link" data-entity-1="Solicitado" data-entity-2="Cancelado" data-source-line="19" data-uid="lnk5" id="link_Solicitado_Cancelado"><path d="M766.22,204.7838 C761.9,220.0738 760.27,238.0538 769.5,251.5938 C786.95,277.1938 809.9543,291.2078 839.0043,301.1678" fill="none" id="Solicitado-to-Cancelado" style="stroke:#2F4F4F;stroke-width:1;"/><polygon fill="#2F4F4F" points="844.68,303.1138,837.4638,296.411,839.9503,301.4921,834.8692,303.9786,844.68,303.1138" style="stroke:#2F4F4F;stroke-width:1;"/><text fill="#000000" font-family="sans-serif" font-size="13" lengthAdjust="spacing" textLength="190.8931" x="770.5" y="247.6606">rechazar [libro no disponible]</text></g><!--link Solicitado to Cancelado--><g class="link" data-entity-1="Solicitado" data-entity-2="Cancelado" data-source-line="20" data-uid="lnk6" id="link_Solicitado_Cancelado"><path d="M883.24,202.0738 C922.8,213.9637 959.86,226.8038 965.5,234.5938 C976.89,250.3138 973.9795,265.9854 965.4695,283.1954" fill="none" id="Solicitado-to-Cancelado-1" style="stroke:#2F4F4F;stroke-width:1;"/><polygon fill="#2F4F4F" points="962.81,288.5738,970.3848,282.2792,965.0263,284.0918,963.2137,278.7332,962.81,288.5738" style="stroke:#2F4F4F;stroke-width:1;"/><text fill="#000000" font-family="sans-serif" font-size="13" lengthAdjust="spacing" textLength="133.3643" x="972.5" y="247.6606">cancelar por usuario</text></g><!--link *start*EnCurso to Activo--><g class="link" data-entity-1=".start.EnCurso" data-entity-2="Activo" data-source-line="25" data-uid="lnk8" id="link_.start.EnCurso_Activo"><path d="M497.5,182.7238 C497.5,202.0838 497.5,242.1738 497.5,275.5338" fill="none" id="*start*EnCurso-to-Activo" style="stroke:#2F4F4F;stroke-width:1;"/><polygon fill="#2F4F4F" points="497.5,281.5338,501.5,272.5338,497.5,276.5338,493.5,272.5338,497.5,281.5338" style="stroke:#2F4F4F;stroke-width:1;"/></g><!--link Activo to verificarRenovacion--><g class="link" data-entity-1="Activo" data-entity-2="verificarRenovacion" data-source-line="51" data-uid="lnk12" id="link_Activo_verificarRenovacion"><path d="M426.89,359.8837 C417.06,368.3438 408.34,378.2338 402.5,389.5938 C391.6,410.8038 396.5683,434.4982 400.9083,448.6282" fill="none" id="Activo-to-verificarRenovacion" style="stroke:#2F4F4F;stroke-width:1;"/><polygon fill="#2F4F4F" points="402.67,454.3638,403.8512,444.586,401.2019,449.5841,396.2038,446.9349,402.67,454.3638" style="stroke:#2F4F4F;stroke-width:1;"/><text fill="#000000" font-family="sans-serif" font-size="13" lengthAdjust="spacing" textLength="50.54" x="403.5" y="410.1606">renovar</text></g><!--link verificarRenovacion to Activo--><g class="link" data-entity-1="verificarRenovacion" data-entity-2="Activo" data-source-line="55" data-uid="lnk15" id="link_verificarRenovacion_Activo"><path d="M412.68,458.7537 C423.91,452.4138 445.68,438.7338 458.5,421.5938 C472.23,403.2338 479.9754,385.1591 486.1754,365.3791" fill="none" id="verificarRenovacion-to-Activo" style="stroke:#2F4F4F;stroke-width:1;"/><polygon fill="#2F4F4F" points="487.97,359.6537,481.4612,367.0454,486.4745,364.4249,489.095,369.4381,487.97,359.6537" style="stroke:#2F4F4F;stroke-width:1;"/><text fill="#000000" font-family="sans-serif" font-size="13" lengthAdjust="spacing" textLength="135.3828" x="476.5" y="402.6606">[renovaciones &gt;= 2]</text><text fill="#000000" font-family="sans-serif" font-size="13" lengthAdjust="spacing" textLength="133.1104" x="477.6362" y="417.7935">rechazar renovaci&#243;n</text></g><!--link Renovado to verificarRenovacion--><g class="link" data-entity-1="Renovado" data-entity-2="verificarRenovacion" data-source-line="52" data-uid="lnk13" id="link_Renovado_verificarRenovacion"><path d="M525.31,567.3838 C549.45,549.8138 568.86,527.1338 552.5,505.5938 C535.52,483.2238 451.7995,470.5608 421.4795,466.6008" fill="none" id="Renovado-to-verificarRenovacion" style="stroke:#2F4F4F;stroke-width:1;"/><polygon fill="#2F4F4F" points="415.53,465.8238,423.9362,470.9556,420.4879,466.4713,424.9722,463.023,415.53,465.8238" style="stroke:#2F4F4F;stroke-width:1;"/><text fill="#000000" font-family="sans-serif" font-size="13" lengthAdjust="spacing" textLength="50.54" x="559.5" y="526.1606">renovar</text></g><!--link verificarRenovacion to Renovado--><g class="link" data-entity-1="verificarRenovacion" data-entity-2="Renovado" data-source-line="54" data-uid="lnk14" id="link_verificarRenovacion_Renovado"><path d="M401.1,471.8238 C393.46,485.3837 379.55,515.2938 390.5,537.5938 C396.15,549.1038 400.5474,555.1926 410.4674,563.5326" fill="none" id="verificarRenovacion-to-Renovado" style="stroke:#2F4F4F;stroke-width:1;"/><polygon fill="#2F4F4F" points="415.06,567.3938,410.7452,558.5404,411.2328,564.1762,405.597,564.6638,415.06,567.3938" style="stroke:#2F4F4F;stroke-width:1;"/><text fill="#000000" font-family="sans-serif" font-size="13" lengthAdjust="spacing" textLength="152.1787" x="391.5" y="518.6606">[renovaciones &lt; 2 AND</text><text fill="#000000" font-family="sans-serif" font-size="13" lengthAdjust="spacing" textLength="83.7192" x="425.7297" y="533.7935">sin reservas]</text></g><!--link Activo to Vencido--><g class="link" data-entity-1="Activo" data-entity-2="Vencido" data-source-line="57" data-uid="lnk16" id="link_Activo_Vencido"><path d="M421.72,359.6638 C369.64,390.7438 305.4,440.2138 279.5,505.5938 C251.96,575.1138 264.8531,650.1273 289.4931,717.6473" fill="none" id="Activo-to-Vencido" style="stroke:#2F4F4F;stroke-width:1;"/><polygon fill="#2F4F4F" points="291.55,723.2838,292.2223,713.4579,289.8359,718.5867,284.7071,716.2004,291.55,723.2838" style="stroke:#2F4F4F;stroke-width:1;"/><text fill="#000000" font-family="sans-serif" font-size="13" lengthAdjust="spacing" textLength="83.1606" x="287.2285" y="518.6606">vencer plazo</text><text fill="#000000" font-family="sans-serif" font-size="13" lengthAdjust="spacing" textLength="96.6177" x="280.5" y="533.7935">(after 14 days)</text></g><!--link Renovado to Vencido--><g class="link" data-entity-1="Renovado" data-entity-2="Vencido" data-source-line="58" data-uid="lnk17" id="link_Renovado_Vencido"><path d="M457.37,631.7438 C448.28,655.0638 437.3274,683.1928 423.8174,717.8828" fill="none" id="Renovado-to-Vencido" style="stroke:#2F4F4F;stroke-width:1;"/><polygon fill="#2F4F4F" points="421.64,723.4738,428.6334,716.5389,423.4545,718.8146,421.1788,713.6357,421.64,723.4738" style="stroke:#2F4F4F;stroke-width:1;"/><text fill="#000000" font-family="sans-serif" font-size="13" lengthAdjust="spacing" textLength="83.1606" x="451.2285" y="674.6606">vencer plazo</text><text fill="#000000" font-family="sans-serif" font-size="13" lengthAdjust="spacing" textLength="96.6177" x="444.5" y="689.7935">(after 14 days)</text></g><!--link Activo to Devuelto--><g class="link" data-entity-1="Activo" data-entity-2="Devuelto" data-source-line="71" data-uid="lnk18" id="link_Activo_Devuelto"><path d="M620.83,340.3837 C688.78,358.5237 759.5,393.8937 759.5,462.5938 C759.5,462.5938 759.5,462.5938 759.5,869.5938 C759.5,955.7538 759.5,1051.4438 759.5,1101.5238" fill="none" id="Activo-to-Devuelto" style="stroke:#2F4F4F;stroke-width:1;"/><polygon fill="#2F4F4F" points="759.5,1107.5238,763.5,1098.5238,759.5,1102.5238,755.5,1098.5238,759.5,1107.5238" style="stroke:#2F4F4F;stroke-width:1;"/><text fill="#000000" font-family="sans-serif" font-size="13" lengthAdjust="spacing" textLength="128.4956" x="760.5" y="604.1606">devolver [a tiempo]</text></g><!--link Renovado to Devuelto--><g class="link" data-entity-1="Renovado" data-entity-2="Devuelto" data-source-line="72" data-uid="lnk19" id="link_Renovado_Devuelto"><path d="M522.56,631.6838 C533,640.1238 542.78,650.1438 549.5,661.5938 C634.99,807.1737 512.48,895.4038 603.5,1037.5938 C622.98,1068.0238 650.0089,1088.2975 680.1689,1104.6975" fill="none" id="Renovado-to-Devuelto" style="stroke:#2F4F4F;stroke-width:1;"/><polygon fill="#2F4F4F" points="685.44,1107.5638,679.4442,1099.7503,681.0474,1105.1752,675.6225,1106.7784,685.44,1107.5638" style="stroke:#2F4F4F;stroke-width:1;"/><text fill="#000000" font-family="sans-serif" font-size="13" lengthAdjust="spacing" textLength="128.4956" x="604.5" y="873.1606">devolver [a tiempo]</text></g><!--link Vencido to Devuelto--><g class="link" data-entity-1="Vencido" data-entity-2="Devuelto" data-source-line="73" data-uid="lnk20" id="link_Vencido_Devuelto"><path d="M382.36,1013.8238 C391.22,1037.9938 404.31,1060.6738 423.5,1077.5938 C457.87,1107.8938 582.49,1099.0138 627.5,1107.5938 C632.82,1108.6038 632.372,1108.4902 637.842,1109.6102" fill="none" id="Vencido-to-Devuelto" style="stroke:#2F4F4F;stroke-width:1;"/><polygon fill="#2F4F4F" points="643.72,1110.8138,635.7053,1105.0897,638.8216,1109.8108,634.1006,1112.9271,643.72,1110.8138" style="stroke:#2F4F4F;stroke-width:1;"/><text fill="#000000" font-family="sans-serif" font-size="13" lengthAdjust="spacing" textLength="125.728" x="424.5" y="1058.6606">devolver con multa</text><text fill="#000000" font-family="sans-serif" font-size="13" lengthAdjust="spacing" textLength="100.5088" x="437.1096" y="1073.7935">[multa pagada]</text></g><!--link Devuelto to *end*--><g class="link" data-entity-1="Devuelto" data-entity-2=".end." data-source-line="75" data-uid="lnk22" id="link_Devuelto_.end."><path d="M787.3,1171.7538 C806.95,1193.7838 827.824,1217.1881 839.654,1230.4381" fill="none" id="Devuelto-to-*end*" style="stroke:#2F4F4F;stroke-width:1;"/><polygon fill="#2F4F4F" points="843.65,1234.9138,840.6397,1225.5362,840.32,1231.184,834.6722,1230.8642,843.65,1234.9138" style="stroke:#2F4F4F;stroke-width:1;"/></g><!--link Cancelado to *end*--><g class="link" data-entity-1="Cancelado" data-entity-2=".end." data-source-line="76" data-uid="lnk23" id="link_Cancelado_.end."><path d="M942.5,352.6738 C942.5,381.2438 942.5,424.7737 942.5,462.5938 C942.5,462.5938 942.5,462.5938 942.5,1140.5938 C942.5,1189.4838 888.8066,1222.6837 865.3066,1235.0837" fill="none" id="Cancelado-to-*end*" style="stroke:#2F4F4F;stroke-width:1;"/><polygon fill="#2F4F4F" points="860,1237.8838,869.8266,1237.2214,864.4221,1235.5504,866.0931,1230.1459,860,1237.8838" style="stroke:#2F4F4F;stroke-width:1;"/></g><!--SRC=[ZLRDRXit4BxlKmoIGvq2RjmalHYE05bItG2EOrXjW5RIWUAEv84fKY2vYkt2bxv9ZmNQKn_1Rz8dwN2Nkql9gzOwh7Ovyt5cllaXFNc5C2RdSIKWHpX3v-dnRntUJscko7YK0dxIj47ho0jB0WvXI69fHGKPEIzouwPwG5APiFAPyY1HS6aV_s3focJPL_0-_60q_l73-QSnN8wknfyk-kSVVkaF-RCKPkw6z5hmni0eZ_1h1lmx5V9cQKsXyu5Hni8vBQ_zgIgmaXgRewqaGs5l6a7VMlEbNHyhtl7CYhli8SkooTSpE3pimTWeaXG2oBBAPhi2Btz6fSoNw4OYE0RKtjx1Qx2uPFAii55Qv0UlzcipXxGWAUoGtDfecfDYgWA4VKeGmRE-zBG9OB6sPYuiJ1JDBVCReGfdkv21q19LPTAYl1RtBKm_6ochTmjhPgvm1QUy8UV5ICEWiCwy0E5WfClto4zMFcjYA_UhjGeR0tfPfk_C8ke8B9DLHrjJXNf3mevMWjJ0w0NPbP1aT6It4oAaBuIY-rrwpmC1dS1RycaEV-0_mmMkel935LSRmXLgioahepE8Hfo4SUjHStr-7zBn6RMa5R4iTQS3HLfQNF6NuCBM8KksqWeKeDldNhb_uzt0MA4IxsffQqOA9GlEzCT2UP5uz5IpoiQ5yMNv1Y-ka1bpQHpDIrq2SPiBmxbJZNJBrV-I3InvakRf_blOr594X1fcraXpwNBBLR5CUc-F87_yIxXPDtbDRxPCmyc9l3OaiTThjMFr1BDTaD1vuSDcMxbzddhvw58ByAHE9ZQf1ZY1Dz2_64wr8ytRERIREifzUpKjiBrJxpsycKrrCpjg8Hy8dGIqXH9eHXuPIjoRgJuG2yzVtxw3NDovLq-fU2xmeHuyGzmKg7pRUU8kbdOZQQkL9nvoEwTztw75OrMYuybDooBq95vLr1qaPjkv-CHkEZ9t3BSRxLFKiPDi5CRHndOJTXEVSzmOnSc4YG1Fk5gRMRP5wF_erdplK-L-WLMO0bCzAVzXBPOY5xCiQzG3bbixQ-EfLp8E1y46Wi0iqZCLuks09nelSRU6My6wkHK0NF9qBCaFzuRgfAlAZTS3InWtzsOTjkwevomaLvAhRor9pHwpx10-Flv-Iol3JPBMUYaQ9mq3wzeLjsjyRhmtgs0_yiZWScQwoWB7MEGa67eC__psvz4ttnsz3gEc55vQiq1dR1IzZQ8T4meN9NSrsorp2zBCMpYgZ0lBvpkt00WN9bvtTHatPtPjuby0]--></g></svg>